<svg xmlns="http://www.w3.org/2000/svg" viewBox="272.54858773944034,531.0293810286107,1055.7444337037862,1195.5651337982831" width="1055.7444337037862pt" height="1195.5651337982831pt" xmlns:cricut="http://developer.cricut.com/schemas/svg/v1">
    <g cricut:canvasRootGraphic="true" cricut:graphicContainerSubtypeName="'GraphicGroup'" cricut:graphicId="'9A6C4043-A7C2-4499-880A-271EB0F67FDF'">
        <g transform="matrix(1.0,0.0,0.0,1.0,272.54858773944034,531.0293810286106)" cricut:cacheComponentsId="'components-3'" cricut:graphicContainerSubtypeName="'SymmetricDifferenceGraphic'" cricut:graphicId="'2A232FB8-7888-4F20-87D7-1491DA43CD3A'" cricut:nativeSize="{'Width':1055.7444337037862,'Height':1195.5651337982833}">
            <path stroke="rgb(0,0,0)" stroke-width="1.0pt" fill="rgb(0,0,0)" fill-rule="evenodd" d="M 1052.2056049391124,997.1270534719928 C 1020.6809941964898,993.8086733938222 998.8349920151982,964.7728477098282 989.7094468002285,940.9911238162707 C 969.7991663312034,866.3275720574262 972.8410147361938,770.9241448100153 938.274555588581,705.6626699393224 C 925.8306302954404,677.7329709480524 903.4315647677874,652.5685886885902 881.5855625864963,628.2338014486701 C 828.7680130089441,569.0560233879575 780.374970202286,500.7527001122746 762.4004114455275,432.1728451634111 C 767.6545132359649,395.9471959767128 845.359913399798,269.84875300622207 813.0057076376327,251.32113090310156 C 814.664897676718,247.4496874785691 816.0475560426228,243.57824405403665 817.7067460817079,239.43026895632283 C 818.5363411012506,238.32414226359958 848.9548251511499,220.34958350684042 848.1252301316072,218.9669251409365 L 867.2059155810894,169.7442873147354 C 868.8651056201745,155.08810863614815 847.5721667852451,174.44532575881124 843.7007233607128,175.27492077835382 C 848.1252301316072,161.1718054461278 857.2507753465768,147.06869011390188 859.463028732024,132.68904310849518 C 858.3569020393004,130.20025804986665 853.1028002488633,129.37066303032395 850.8905468634161,128.54106801078137 C 861.3987504442903,102.82362240495723 867.4824472542703,90.93276045817845 835.9578365116474,111.94916761992744 C 837.6170265507328,101.16443236587196 856.9742436733957,74.0643283941439 849.2313568243305,67.15103656462088 C 846.1895084193407,66.3214415450783 840.1058116093609,63.00306146690775 838.4466215702757,67.70409991098285 L 821.8547211794212,108.07772419539435 C 819.6424677939738,104.48281244404313 817.9832777548886,75.17045508686715 808.857732539919,86.78478536046532 C 808.3046691935572,89.55010209227447 788.3943887245323,132.41251143531383 788.3943887245323,136.00742318666573 C 787.5647937049894,136.00742318666573 786.7351986854468,136.00742318666573 785.9056036659041,136.00742318666573 C 785.3525403195422,131.02985306940923 782.0341602413716,120.79818116171634 776.2269951045726,128.2645363376007 L 756.0401829623669,175.82798412471573 C 754.3809929232816,174.99838910517258 763.7830698114318,213.71282335049932 763.5065381382511,214.26588669686066 C 763.2300064650702,214.81895004322269 762.9534747918892,215.64854506276527 762.6769431187086,216.2016084091273 C 757.6993730014522,209.84137992596618 752.1687395378343,203.20461976962451 743.3197259960455,201.8219614037206 C 741.1074726105982,197.67398630600678 738.61868755197,193.80254288147432 735.5768391469801,189.93109945694175 C 763.7830698114318,141.53805665028347 704.8818234239,98.12258396088214 675.2929343935436,63.27959314008842 C 660.6367557149559,43.922376017425336 650.4050838072625,19.31105710432513 628.0060182796095,7.143663484365675 C 555.0016565598512,-27.975859009608712 500.52491694321384,74.61739174050524 532.8791227053792,136.00742318666573 C 546.1526430180625,167.25550225610755 572.97621531661,189.1015044373986 581.548697185218,222.00877354592626 C 574.6354053556953,237.21801557087565 570.4874302579818,253.53338428854886 565.7863918139064,269.29568965986016 C 553.6189981939468,288.0998434361619 521.8178557781431,310.49890896381487 522.0943874513241,333.4510378378292 C 506.6086137531936,344.78883643824656 495.2708151527768,365.52871192681425 490.2932450355204,382.3971439908488 L 130.24900655398645,269.0191579866795 C 87.66312888412759,228.09247035590602 -0.5504748605799534,216.47814008230796 0.002588485781870986,278.9742982211916 C 6.639348642123565,295.8427302852268 17.70061556935954,243.57824405403665 64.71100001011283,257.95789105944334 C 158.1787055452576,310.2223772906335 230.90653559183474,392.07575255218046 303.63436563841174,481.6720146627928 C 328.522216224693,513.7496887517774 353.41006681097406,549.1457429189323 385.76427257313946,572.3744034661287 L 223.71671208913122,813.7865541530554 C 221.50445870368404,812.956959133512 219.2922053182368,814.6161491725985 218.46261029869416,816.5518708848646 L 217.35648360597057,808.532452362619 C 216.80342025960877,804.1079455917244 210.16666010326705,803.8314139185437 209.3370650837244,808.255920689437 L 195.78701309786018,862.1795969597136 C 195.2339497514984,864.668382018341 197.16967146376467,867.4336987501503 199.65845652239287,867.4336987501503 C 200.4880515419355,867.4336987501503 201.31764656147814,867.1571670769696 202.14724158102095,866.6041037306082 L 248.05149932905059,832.8672396025378 C 251.64641108040226,830.3784545439092 248.88109434859328,824.2947577339295 244.4565875776989,825.4008844266535 L 235.88410570909085,827.6131378121 C 236.99023240181444,826.2304794461967 237.81982742135725,824.2947577339295 236.71370072863365,822.6355676948443 C 288.14859194028145,746.0362942237351 340.1365464982907,669.4370207526248 391.01837436357675,593.9438739742383 C 392.67756440266214,600.3041024574001 400.4204512517274,602.5163558428466 405.6745530421646,598.9214440914953 C 407.33374308124985,605.2816725746558 414.8000982571341,609.4296476723695 421.160326740295,606.9408626137409 C 423.0960484525614,612.4714960773593 429.73280860890293,615.7898761555299 434.9869103993401,613.5776227700834 C 441.07060720931986,621.3205096191483 452.4084058097369,619.3847879068811 460.15129265880205,615.2368128091686 C 475.63706635693256,622.1501046386903 490.5697767087013,627.6807381023087 506.3320820800127,631.8287132000224 C 484.7626115719024,728.8913304865185 477.0197247228373,816.8284025580452 484.20954822554063,893.9807393755169 C 460.98088767834474,906.1481329954764 480.8911681473696,940.1615287967273 476.19012970329425,960.3483409389338 C 468.1707111810483,982.1943431202241 467.8941795078673,1004.593408647877 470.3829645664955,1027.269005848712 C 467.8941795078673,1048.2854130104602 449.3665574047468,1064.0477183817711 454.0675958488223,1087.8294422753283 C 440.79407553613896,1100.8264309148312 437.1991637847873,1122.6724330961229 419.7776683743905,1132.3510416574536 C 386.87039926586317,1119.0775213447705 354.51619350369765,1155.0266388582886 391.29490603675754,1175.4899826736746 C 403.4622996567173,1181.2971478104737 462.91660939061126,1188.7635029863577 476.74319304965616,1192.35841473771 C 493.33509344051026,1195.4002631427002 520.1586657390577,1200.1013015867752 531.4964643394746,1185.4451229081874 C 543.9403896326153,1172.1716025955038 529.5607426272085,1147.8368153555848 528.4546159344848,1131.5214466379116 C 530.11380597357,1111.611166168886 548.3648964035098,1096.6784558171175 544.4934529789771,1075.108985309008 C 543.9403896326153,1043.8609062395658 563.2976067552784,1015.6546755751139 565.7863918139064,984.4065965056719 C 605.6069527519566,968.3677594611794 657.0418439636042,986.342318217938 676.6755927594479,1023.9506257705401 C 672.2510859885534,1061.5589333231437 650.6816154804434,1105.5274693589063 679.4409094912571,1138.1582067942527 C 699.6277216334628,1090.318227333957 749.6799544792061,1099.1672408757458 793.0954271686078,1087.8294422753283 C 821.0251261598785,1087.8294422753283 862.7814088101948,1088.382505621691 892.0937661673704,1088.6590372948717 C 920.5765285050031,1091.9774173730425 928.0428836808876,1070.6844785381131 917.8112117731941,1047.4558179909172 C 966.4807862530331,1051.8803247618116 1030.912666104183,1058.240553244972 1055.2474533441023,1002.9342186087919 C 1056.6301117100068,1000.168901876984 1054.9709216709216,997.1270534719928 1052.2056049391124,997.1270534719928 Z M 404.01536300307896,545.2742994944 C 319.39667100972326,464.25051925239575 240.0320808068045,351.4255965945882 149.0531603302879,283.3988049920862 L 478.67891476192244,387.3747141081052 C 478.40238308874154,387.65124578128587 445.7716456533951,438.8096053197529 445.49511398021434,438.8096053197529 C 444.94205063385255,439.6392003392955 444.94205063385255,440.46879535883807 444.94205063385255,441.29839037838144 C 444.94205063385255,441.5749220515621 446.8777723461187,480.8424196432502 447.1543040192996,481.11895131643087 L 404.01536300307896,545.2742994944 Z M 466.2857639261721,467.7762286073239 C 465.8607532989215,460.13397607921877 465.3372599548951,450.7181028785694 465.027401277899,445.13586229265286 C 466.9751424029653,442.11757478330026 469.70332438153287,437.88917337747523 472.7436074203355,433.17703687981054 C 479.8031702072212,422.2354163000557 488.54002329808304,408.69402120196446 492.8064467090637,402.0803511178542 C 495.1679270390522,401.7788634875154 497.478647450262,401.05210871633267 499.6212592614954,399.91093283278724 C 504.32124822458377,397.40767301246615 507.81787565169145,393.1203980094732 509.32495911097703,388.0130596196724 C 513.2198116990052,374.81383696024454 521.6990992984369,358.3332254508647 533.8164184611906,349.46161677813393 C 538.9888767415035,345.6746383943332 542.0131777064348,339.6220972050578 541.935947413585,333.21198289852475 C 541.8894143367603,329.3497375220752 544.3430255260038,325.8063108114127 546.9290703657216,322.0630756174711 C 551.5273315837784,315.40720756831354 557.6656616329682,308.9590518051847 563.5029760042552,302.71726402299066 C 570.877985761112,294.8312323882466 577.846366714256,287.1839218065488 582.4459824422768,280.0754247723346 C 583.4698375193683,278.49310328955676 584.2630445184619,276.7729869208355 584.801695850929,274.96692068844595 C 585.6990770123343,271.9580544413816 586.5768314898879,268.929423126757 587.4568986990253,265.89207760287763 C 590.9369654889946,253.88144344042382 594.394670247039,241.700409060727 599.6130991975083,230.21986536969496 C 601.4965550685038,226.07626245350502 601.8982500255328,221.41111198259455 600.7508391822308,217.0065348744356 C 595.3003129799094,196.0835471945568 583.6737772115591,178.93014024114348 571.5655668073794,161.8018942707114 C 564.060658853832,151.18546912423096 556.3736872710037,140.56405004870533 551.1427033355628,128.2494420340214 C 550.927125726728,127.74193641322279 550.6904880626895,127.24363697470335 550.4334064990558,126.75584118729569 C 544.1194818949981,114.775573989853 542.2538454671617,100.74803391158258 543.5793648952571,86.92957819426209 C 544.9735449250854,72.39534007159847 549.9211790666939,58.03307564472618 557.5980380604561,46.15593890206628 C 564.5638999565263,35.37881060814635 573.7538512994946,26.583892397721684 584.8303442682457,22.38313002509159 C 589.7500011132238,20.517349094345718 595.0369611877071,19.60766242164169 600.6046373482873,19.896107864383396 C 606.4684716147677,20.19989641500615 612.5975575008687,21.814127742441087 618.9473725462698,24.807743634327267 C 631.853958909251,32.00375881051872 639.183135120642,44.82701531934629 647.0211421817884,56.98708016368903 C 651.0546339458044,63.24473227052266 655.0871278362787,69.46500863216124 659.4729391144946,75.25758956565409 C 665.9302722527743,82.90956593519422 672.7464774906626,90.01655249708648 679.8495516766145,97.40053838352327 C 693.4315571814976,111.51968374679308 708.3847326188833,126.65691853046019 717.096727173143,142.9484371777737 C 720.423160574164,149.16890155527756 722.7980670758336,155.51417138473698 723.1407097317556,162.08593922729472 C 723.4442984561147,167.90866614594108 721.9867251866581,173.84235396632982 718.4333224382549,179.93887828957065 C 714.3350704530219,186.97019297011764 714.9457884614334,195.79108683591687 719.9739243497268,202.19053251192656 C 722.2680239538931,205.110295644502 724.1427605085232,208.0315261146162 725.8111965842807,211.15984375666153 C 728.7455891089663,216.6618297404474 734.0955934177327,220.46445416709366 740.2564255607778,221.42708418944392 C 740.8465740019244,221.51929488337294 741.232854750764,221.95544109566674 741.647802873445,222.3058417325982 C 743.7244962269241,224.05949389775844 745.3891267009354,226.3081711505463 747.0504813837149,228.431013245209 C 751.2442439984418,233.78970991958238 757.891351507182,236.62576168029887 764.6618720628715,235.94508090224826 C 764.740545865762,235.93717135601423 764.8191088148187,235.9287997809255 764.897557323378,235.91996803647567 C 763.5888105677082,244.5627255810574 768.142920633175,253.31173746482136 776.4639397181013,257.0099681692328 C 780.2037082508176,258.67208751710666 784.3332236573856,260.0962998210789 788.4450756697514,261.48175753628107 C 790.2230411616109,262.08082968203155 791.9950367907662,262.6750501174671 793.701950909282,263.30391321376226 C 795.1383069389944,263.8330970141825 796.5971270099392,264.18568219542146 798.0544150898525,264.3725068809629 C 798.9208357419568,265.3652795228877 799.8945089860347,266.28025474083915 800.9691412180571,267.0986258152045 C 801.0138147178818,267.60883183021076 800.9988863997362,268.1681019826975 801.0121094325368,268.75886653987936 C 801.1536597014483,275.0828984917001 799.3345555434055,282.9702306244012 796.6908476182796,291.81513948081647 C 790.2295710093415,313.43227886259126 778.4664068294829,339.4842707474477 767.8173733973408,363.2255848716752 C 755.4083941464247,390.89058153399094 744.7111019964456,415.8922085324059 742.762884677449,429.3246542581171 C 742.3815050518009,431.95416641390136 742.5321038524437,434.63349283889863 743.2057480437735,437.20370452274176 C 761.9067352176392,508.55516327841406 811.8293354183395,579.8773987591317 866.7814669600066,641.4468026853971 C 887.2625787570639,664.2613296632818 908.5045243031084,687.602492936779 920.1492010436325,713.7383229543988 C 920.3321356681918,714.148909556187 920.5289687615268,714.5531616916329 920.7393596348959,714.950379660554 C 941.1000765445376,753.3914131859573 947.29830808426,802.9211305680284 953.9025490545034,851.8600076137758 C 958.2997260217878,884.444055337034 962.7279654525598,916.8221183869849 970.536446893721,946.1039237913393 C 970.7167867554485,946.7801982728178 970.9327808700916,947.4464576719332 971.183523559019,948.0999083158048 C 976.6238255251353,962.2776649547744 985.8878627944155,978.0010895124861 998.4582574888509,990.6951274334239 C 1006.6492086245103,998.9666453015649 1016.2008139035765,1005.9327296446735 1026.936063335684,1010.6572430880891 C 1024.5374269576007,1013.259927490091 1021.9608703014355,1015.4904947745439 1019.2078241348761,1017.4242842118812 C 1011.3616530188071,1022.9355767619626 1002.2033231473281,1026.1069309651011 992.513578727129,1027.991977994191 C 969.3544121448608,1032.4973721789033 943.3672134863309,1029.8563240329418 920.8638835942234,1027.8085804548618 C 920.4440246594511,1027.7703744008468 920.0252892594106,1027.7322706111145 919.6077125819138,1027.6943090949785 C 912.6112250479107,1027.058264773706 905.7999439328978,1030.1691328239817 901.6992697901535,1035.8735049863776 C 897.5985956474094,1041.577877148773 896.8198646141086,1049.0253349990553 899.6518047208738,1055.4546044306298 C 901.1604956120345,1058.8797405078594 902.1299081709103,1062.2036795261934 902.3032037462465,1065.2771275240643 C 902.37504899544,1066.5513241494682 902.4518718568165,1067.751781660504 901.94013422577,1068.5688308141594 C 899.9836012191856,1069.3834329594865 897.4550274835888,1069.3064358640004 894.3900404162398,1068.9493499920763 C 893.6898635698519,1068.8677759905554 892.9858372981585,1068.8235700699347 892.280955950851,1068.8169202459035 C 884.6295017186303,1068.744736715411 876.1292909269871,1068.6536856403654 867.2485184897678,1068.558564699877 C 842.0442271720749,1068.2886044107895 813.7865110804742,1067.9864422753285 793.0954271686078,1067.9864422753285 C 791.4035503494637,1067.9864422753285 789.7186200113623,1068.2028208239954 788.0816415585216,1068.6303120123166 C 777.6608007222354,1071.351678090583 766.8210800491642,1072.7768512785647 756.1610413371556,1074.2263176290307 C 737.7781121474623,1076.7258805296278 719.8839219671818,1079.4439881469962 704.4332813916785,1086.2112628335194 C 696.7041760793161,1089.742516889582 690.3838772387269,1093.4611275941038 684.6009836412471,1097.233703901882 C 684.4515566959261,1084.1517433814756 687.6634355543232,1070.5014135286092 690.6341063437745,1057.075471416174 C 692.9555442655197,1046.5837362613934 695.212594438041,1036.2148356313996 696.3826802010268,1026.2691066460197 C 696.8485002873954,1022.3096359118871 696.1108250022775,1018.301661837694 694.2657891013325,1014.7675085626446 C 688.1182151868351,1002.9918740221987 679.518893581566,992.7222215568794 669.2422713424543,984.3017770049797 C 659.2819807955585,976.1405278786136 647.7438286812082,969.7212801747756 635.4285247295962,965.3574246007803 C 623.1698127136909,961.0136220465923 610.1466345591033,958.708207864676 597.1830988114488,958.6873241985501 C 583.9051269399015,958.6659339901383 570.6935918951818,961.0379882439162 558.3728318500569,966.0005165954248 C 551.3926973004195,968.8119596779176 546.603479780187,975.329866618553 546.0060308758702,982.8311695283061 C 544.9912151106313,995.572745247417 540.6017171029165,1007.690299084502 536.4323144138074,1019.8155074701159 C 530.1613229176461,1038.052431160409 524.3143749142293,1056.2961626706287 524.6535602448903,1075.4601338529742 C 524.6722863092119,1076.5181564871468 524.7756155675029,1077.5729859937837 524.9625594185975,1078.6145303070248 C 526.3628427782801,1086.416109025256 522.0595953837617,1092.5421130567997 518.8875249159094,1098.9719856267707 C 514.0248026552377,1108.8288550740785 509.6001329353803,1118.8338814001895 508.68015845363163,1129.8735751811741 C 508.5972673403521,1130.8682685405283 508.58954671267463,1131.867798523272 508.65706231536376,1132.863653662937 C 509.0889757766587,1139.2343772170366 510.99090936117807,1146.6355893927607 513.1355677106112,1154.243225580492 C 514.6264787176094,1159.5318574656212 516.3307838952869,1164.9674809558128 516.6558851111708,1170.0169966130393 C 516.7068954968132,1170.8092967595726 516.7666767440338,1171.5780228198728 516.6358282676724,1172.2957448031548 C 516.3467511053227,1172.6224424216875 516.0684914494149,1172.9586226479346 515.8015109065774,1173.3037438374563 C 515.3072755422277,1173.9426334547861 514.5311986358266,1174.192126222346 513.7695035849764,1174.466366576955 C 511.2832429682886,1175.361518767335 508.45406636405335,1175.6241267372366 505.55219937326024,1175.7028214352922 C 497.0293627684214,1175.933949207626 487.98641987402516,1174.249085744646 480.93416834672644,1172.9531968923839 C 475.1639514580919,1171.5483954824585 463.5303152343654,1169.59556372707 450.40781029810864,1167.449585729355 C 431.01230878682327,1164.277758421988 407.70990898663285,1161.0111099263468 400.28275712896766,1157.7826060515772 C 397.88675566867755,1156.2443613455844 396.46039361198825,1155.1865927257045 395.1320819057819,1153.3676787450781 C 396.473406047774,1151.623957360489 398.71759726140147,1150.4743004884167 401.2173377078401,1149.8310745930526 C 404.57730781472094,1148.966496919209 408.4540260023065,1149.1799481663402 412.35486934590347,1150.7533975822448 C 417.9093655243257,1152.9938666290032 424.17866060923745,1152.6056225144944 429.4142810577674,1149.6969444875335 C 442.9748237385269,1142.1633096648902 450.9837124825532,1129.7244262761874 458.21364339757326,1116.7082947684494 C 461.1252023897331,1111.4665801269225 463.7895237692528,1106.081517698381 467.9502506085472,1102.0074726682387 C 472.73237821337375,1097.3249727218458 474.831810421299,1090.5472708874663 473.5339153734926,1083.9814488809166 C 471.6687993322639,1074.546155966466 476.3503572323598,1067.258169657986 479.9368332458812,1059.7445132224689 C 484.55058422434274,1050.078718832517 488.81803678359756,1040.3289977817863 490.08827643403936,1029.6025296225002 C 490.2651849600122,1028.1086354031736 490.2716393795682,1026.5994688856213 490.10751529711445,1025.104116134376 C 487.9545272157342,1005.4880025040217 487.8803047450351,986.0847646776518 494.8177107850379,967.1863137410929 C 495.0981967564155,966.42223126734 495.33140434946006,965.6416148149848 495.5160117733543,964.8488888182627 C 497.72503005319186,955.3631044401362 496.4141813060671,943.5043967447606 494.4222601516277,931.5122689075298 C 493.3826180410922,925.2532254374993 492.0276698208713,918.9466136666739 492.65979124318073,913.4317642837437 C 492.79728392271636,912.5909290039982 492.82154553313944,912.0978219450595 493.41683902078853,911.5582945300811 C 500.5461832249372,907.8238761374317 504.7137187206571,900.1530218398717 503.96694342038927,892.1395484254593 C 496.9453704216903,816.7926689394191 504.63784291914567,730.9244997569552 525.7025619152429,636.133264274518 C 527.1552037051156,629.596376220091 525.2003766976125,623.0722651930084 520.9905499671589,618.4516630890051 C 526.6610181668568,616.433691111175 531.3478475630443,611.8701027601197 533.2862113651847,605.6857992009096 C 537.1460722376728,593.3710049886856 541.0060359912018,581.301313988068 544.86589686369,569.2315903074303 C 546.8041124703997,563.1708208705764 548.742321351161,557.1100492864192 550.680536954713,551.0185289641122 L 558.6985902855344,525.8584305811894 C 561.1903058309053,518.0395990422666 558.6117927983946,509.4948511622706 552.2140316869234,504.35927542342404 C 548.4213132779234,498.9025822551064 542.1400120680177,495.6990178590672 535.4792527246719,495.84732754588526 C 528.6896336805102,495.9985064463899 522.4489274519676,499.61150395408424 518.937039011539,505.42428482100024 C 511.4482106410221,517.8195869515104 503.95656038727566,528.147005451451 495.6930256336018,538.2181884324913 L 479.46300623623233,560.3879305196964 C 474.35752337189876,561.4157572122211 469.8086267344024,564.42527136989 466.86957921545184,568.833842648316 C 465.41929870455215,571.0092634146656 463.9782635996403,573.1910747968512 462.5279830887406,575.1247821447178 C 458.850343725627,580.0283012955367 457.6452308441354,586.3561853462253 459.26310606340985,592.2682079377272 C 459.5590415010099,593.3496120978713 459.94335288087643,594.3948977498984 460.40845963411516,595.3954640362867 C 457.0941518823561,595.3526121512053 453.77845815815726,596.139826306085 450.7810031702602,597.7456057638866 C 450.0094172368406,598.1589553710756 449.14243334318803,598.5723976419149 448.2458810711041,598.8128946466015 C 444.82740153225484,595.7406205367776 440.48213188489103,593.9885847132174 435.9922883076284,593.7591484608331 C 434.18610200195633,591.726861785004 431.9634206872563,590.0668167444188 429.4425175661074,588.9089474596364 C 426.95829656493515,587.767926541483 424.29284065065804,587.1643488374748 421.6142241680219,587.1030545130925 C 419.3637498654132,584.0682288426286 416.2610529396086,581.694957515045 412.62352043681835,580.3349839350255 C 409.9707211488342,579.3431750805382 407.17904657527106,578.9447245849977 404.4309143118089,579.1174272972181 C 406.09217247036236,574.5279940950177 405.9689772171565,569.5414833552232 404.2342029971604,565.1161911676083 C 404.8697467714421,565.1091425024123 405.5075705799919,565.0715172777868 406.1456297619384,565.0026195581079 C 409.55898297303474,564.6340452011244 412.7747075164391,563.3925793081852 415.5097353533963,561.4491326845895 C 418.8882099277779,563.2280635350627 422.7756876890377,564.0315644037461 426.7296907881787,563.6361640938322 C 430.6742909963381,563.2417040730166 435.0120824132084,563.476478493599 438.9566826213677,564.0681685248229 C 447.60005788351225,565.3646748141446 456.0739501511532,560.8531895760439 459.8239377477646,552.958478846336 C 464.98139024479246,542.1006841157513 472.1169023614748,532.1697880200065 479.18561374736225,522.1610417462193 C 486.34259278240165,512.0273153372536 493.47003310974185,501.84282636981425 499.24155604100304,490.98686657053725 C 503.21183190748195,483.5189667264459 502.01221133076615,474.35529415761016 496.2534155145098,468.16103154742063 C 490.4946196982535,461.9667689372311 481.442531699441,460.10352248582694 473.70552702072905,463.5198622140907 C 473.62944670816637,463.55345611833934 469.8388611849025,465.74021646239737 466.2857639261721,467.7762286073239 Z M 460.15129265880205,491.0740915509431 C 460.42782433198295,491.0740915509431 481.7207631669123,481.6720146627928 481.7207631669123,481.6720146627928 C 470.1064328933146,503.51801684408383 452.4084058097369,522.322170620385 441.90020222886255,544.4447044748573 C 436.3695687652446,543.6151094553146 430.2858719552647,543.3385777821339 424.75523849164665,543.8916411284953 C 436.6461004384255,526.4701457180987 448.5369623852042,508.772118634521 460.15129265880205,491.0740915509431 Z M 514.3515006022589,599.7510391110374 C 501.9075753091182,595.8795956865055 489.7401816891586,591.7316205887918 478.40238308874154,587.0305821447165 C 480.06157312782716,584.8183287592686 481.7207631669123,582.3295437006415 483.37995320599794,579.8407586420129 C 485.0391432450832,582.0530120274594 488.3575233232541,581.7764803542788 490.0167133623395,579.5642269688323 L 511.03312052408796,550.8049329580182 C 519.8821340658769,540.0201977039627 527.901552588123,528.9589307767266 535.9209711103691,515.6854104640439 C 537.0270978030927,517.3446005031291 538.4097561689972,518.7272588690338 539.7924145349016,519.8333855617572 L 531.7729960126557,544.9977678212193 C 525.9658308758566,563.2488582511584 520.1586657390577,581.2234170079174 514.3515006022589,599.7510391110374 Z M 819.794969810961,214.50608161142293 L 817.2541279604179,201.8018723587063 C 815.5319874095414,193.19116960432382 808.3551126764298,186.73635887735304 799.6106625533953,185.93351266102934 C 791.4359871151762,185.18297864769443 783.7089437830006,189.5387348572109 780.0722808608723,196.7705633562016 C 778.927033237291,191.62903269167418 777.6477218157265,185.83791061110594 776.707215117665,181.16000330025486 C 776.5510324837464,180.38317960878965 776.4045284664176,179.6426948059369 776.2715416202784,178.94955913826982 L 786.0752446695062,155.8504231866657 C 786.8482926878482,155.8504231866657 787.62134070619,155.8504231866657 788.3943887245323,155.8504231866657 C 799.3533750154247,155.8504231866657 808.2373887245324,146.96640947755816 808.2373887245324,136.00742318666573 C 808.2373887245324,135.08795185841677 810.3346698869498,131.01276746593908 812.9769492709804,125.82398664758932 C 816.1607291299049,127.41673992718529 819.7734996089341,128.1544585809712 823.457647551696,127.85587567739753 C 824.1886773347503,128.02605738893396 824.5384594870659,128.2228893004027 825.2880093579224,128.6793630016208 C 827.1492188074055,129.86636546452064 829.157901569597,130.7133885054401 831.2293404633654,131.2212907275349 C 831.4745792757287,133.02071062293624 831.9678332780709,134.79370122898683 832.7084734086993,136.48819666755298 C 833.5676511393069,138.45389186178545 834.7304698760588,140.2469912932812 836.1379415165031,141.8115691389612 C 834.9702449611168,144.61251479130817 833.6727477831807,147.40733773778345 832.4187291119727,150.2113397386903 C 829.5645357684368,156.59335304519038 826.7635175611622,162.97311126454122 824.7675946075094,169.33511567930998 C 822.654527720433,176.0705163818668 824.278825816494,183.4214058532266 829.0331755693167,188.63933961297244 C 831.1537786713809,190.96671708677172 833.7546675447909,192.71343517469825 836.5980049868288,193.80320859429764 L 831.4812110144205,207.00305391442362 C 831.1053210145931,207.25555839851802 830.7118036644274,207.51751603998048 830.3040110231996,207.78759452729457 C 827.1969475112273,209.845383041515 823.396935114494,212.2473041575123 819.794969810961,214.50608161142293 Z M 797.796465612683,205.69340482825305 L 803.8801624226626,236.11188887815229 L 800.561782344492,244.6843707467599 C 795.307680554055,242.74864903449395 789.500515417256,241.0894589954081 784.5229452999995,238.87720560996092 C 788.947452070894,227.81593868272478 793.3719588417885,216.7546717554892 797.796465612683,205.69340482825305 Z" cricut:graphicId="'1CFC1588-8DE2-4A4E-ABE7-DEB73BFD157B'" cricut:layerFillColorOriginal="'#000000'" cricut:layerGraphicId="'1CFC1588-8DE2-4A4E-ABE7-DEB73BFD157B'" cricut:layerImageDetails="[{'ImageSourceId':692221880,'ImageSourceLayerPathIndex':[3],'ImageSourceGlyphPathId':3,'ImageSourceName':'Archer with Bow','ImageSourceHeightDefault':6.0,'ImageSourceSingleSetGroupId':6086841,'ImageSourceUuid':'2959f0a6-dc0b-43bf-897f-4574647bbb58'},{'ImageSourceId':692221880,'ImageSourceLayerPathIndex':[1],'ImageSourceGlyphPathId':1,'ImageSourceName':'Archer with Bow','ImageSourceHeightDefault':6.0,'ImageSourceSingleSetGroupId':6086841,'ImageSourceUuid':'2959f0a6-dc0b-43bf-897f-4574647bbb58'},{'ImageSourceId':692221880,'ImageSourceLayerPathIndex':[4],'ImageSourceGlyphPathId':4,'ImageSourceName':'Archer with Bow','ImageSourceHeightDefault':6.0,'ImageSourceSingleSetGroupId':6086841,'ImageSourceUuid':'2959f0a6-dc0b-43bf-897f-4574647bbb58'},{'ImageSourceId':692221880,'ImageSourceLayerPathIndex':[2],'ImageSourceGlyphPathId':2,'ImageSourceName':'Archer with Bow','ImageSourceHeightDefault':6.0,'ImageSourceSingleSetGroupId':6086841,'ImageSourceUuid':'2959f0a6-dc0b-43bf-897f-4574647bbb58'},{'ImageSourceName':'Offset','LayerOperationsUsedSet':['Offset']},{'ImageSourceId':692221880,'ImageSourceLayerPathIndex':[0],'ImageSourceName':'Archer with Bow','ImageSourceHeightDefault':6.0,'ImageSourceSingleSetGroupId':6086841,'ImageSourceUuid':'2959f0a6-dc0b-43bf-897f-4574647bbb58'},{'ImageSourceId':692221880,'ImageSourceLayerPathIndex':[5],'ImageSourceGlyphPathId':5,'ImageSourceName':'Archer with Bow','ImageSourceHeightDefault':6.0,'ImageSourceSingleSetGroupId':6086841,'ImageSourceUuid':'2959f0a6-dc0b-43bf-897f-4574647bbb58'}]" cricut:layerName="'Path0'" cricut:layerNativeSize="{'Width':1055.7444337037862,'Height':1195.5651337982833}" cricut:nativeSize="{'Width':1055.7444337037862,'Height':1195.5651337982833}" />
            <defs>
                <g id="components-3">
                    <g transform="matrix(2.767511883792323,0.0,0.0,2.767511883792323,2.842170943040401e-14,1.7053025658242404e-13)" cricut:cacheComponentsId="'components-1'" cricut:graphicContainerSubtypeName="'UnionGraphic'" cricut:graphicId="'CD1CB7AA-EA0E-4ECF-8210-49ADAEFB52DA'" cricut:nativeSize="{'Width':381.4778320868849,'Height':431.9999999999999}">
                        <path stroke="rgb(0,0,0)" stroke-width="1.0pt" fill="rgb(0,0,0)" fill-rule="evenodd" d="M 380.199127996977,360.29729784055303 C 368.8081703186221,359.0982496638842 360.91443648888475,348.60657811803117 357.6170540030452,340.0133995185704 C 350.4227649430315,313.0348155435188 351.52189243831145,278.5621804642867 339.0318072646766,254.9808996564641 C 334.535376602168,244.8889108361675 326.44180140965267,235.7961288297613 318.54806757991554,227.0031088675221 C 299.4632174346015,205.62008305025938 281.97709819151265,180.93967474715691 275.4822539012226,156.15934576266545 C 277.38074684761517,143.06973650069608 305.45845831794617,97.50590578727633 293.76773859542396,90.81122013420804 C 294.3672626837585,89.41233059476099 294.8668660907039,88.01344105531393 295.46639017903834,86.51463083447766 C 295.76615222320555,86.11494810892145 306.7574271760042,79.62010381863115 306.457665131837,79.12050041168595 L 313.3521921476834,61.334619124429764 C 313.95171623601783,56.038823010808755 306.2578237690588,63.033270708044256 304.85893422961175,63.333032752211466 C 306.457665131837,58.237078001368445 309.75504761767655,53.141123250525425 310.5544130687892,47.94524781829341 C 310.15473034323287,47.04596168579155 308.2562373968404,46.746199641624344 307.45687194572776,46.446437597457134 C 311.2538578385127,37.15381422827272 313.4521128290725,32.85722492854234 302.0611551507175,40.451196714112484 C 302.66067923905194,36.5542901399383 309.65512693628745,26.762063363808693 306.8573478573932,24.264046329081566 C 305.7582203621134,23.964284284914356 303.5599653715537,22.765236108245517 302.96044128321927,24.46388769185978 L 296.9652003998744,39.0523071746652 C 296.16583494876176,37.75333831660737 295.56631086042734,27.161746089364897 292.2689283745878,31.358414707706288 C 292.0690870118096,32.35762152159714 284.874797951796,47.84532713690419 284.874797951796,49.14429599496225 C 284.57503590762866,49.14429599496225 284.27527386346145,49.14429599496225 283.97551181929424,49.14429599496225 C 283.775670456516,47.34572372995876 282.5766222798472,43.648658518563025 280.4782879706765,46.34651691606814 L 273.1840782292738,63.53287411498968 C 272.58455414093936,63.233112070822244 275.9818573081679,77.22200746529347 275.8819366267789,77.42184882807146 C 275.7820159453898,77.62169019084968 275.6820952640007,77.92145223501689 275.5821745826117,78.1212935977951 C 273.7836023176082,75.82311792584619 271.7851886898267,73.42502157250829 268.5877268853762,72.92541816556309 C 267.78836143426355,71.42660794472681 266.8890753017618,70.02771840527976 265.78994780648196,68.6288288658327 C 275.9818573081679,51.14270962274372 254.69875217229418,35.45516264465846 244.00723926366283,22.86515678963451 C 238.7114431500417,15.87070909239901 235.01437793864574,6.97776844877103 226.9208027461304,2.581258467651651 C 200.54174285941355,-10.10866806876129 180.8573686257651,26.96190472658668 192.5480883482873,49.14429599496225 C 197.34428105496306,60.435332991928135 207.03658714970373,68.32906682166526 210.13412827276517,80.2196279069658 C 207.63611123803815,85.71526538336502 206.137301017202,91.61058558532068 204.4386494335876,97.30606442449812 C 200.04213945246818,104.10067075895563 188.55126109272413,112.19424595147098 188.65118177411324,120.48766250676431 C 183.0556236163248,124.5844104437167 178.95887567937262,132.07846154789763 177.1603034143692,138.17362311263128 L 47.06357624578874,97.20614374310912 C 31.675791311870626,82.41788289752549 -0.19890605124544436,78.2212142791841 0.0009353115327144224,100.80328827311587 C 2.39903166487062,106.89844983784974 6.395858920433739,88.01344105531393 23.38237475657712,93.20931648754595 C 57.15556506608573,112.09432527008175 83.43470427141341,141.67084696124903 109.71384347674109,174.04514773131064 C 118.70670480175818,185.63594677244373 127.69956612677521,198.42579399024567 139.3902858492974,206.81913122692845 L 80.83676655529734,294.049886079594 C 80.03740110418471,293.75012403542655 79.23803565307207,294.3496481237614 78.93827360890486,295.04909289348484 L 78.53859088334855,292.15139313320174 C 78.33874952057039,290.55266223097647 75.94065316723248,290.4527415495875 75.64089112306527,292.0514724518123 L 70.74477773500041,311.53600532268297 C 70.54493637222225,312.43529145518437 71.24438114194578,313.4344982690752 72.14366727444752,313.4344982690752 C 72.44342931861473,313.4344982690752 72.74319136278194,313.3345775876862 73.04295340694921,313.13473622490824 L 89.62978651753627,300.9444130954405 C 90.92875537559428,300.04512696293864 89.92954856170348,297.84687197237895 88.33081765947827,298.2465546979354 L 85.23327653641678,299.0459201490478 C 85.6329592619731,298.5463167421028 85.93272130614037,297.84687197237895 85.53303858058405,297.24734788404453 C 104.1182853189527,269.56931913926996 122.90337342009946,241.89129039449494 141.28877879568995,214.61294437527636 C 141.88830288402443,216.9111200472255 144.68608196291865,217.7104854983379 146.58457490931113,216.41151664028007 C 147.18409899764555,218.70969231222875 149.88195739515066,220.20850253306503 152.18013306709952,219.30921640056317 C 152.8795778368231,221.30763002834487 155.27767419016095,222.5066782050137 157.1761671365535,221.7073127539013 C 159.37442212711318,224.50509183279542 163.4711700640654,223.80564706307155 166.26894914295957,222.30683684223573 C 171.86450730074802,224.8048538769624 177.26022409575825,226.8032675047441 182.95570293493574,228.30207772558038 C 175.1618897865876,263.3742368931469 172.36411070769344,295.14901357487383 174.96204842380945,323.02688368242684 C 166.56871118712684,327.4233936635462 173.7630002471405,339.71363747440296 172.06434866352612,347.0078472158059 C 169.1666489032429,354.9015810455428 169.0667282218538,362.99515623805814 169.96601435435554,371.18865211196294 C 169.0667282218538,378.78262389753286 162.3720425687855,384.47810273671007 164.07069415239988,393.07128133617084 C 159.27450144572407,397.76755336145766 157.97553258766607,405.661287191195 151.68052966015415,409.15851103981254 C 139.78996857485373,404.3623183331367 128.09924885233153,417.35200691371733 141.388699477079,424.7461373365088 C 145.7852094581985,426.8444716456795 167.26815595685042,429.5423300431846 172.26419002630433,430.8412989012429 C 178.25943090964904,431.94042639652275 187.95173700438966,433.639077980137 192.04848494134188,428.3432818665158 C 196.54491560385043,423.54708915983997 191.34904017161836,414.7540691976012 190.94935744606204,408.85874899564556 C 191.54888153439646,401.6644599356316 198.1436465060757,396.2687431406214 196.7447569666286,388.4749299922735 C 196.54491560385043,377.1838929953076 203.53936330108593,366.99198349362155 204.4386494335876,355.70094649665566 C 218.82722755361505,349.905546976089 237.41247429198364,356.4003912663791 244.50684267060814,369.98960393529364 C 242.90811176838287,383.57881660420867 235.11429862003484,399.4662049450719 245.506049484499,411.25684534898323 C 252.8002592259017,393.9705674686727 270.885902557325,397.16802927312324 286.57344953541036,393.07128133617084 C 296.6654383557072,393.07128133617084 311.75346124545814,393.2711226989493 322.3450534727005,393.3710433803383 C 332.63688365577553,394.5700915570071 335.33474205328065,386.8761990900482 331.6376768418847,378.4828618533654 C 349.22371676636266,380.0815927555907 372.50523553001796,382.3797684275394 381.2982554922568,362.3956321497237 C 381.79785889920225,361.3964253358333 381.19833481086783,360.29729784055303 380.199127996977,360.29729784055303 Z M 145.9850508209766,197.0269044507986 C 115.40932231591859,167.75014480379855 86.732086757253,126.98250679705461 53.85818258024614,102.40201917534114 L 172.96363479602786,139.97219537763476 C 172.86371411463875,140.07211605902376 161.0730737107275,158.55744211600336 160.97315302933845,158.55744211600336 C 160.7733116665603,158.85720416017057 160.7733116665603,159.15696620433778 160.7733116665603,159.45672824850521 C 160.7733116665603,159.5566489298942 161.47275643628382,173.74538568714343 161.57267711767287,173.84530636853242 L 145.9850508209766,197.0269044507986 Z M 166.26894914295957,177.44245089853916 C 166.36886982434868,177.44245089853916 174.0627622913077,174.04514773131064 174.0627622913077,174.04514773131064 C 169.86609367296643,181.93888156104776 163.4711700640654,188.73348789550505 159.6741841712804,196.7271424066314 C 157.67577054349886,196.4273803624642 155.4775155529391,196.3274596810752 153.47910192515752,196.52730104385319 C 157.7756912248879,190.23229811634133 162.0722805246183,183.83737450744024 166.26894914295957,177.44245089853916 Z M 185.85340269521902,216.71127868444705 C 181.35697203271047,215.31238914500022 176.96046205159104,213.81357892416395 172.86371411463875,212.11492734054968 C 173.4632382029733,211.31556188943682 174.0627622913077,210.41627575693542 174.66228637964224,209.51698962443356 C 175.26181046797666,210.31635507554597 176.4608586446456,210.21643439415698 177.0603827329801,209.41706894304457 L 184.65435451855006,199.0253180785803 C 187.8518163230006,195.12841150440613 190.74951608328388,191.13158424884296 193.64721584356715,186.33539154216737 C 194.04689856912347,186.9349156305018 194.54650197606884,187.43451903744722 195.0461053830142,187.83420176300342 L 192.148405622731,196.92698376940962 C 190.0500713135603,203.5217487410887 187.95173700438966,210.016593031379 185.85340269521902,216.71127868444705 Z M 288.2721011190246,74.32430770501014 L 290.4703561095843,85.31558265780882 L 289.2713079329155,88.41312378087014 C 287.372814986523,87.71367901114672 285.2744806773523,87.11415492281208 283.4759084123488,86.31478947169944 C 285.0746393145741,82.31796221613627 286.67337021679936,78.32113496057332 288.2721011190246,74.32430770501014 Z" cricut:graphicId="'C1E95F29-84DF-4805-AEEF-BEF7541378BB'" cricut:layerFillColorOriginal="'#000000'" cricut:layerGraphicId="'C1E95F29-84DF-4805-AEEF-BEF7541378BB'" cricut:layerImageDetails="[{'ImageSourceId':692221880,'ImageSourceLayerPathIndex':[2],'ImageSourceGlyphPathId':2,'ImageSourceName':'Archer with Bow','ImageSourceHeightDefault':6.0,'ImageSourceSingleSetGroupId':6086841,'ImageSourceUuid':'2959f0a6-dc0b-43bf-897f-4574647bbb58'},{'ImageSourceId':692221880,'ImageSourceLayerPathIndex':[4],'ImageSourceGlyphPathId':4,'ImageSourceName':'Archer with Bow','ImageSourceHeightDefault':6.0,'ImageSourceSingleSetGroupId':6086841,'ImageSourceUuid':'2959f0a6-dc0b-43bf-897f-4574647bbb58'},{'ImageSourceId':692221880,'ImageSourceLayerPathIndex':[3],'ImageSourceGlyphPathId':3,'ImageSourceName':'Archer with Bow','ImageSourceHeightDefault':6.0,'ImageSourceSingleSetGroupId':6086841,'ImageSourceUuid':'2959f0a6-dc0b-43bf-897f-4574647bbb58'},{'ImageSourceId':692221880,'ImageSourceLayerPathIndex':[1],'ImageSourceGlyphPathId':1,'ImageSourceName':'Archer with Bow','ImageSourceHeightDefault':6.0,'ImageSourceSingleSetGroupId':6086841,'ImageSourceUuid':'2959f0a6-dc0b-43bf-897f-4574647bbb58'},{'ImageSourceId':692221880,'ImageSourceLayerPathIndex':[5],'ImageSourceGlyphPathId':5,'ImageSourceName':'Archer with Bow','ImageSourceHeightDefault':6.0,'ImageSourceSingleSetGroupId':6086841,'ImageSourceUuid':'2959f0a6-dc0b-43bf-897f-4574647bbb58'},{'ImageSourceId':692221880,'ImageSourceLayerPathIndex':[0],'ImageSourceName':'Archer with Bow','ImageSourceHeightDefault':6.0,'ImageSourceSingleSetGroupId':6086841,'ImageSourceUuid':'2959f0a6-dc0b-43bf-897f-4574647bbb58'}]" cricut:layerName="'Path0'" cricut:layerNativeSize="{'Width':381.4778320868849,'Height':431.9999999999999}" cricut:nativeSize="{'Width':381.4778320868849,'Height':431.9999999999999}" />
                        <defs>
                            <g id="components-1">
                                <g transform="matrix(0.9992068138907866,0.0,0.0,0.9992068138907866,0.0009353115327144224,0.02079100705645942)" cricut:graphicContainerSubtypeName="'GraphicGroup'" cricut:graphicId="'2F12DB3C-C69F-44F3-9754-05521849A357'" cricut:nativeSize="{'Width':381.7806551993554,'Height':432.34292840522767}">
                                    <path stroke="rgb(0,0,0)" stroke-width="1.0pt" fill="rgb(0,0,0)" fill-rule="evenodd" transform="matrix(1.0,0.0,0.0,1.0,0.0,0.0625)" d="M 380.5,360.5 C 369.1,359.3 361.2,348.8 357.9,340.2 C 350.7,313.2 351.8,278.7 339.3,255.1 C 334.8,245.0 326.7,235.9 318.8,227.1 C 299.7,205.7 282.2,181.0 275.7,156.2 C 277.6,143.1 305.7,97.5 294.0,90.8 C 294.6,89.4 295.1,88.0 295.7,86.5 C 296.0,86.1 307.0,79.6 306.7,79.1 L 313.6,61.3 C 314.2,56.0 306.5,63.0 305.1,63.3 C 306.7,58.2 310.0,53.1 310.8,47.9 C 310.4,47.0 308.5,46.7 307.7,46.4 C 311.5,37.1 313.7,32.8 302.3,40.4 C 302.9,36.5 309.9,26.7 307.1,24.2 C 306.0,23.9 303.8,22.7 303.2,24.4 L 297.2,39.0 C 296.4,37.7 295.8,27.1 292.5,31.3 C 292.3,32.3 285.1,47.8 285.1,49.1 C 284.8,49.1 284.5,49.1 284.2,49.1 C 284.0,47.3 282.8,43.6 280.7,46.3 L 273.4,63.5 C 272.8,63.2 276.2,77.2 276.1,77.4 C 276.0,77.6 275.9,77.9 275.8,78.1 C 274.0,75.8 272.0,73.4 268.8,72.9 C 268.0,71.4 267.1,70.0 266.0,68.6 C 276.2,51.1 254.9,35.4 244.2,22.8 C 238.9,15.8 235.2,6.9 227.1,2.5 C 200.7,-10.2 181.0,26.9 192.7,49.1 C 197.5,60.4 207.2,68.3 210.3,80.2 C 207.8,85.7 206.3,91.6 204.6,97.3 C 200.2,104.1 188.7,112.2 188.8,120.5 C 183.2,124.6 179.1,132.1 177.3,138.2 L 47.1,97.2 C 31.7,82.4 -0.2,78.2 0.0,100.8 C 2.4,106.9 6.4,88.0 23.4,93.2 C 57.2,112.1 83.5,141.7 109.8,174.1 C 118.8,185.7 127.8,198.5 139.5,206.9 L 80.9,294.2 C 80.1,293.9 79.3,294.5 79.0,295.2 L 78.6,292.3 C 78.4,290.7 76.0,290.6 75.7,292.2 L 70.8,311.7 C 70.6,312.6 71.3,313.6 72.2,313.6 C 72.5,313.6 72.8,313.5 73.1,313.3 L 89.7,301.1 C 91.0,300.2 90.0,298.0 88.4,298.4 L 85.3,299.2 C 85.7,298.7 86.0,298.0 85.6,297.4 C 104.2,269.7 123.0,242.0 141.4,214.7 C 142.0,217.0 144.8,217.8 146.7,216.5 C 147.3,218.8 150.0,220.3 152.3,219.4 C 153.0,221.4 155.4,222.6 157.3,221.8 C 159.5,224.6 163.6,223.9 166.4,222.4 C 172.0,224.9 177.4,226.9 183.1,228.4 C 175.3,263.5 172.5,295.3 175.1,323.2 C 166.7,327.6 173.9,339.9 172.2,347.2 C 169.3,355.1 169.2,363.2 170.1,371.4 C 169.2,379.0 162.5,384.7 164.2,393.3 C 159.4,398.0 158.1,405.9 151.8,409.4 C 139.9,404.6 128.2,417.6 141.5,425.0 C 145.9,427.1 167.4,429.8 172.4,431.1 C 178.4,432.2 188.1,433.9 192.2,428.6 C 196.7,423.8 191.5,415.0 191.1,409.1 C 191.7,401.9 198.3,396.5 196.9,388.7 C 196.7,377.4 203.7,367.2 204.6,355.9 C 219.0,350.1 237.6,356.6 244.7,370.2 C 243.1,383.8 235.3,399.7 245.7,411.5 C 253.0,394.2 271.1,397.4 286.8,393.3 C 296.9,393.3 312.0,393.5 322.6,393.6 C 332.9,394.8 335.6,387.1 331.9,378.7 C 349.5,380.3 372.8,382.6 381.6,362.6 C 382.1,361.6 381.5,360.5 380.5,360.5 Z M 288.5,74.3 L 290.7,85.3 L 289.5,88.4 C 287.6,87.7 285.5,87.1 283.7,86.3 C 285.3,82.3 286.9,78.3 288.5,74.3 Z M 186.0,216.8 C 181.5,215.4 177.1,213.9 173.0,212.2 C 173.6,211.4 174.2,210.5 174.8,209.6 C 175.4,210.4 176.6,210.3 177.2,209.5 L 184.8,199.1 C 188.0,195.2 190.9,191.2 193.8,186.4 C 194.2,187.0 194.7,187.5 195.2,187.9 L 192.3,197.0 C 190.2,203.6 188.1,210.1 186.0,216.8 Z M 166.4,177.5 C 166.5,177.5 174.2,174.1 174.2,174.1 C 170.0,182.0 163.6,188.8 159.8,196.8 C 157.8,196.5 155.6,196.4 153.6,196.6 C 157.9,190.3 162.2,183.9 166.4,177.5 Z M 146.1,197.1 C 115.5,167.8 86.8,127.0 53.9,102.4 L 173.1,140.0 C 173.0,140.1 161.2,158.6 161.1,158.6 C 160.9,158.9 160.9,159.2 160.9,159.5 C 160.9,159.6 161.6,173.8 161.7,173.9 L 146.1,197.1 Z" cricut:graphicId="'85B6B4D4-D439-4DFD-A476-2DAB6B73C20A'" cricut:layerFillColorOriginal="'#000000'" cricut:layerGraphicId="'85B6B4D4-D439-4DFD-A476-2DAB6B73C20A'" cricut:layerImageDetails="[{'ImageSourceId':692221880,'ImageSourceLayerPathIndex':[0],'ImageSourceName':'Archer with Bow','ImageSourceHeightDefault':6.0,'ImageSourceSingleSetGroupId':6086841,'ImageSourceUuid':'2959f0a6-dc0b-43bf-897f-4574647bbb58'}]" cricut:layerName="'Path0'" cricut:layerNativeSize="{'Width':381.7806551993554,'Height':432.34292840522767}" cricut:nativeSize="{'Width':381.7806551993554,'Height':432.34292840522767}" />
                                    <path stroke="rgb(0,0,0)" stroke-width="1.0pt" fill="rgb(255,219,218)" fill-rule="evenodd" transform="matrix(1.0,0.0,0.0,1.0,0.0,0.0625)" d="M 231.3,61.4 C 227.6,64.4 222.9,64.5 219.1,68.2 C 217.5,67.3 216.2,65.2 214.5,64.1 C 215.9,63.5 217.5,61.7 216.9,60.0 C 218.0,59.9 220.6,57.3 218.3,57.5 C 216.4,58.0 213.3,56.0 212.2,58.6 C 211.8,58.7 211.5,58.9 211.1,59.2 C 210.7,59.5 210.4,60.1 210.3,60.7 C 207.0,57.8 204.9,53.6 203.6,49.4 C 204.1,49.2 204.7,48.9 205.0,48.5 C 206.1,51.5 206.0,61.0 211.4,56.8 C 212.3,55.3 210.3,54.2 209.3,55.5 C 207.4,51.5 208.0,41.9 200.8,43.4 C 200.1,42.0 199.5,40.5 199.4,39.5 C 201.5,37.2 205.0,37.9 207.5,39.1 C 206.5,40.4 207.5,42.7 209.3,41.8 C 207.6,44.2 209.6,46.9 211.0,43.3 C 211.7,45.7 215.4,45.7 216.1,43.3 C 218.1,44.1 220.1,44.8 222.1,45.3 C 223.9,51.0 227.2,56.8 231.3,61.4 Z M 186.9,137.8 C 185.4,138.1 181.3,143.2 179.5,142.8 C 179.4,143.9 179.6,144.6 179.8,144.7 C 180.6,145.3 187.4,138.6 186.9,137.8 Z M 187.1,142.6 C 186.7,143.8 186.5,146.0 186.7,147.3 C 187.9,144.6 189.0,141.9 190.1,139.2 C 189.1,140.3 188.2,141.6 187.1,142.6 Z M 194.4,119.2 C 192.6,121.6 190.8,122.6 188.6,124.5 C 184.7,128.5 181.4,134.3 180.2,139.2 C 180.8,138.8 184.1,136.0 184.6,135.7 C 185.1,132.3 188.5,131.3 189.9,128.8 C 190.7,127.0 193.5,128.2 192.7,130.0 C 191.7,132.3 189.4,133.3 188.1,135.0 C 188.6,135.2 189.1,135.6 189.4,136.0 C 190.2,135.6 191.0,135.5 191.6,135.5 C 193.9,129.8 196.0,124.0 198.0,118.2 C 196.7,118.4 195.5,118.7 194.4,119.2 Z M 163.3,197.8 C 166.2,203.4 151.5,195.7 147.6,203.0 C 148.1,203.3 148.5,203.6 148.7,204.1 C 151.2,204.1 149.6,208.7 149.7,210.0 C 150.8,210.1 152.0,210.1 152.8,210.6 C 152.5,208.5 155.1,206.8 155.9,209.3 C 156.0,209.4 155.3,214.2 155.2,214.5 C 155.7,214.6 156.2,214.9 156.5,215.3 C 156.8,214.1 156.5,211.0 158.6,211.3 C 160.7,211.6 159.5,214.4 159.5,215.7 C 160.3,215.6 161.0,215.9 161.6,216.2 C 161.8,214.2 164.8,212.3 165.3,215.2 C 168.7,213.1 171.1,209.9 173.1,206.6 C 171.0,202.6 167.0,198.0 163.3,197.8 Z" cricut:graphicId="'FA78D7AA-2E34-43AC-887E-C32CEBDEE713'" cricut:layerFillColorOriginal="'#FFDBDA'" cricut:layerGraphicId="'FA78D7AA-2E34-43AC-887E-C32CEBDEE713'" cricut:layerImageDetails="[{'ImageSourceId':692221880,'ImageSourceLayerPathIndex':[1],'ImageSourceGlyphPathId':1,'ImageSourceName':'Archer with Bow','ImageSourceHeightDefault':6.0,'ImageSourceSingleSetGroupId':6086841,'ImageSourceUuid':'2959f0a6-dc0b-43bf-897f-4574647bbb58'}]" cricut:layerName="'Path1'" cricut:layerNativeSize="{'Width':83.70000000000002,'Height':178.21488666324126}" cricut:nativeSize="{'Width':83.70000000000002,'Height':178.21488666324126}" />
                                    <path stroke="rgb(0,0,0)" stroke-width="1.0pt" fill="rgb(128,35,64)" fill-rule="evenodd" transform="matrix(1.0,0.0,0.0,1.0,0.0,0.0625)" d="M 227.0,252.0 C 225.8,250.4 223.8,252.1 222.2,252.3 C 219.6,251.9 215.1,252.5 217.9,256.0 C 218.5,256.7 219.2,257.5 219.2,258.4 C 218.6,259.7 218.7,260.9 218.4,262.2 C 217.3,263.7 214.4,263.9 214.2,266.0 C 214.1,267.5 215.9,268.7 215.6,270.2 C 215.2,271.8 212.9,271.8 211.6,272.8 C 207.9,277.4 210.6,284.4 209.8,289.9 C 208.4,296.4 205.4,305.2 204.7,312.3 C 201.9,317.5 200.5,325.2 195.0,328.0 C 193.7,328.3 191.3,328.2 191.3,330.1 C 189.1,329.7 183.3,328.0 178.2,326.3 C 177.2,316.8 176.8,307.2 177.0,297.1 C 181.6,299.5 189.3,295.0 184.9,290.3 C 182.7,288.8 179.5,290.6 177.2,288.9 C 178.1,270.8 181.1,250.1 185.8,229.0 C 199.8,232.6 213.8,234.4 227.8,236.2 C 228.2,241.9 230.1,247.0 227.0,252.0 Z M 227.6,186.0 C 217.9,180.7 214.7,197.9 206.3,191.0 C 203.9,188.9 200.9,189.8 198.1,189.2 C 195.1,198.5 192.0,208.3 189.0,217.7 C 202.4,221.6 215.8,223.8 227.3,225.5 C 226.7,211.8 227.1,198.1 227.5,187.7 C 227.5,187.1 227.5,186.6 227.6,186.0 Z" cricut:graphicId="'EB91583E-DD36-4665-8AD1-832CFACC202F'" cricut:layerFillColorOriginal="'#802340'" cricut:layerGraphicId="'EB91583E-DD36-4665-8AD1-832CFACC202F'" cricut:layerImageDetails="[{'ImageSourceId':692221880,'ImageSourceLayerPathIndex':[2],'ImageSourceGlyphPathId':2,'ImageSourceName':'Archer with Bow','ImageSourceHeightDefault':6.0,'ImageSourceSingleSetGroupId':6086841,'ImageSourceUuid':'2959f0a6-dc0b-43bf-897f-4574647bbb58'}]" cricut:layerName="'Path2'" cricut:layerNativeSize="{'Width':51.79229666459594,'Height':145.13122187169384}" cricut:nativeSize="{'Width':51.79229666459594,'Height':145.13122187169384}" />
                                    <path stroke="rgb(0,0,0)" stroke-width="1.0pt" fill="rgb(111,114,119)" fill-rule="evenodd" transform="matrix(1.0,0.0,0.0,1.0,0.0,0.0625)" d="M 234.1,24.0 C 231.8,22.9 226.8,21.3 229.0,18.2 C 230.5,17.0 232.8,19.3 234.4,18.4 C 238.3,16.0 228.2,6.3 225.6,5.2 C 204.1,-5.2 186.8,23.5 193.6,42.9 C 194.1,42.4 194.7,42.2 195.4,42.1 C 195.5,32.5 207.0,34.1 212.4,38.2 C 218.2,41.2 224.8,43.2 231.4,43.8 C 238.0,43.9 245.8,43.2 250.5,48.6 C 255.8,54.1 266.4,64.5 258.0,71.1 C 262.9,70.1 265.2,64.9 265.5,60.1 C 265.2,44.3 245.2,33.3 234.1,24.0 Z M 243.3,39.7 C 236.8,38.0 230.4,41.3 224.2,38.0 C 221.0,36.7 222.4,33.5 225.2,32.5 C 223.8,32.1 222.3,31.6 221.1,30.7 C 217.5,29.1 217.6,21.9 222.3,23.0 C 226.9,29.0 233.9,31.1 240.6,34.1 C 243.0,35.2 251.4,40.5 243.3,39.7 Z M 232.4,138.4 C 230.7,137.0 229.0,135.5 227.4,133.9 C 228.7,131.7 225.9,129.8 225.5,127.7 C 226.1,118.9 233.6,111.0 230.1,101.8 C 232.0,97.7 227.4,96.7 227.2,101.1 C 222.1,120.4 214.4,138.7 204.8,156.3 C 203.3,155.6 198.9,159.3 197.3,160.0 C 193.5,161.5 194.7,162.9 197.3,164.8 C 198.3,167.5 193.1,167.9 194.1,170.6 C 196.5,170.2 198.8,169.1 200.7,167.5 C 195.3,180.4 185.1,194.6 176.3,205.9 C 173.9,201.5 169.3,195.8 164.3,195.0 C 181.0,171.5 192.1,144.4 201.5,117.2 C 209.6,99.2 208.7,66.4 234.8,66.0 C 234.8,66.0 234.9,66.1 234.9,66.1 C 234.7,70.6 235.6,75.3 235.7,79.8 C 235.7,83.9 235.3,89.2 238.5,92.1 C 238.9,107.4 234.9,123.1 232.4,138.4 Z M 230.6,150.8 C 230.4,152.7 230.1,154.7 229.9,156.6 C 229.8,156.6 229.6,156.6 229.5,156.6 C 225.5,158.5 225.8,166.8 222.9,170.5 L 212.4,162.1 C 211.1,157.0 214.1,158.5 216.0,155.1 C 216.4,153.7 215.0,152.3 215.3,150.9 C 216.9,147.9 221.9,147.2 220.2,142.5 C 223.2,145.7 226.8,148.5 230.6,150.8 Z M 221.4,173.3 C 218.0,178.7 216.8,187.5 210.1,189.7 C 204.4,185.8 202.8,187.3 197.1,185.6 C 193.1,183.5 203.6,170.8 203.9,167.3 C 205.9,166.2 208.0,165.1 210.0,164.0 L 221.4,173.3 Z" cricut:graphicId="'87EAC1F0-848D-4CB9-9AF1-B7185C99CA65'" cricut:layerFillColorOriginal="'#6F7277'" cricut:layerGraphicId="'87EAC1F0-848D-4CB9-9AF1-B7185C99CA65'" cricut:layerImageDetails="[{'ImageSourceId':692221880,'ImageSourceLayerPathIndex':[3],'ImageSourceGlyphPathId':3,'ImageSourceName':'Archer with Bow','ImageSourceHeightDefault':6.0,'ImageSourceSingleSetGroupId':6086841,'ImageSourceUuid':'2959f0a6-dc0b-43bf-897f-4574647bbb58'}]" cricut:layerName="'Path3'" cricut:layerNativeSize="{'Width':101.19999999999999,'Height':202.90546550172476}" cricut:nativeSize="{'Width':101.19999999999999,'Height':202.90546550172476}" />
                                    <path stroke="rgb(0,0,0)" stroke-width="1.0pt" fill="rgb(67,124,49)" fill-rule="evenodd" transform="matrix(1.0,0.0,0.0,1.0,0.0,0.0625)" d="M 283.5,58.8 C 281.6,63.4 279.9,67.8 278.0,72.4 L 276.3,64.2 L 281.7,51.6 C 281.8,53.2 283.3,57.2 283.5,58.8 Z M 303.2,68.0 C 301.4,72.6 299.5,77.2 297.7,81.7 L 304.1,77.5 L 309.2,64.3 L 303.2,68.0 Z M 296.5,61.0 L 291.4,73.2 L 292.8,80.2 L 298.2,66.7 L 296.5,61.0 Z M 300.3,45.1 C 299.0,48.4 297.6,51.8 296.3,55.1 C 297.3,54.8 298.2,55.6 298.3,56.5 L 301.2,54.6 L 306.3,41.4 L 300.3,45.1 Z M 293.5,36.6 L 288.1,49.2 L 289.9,57.4 L 295.3,43.7 L 293.5,36.6 Z M 165.5,157.3 L 163.9,159.9 L 164.4,169.8 L 166.7,166.3 L 165.5,157.3 Z M 169.4,151.3 L 168.0,153.4 L 169.2,162.5 L 170.7,160.2 L 169.4,151.3 Z M 173.3,145.2 L 171.8,147.5 L 173.3,156.6 L 174.5,154.8 L 173.3,145.2 Z M 180.3,156.6 C 179.7,157.5 179.2,158.3 178.6,159.2 L 181.5,158.7 C 182.0,157.7 182.5,156.6 182.9,155.6 C 182.8,155.6 180.5,156.7 180.3,156.6 Z M 176.3,162.7 C 174.0,166.1 171.8,169.5 169.5,172.9 L 176.3,169.9 C 177.5,167.3 178.7,164.6 180.0,162.0 L 176.3,162.7 Z M 264.1,71.0 C 261.6,73.7 258.2,74.6 254.4,73.8 C 254.9,74.9 255.3,76.0 255.7,77.2 C 260.5,78.5 265.2,76.3 263.6,84.0 C 261.2,105.7 248.8,125.0 244.1,146.1 C 246.2,147.2 248.4,148.1 250.6,149.0 C 255.0,132.1 274.1,84.9 264.1,71.0 Z M 250.7,72.5 C 249.1,71.7 247.8,70.6 246.8,69.2 C 244.2,69.3 241.7,68.8 239.4,67.7 C 247.6,81.8 243.0,101.3 239.4,116.6 C 240.6,114.8 249.5,86.6 249.8,98.9 C 247.2,109.2 243.5,121.1 236.9,129.1 C 236.2,132.9 235.5,136.7 235.0,140.4 C 237.0,141.9 239.2,143.3 241.4,144.6 C 247.7,122.9 261.7,91.0 250.7,72.5 Z M 192.5,116.7 C 194.5,115.8 196.9,115.3 198.9,115.3 C 200.1,111.7 201.3,108.1 202.4,104.5 C 199.1,108.9 195.4,112.6 192.5,116.7 Z M 378.2,363.1 C 361.5,389.2 328.0,367.0 304.7,379.3 C 280.3,400.1 258.9,385.6 245.5,405.8 C 240.7,394.0 246.2,382.4 247.7,370.4 C 250.0,354.8 249.8,338.1 247.3,319.3 C 243.4,290.8 233.0,265.7 230.9,236.7 C 235.0,237.2 239.2,237.6 243.5,238.1 C 245.8,254.4 248.8,270.7 252.8,286.6 C 254.9,293.6 259.8,295.1 257.9,286.0 L 258.5,277.3 C 263.7,279.8 259.2,266.4 259.7,263.8 C 258.8,255.6 257.9,247.8 257.3,239.4 C 278.9,240.6 322.3,242.1 317.9,272.8 C 320.1,280.2 332.0,260.4 320.2,249.1 C 318.6,246.5 235.4,181.1 230.9,177.2 C 231.4,168.9 232.2,160.7 233.3,152.5 C 237.7,154.9 242.5,156.7 247.6,158.0 C 240.6,180.2 230.7,181.9 260.4,189.6 C 262.2,190.2 265.1,189.3 265.5,187.4 C 268.3,178.6 271.0,169.9 273.9,161.3 C 275.9,167.9 278.6,174.2 281.7,180.4 C 280.9,179.7 280.2,179.9 280.5,182.3 C 280.4,187.2 286.2,191.0 285.1,195.8 C 284.1,197.9 281.8,196.7 280.2,196.8 C 275.4,200.5 294.2,215.8 297.5,218.8 C 303.8,223.8 310.8,227.2 317.9,231.0 C 325.1,239.1 332.4,247.5 336.4,256.5 C 342.9,271.2 347.3,288.5 349.4,308.0 C 350.5,328.1 355.2,358.7 378.2,363.1 Z M 307.8,366.8 C 295.6,359.8 289.5,369.9 282.9,378.3 C 276.6,383.5 265.5,381.1 260.2,388.2 C 257.4,393.2 268.5,388.7 271.3,388.7 C 281.8,389.9 289.5,384.7 294.9,376.1 C 299.7,368.1 315.2,371.8 307.8,366.8 Z M 313.2,336.9 C 307.8,329.2 304.0,320.4 302.1,311.1 C 297.4,296.3 315.0,293.5 306.1,278.6 C 302.4,271.0 297.4,265.0 292.2,258.5 C 289.9,255.6 287.2,243.5 282.0,251.2 C 275.8,270.0 294.7,307.7 299.2,328.4 C 303.7,343.0 298.1,340.3 292.6,349.4 C 292.6,360.5 317.1,357.4 317.7,347.6 C 318.2,343.6 315.5,340.1 313.2,336.9 Z M 356.5,356.4 C 342.7,345.1 340.9,325.4 342.5,308.7 C 342.5,289.4 334.6,313.5 334.4,319.3 C 332.9,329.8 334.2,340.7 338.2,350.4 C 339.4,353.2 340.7,356.6 338.7,358.9 C 336.0,362.3 327.5,359.4 326.9,365.0 C 327.8,370.1 337.9,370.1 342.1,370.7 C 343.4,370.6 344.0,371.2 344.9,369.9 C 345.1,369.7 345.7,368.1 345.3,367.8 C 354.8,372.2 368.2,364.9 356.5,356.4 Z M 241.1,325.0 C 241.8,318.8 234.1,297.0 239.5,294.6 C 238.1,288.5 236.5,282.7 235.1,276.6 C 231.1,271.5 228.3,266.5 226.2,261.5 C 215.8,282.7 206.1,304.7 206.7,328.6 C 214.9,333.3 208.1,345.1 205.9,352.1 C 210.0,350.9 214.2,350.3 218.5,350.6 C 213.3,346.7 221.9,343.8 225.3,344.6 C 229.8,346.8 237.4,349.3 238.6,342.1 C 238.7,338.9 235.2,335.8 236.9,333.1 C 239.2,330.8 242.2,329.3 241.1,325.0 Z M 300.1,236.1 L 230.8,180.8 C 230.1,195.0 229.6,208.8 230.2,225.8 C 234.5,226.4 238.9,226.8 243.3,227.2 C 243.4,222.0 239.4,196.4 246.1,197.1 C 251.2,200.9 249.0,210.9 252.6,216.2 C 254.5,210.4 257.4,227.5 256.2,228.4 C 271.0,230.0 286.0,231.4 300.1,236.1 Z" cricut:graphicId="'01FA160C-C806-46B3-AA56-117581E4DB76'" cricut:layerFillColorOriginal="'#437C31'" cricut:layerGraphicId="'01FA160C-C806-46B3-AA56-117581E4DB76'" cricut:layerImageDetails="[{'ImageSourceId':692221880,'ImageSourceLayerPathIndex':[4],'ImageSourceGlyphPathId':4,'ImageSourceName':'Archer with Bow','ImageSourceHeightDefault':6.0,'ImageSourceSingleSetGroupId':6086841,'ImageSourceUuid':'2959f0a6-dc0b-43bf-897f-4574647bbb58'}]" cricut:layerName="'Path4'" cricut:layerNativeSize="{'Width':214.29999999999998,'Height':369.2}" cricut:nativeSize="{'Width':214.29999999999998,'Height':369.2}" />
                                    <path stroke="rgb(0,0,0)" stroke-width="1.0pt" fill="rgb(127,78,45)" fill-rule="evenodd" transform="matrix(1.0,0.0,0.0,1.0,0.0,0.0625)" d="M 216.8,70.3 C 215.8,71.4 214.8,72.5 214.0,73.7 C 213.2,70.7 212.1,67.8 210.8,65.1 C 212.3,66.2 213.8,67.1 215.0,68.6 C 215.5,69.1 216.1,69.8 216.8,70.3 Z M 256.2,60.0 C 250.4,68.1 227.1,51.7 235.6,53.1 C 236.9,53.6 246.6,57.5 242.8,53.5 C 241.7,53.2 239.9,53.9 239.3,52.5 C 238.8,51.2 241.2,50.1 240.5,48.7 C 240.0,48.0 238.4,47.9 238.7,46.8 C 234.3,47.3 229.8,46.7 225.4,45.9 C 229.6,59.2 245.0,73.8 257.3,62.0 C 257.0,61.3 256.6,60.7 256.2,60.0 Z M 254.6,181.3 C 251.6,179.7 246.4,178.9 243.4,179.4 C 246.5,181.8 250.0,183.5 253.8,184.8 C 253.5,184.2 253.5,183.5 253.6,182.8 C 253.7,182.2 254.1,181.7 254.6,181.3 Z M 291.0,92.4 C 292.9,95.3 288.4,95.3 287.6,97.3 C 287.2,100.2 290.0,102.1 286.2,104.0 C 284.2,107.4 284.2,112.1 280.1,114.1 C 278.5,115.1 274.6,116.5 275.1,113.0 C 279.2,104.6 281.3,94.9 278.0,85.8 C 275.4,83.0 273.4,79.3 270.5,76.9 C 269.5,88.5 267.7,100.1 264.9,111.4 C 258.9,133.5 252.5,155.3 243.7,176.4 C 246.9,176.0 251.1,176.8 254.0,177.9 C 250.8,170.1 264.1,176.5 264.8,170.9 C 264.9,169.3 263.4,167.7 264.2,166.3 C 265.0,164.9 267.5,165.4 268.5,164.0 C 269.9,162.1 266.8,159.4 267.7,157.2 C 268.3,155.7 270.5,155.3 270.8,153.7 C 269.3,149.1 269.4,149.1 273.2,145.5 C 277.2,140.5 273.0,132.1 277.7,127.7 C 279.9,126.1 283.5,120.6 286.0,121.7 C 288.1,115.2 299.4,96.1 291.0,92.4 Z M 220.4,130.5 C 219.7,132.3 218.9,134.1 218.1,135.9 C 225.8,145.5 236.3,152.2 248.6,155.1 C 249.0,154.0 249.3,153.0 249.7,151.9 C 238.3,147.6 228.0,140.1 220.4,130.5 Z M 4.1,94.8 C 28.9,69.1 94.3,150.9 112.2,172.2 C 121.4,184.1 130.6,197.3 142.8,205.4 C 143.5,203.7 144.4,202.0 145.7,200.5 C 119.7,181.5 35.1,57.5 4.1,94.8 Z M 248.3,230.6 C 222.9,228.4 196.0,224.7 170.9,214.5 C 169.3,216.1 167.4,217.5 165.4,218.6 C 183.3,227.2 203.1,229.9 222.2,232.5 C 249.0,239.1 317.6,229.1 321.6,267.2 C 327.5,234.7 270.3,233.3 248.3,230.6 Z M 316.8,380.6 C 317.1,379.8 317.6,379.1 318.1,378.6 C 308.5,379.1 301.1,385.1 293.4,390.1 C 299.1,390.1 305.5,390.2 311.5,390.3 C 312.3,389.5 312.7,388.4 312.5,387.3 C 316.5,385.4 327.6,382.2 316.8,380.6 Z M 207.3,334.2 C 194.8,334.7 188.4,333.3 174.4,328.0 C 173.1,334.1 176.1,341.0 175.2,347.4 C 172.9,354.9 171.7,361.7 173.2,369.5 C 175.1,370.6 177.6,375.7 178.9,376.7 C 180.4,377.7 182.6,379.9 180.8,381.5 C 178.8,382.0 177.4,382.9 178.9,385.0 C 179.7,386.2 182.6,389.2 181.2,390.6 C 176.7,393.9 170.4,382.9 170.7,379.0 C 169.0,382.9 166.7,386.5 167.1,391.3 C 169.0,390.2 170.4,393.3 168.3,394.0 C 164.1,395.6 163.2,399.9 161.2,403.3 C 157.9,408.9 152.4,413.4 146.1,414.9 C 142.7,413.8 145.7,411.5 147.8,411.2 C 139.8,409.1 135.2,418.5 143.0,421.8 C 146.9,423.6 165.1,426.0 169.6,427.0 C 167.0,422.2 178.7,424.1 181.2,423.4 C 191.7,422.7 176.4,414.4 184.0,407.9 C 185.5,406.3 188.6,401.3 189.9,402.5 C 196.2,394.2 192.7,384.0 196.6,375.0 C 194.6,377.0 189.7,377.0 189.8,373.5 C 190.7,370.9 193.3,369.0 193.7,366.1 C 195.8,359.6 192.0,358.4 198.6,353.0 C 197.3,348.2 201.8,344.9 206.0,343.6 C 207.0,340.9 207.5,337.3 207.3,334.2 Z" cricut:graphicId="'D7B190B5-BD64-4B9C-933A-57F92A49DE13'" cricut:layerFillColorOriginal="'#7F4E2D'" cricut:layerGraphicId="'D7B190B5-BD64-4B9C-933A-57F92A49DE13'" cricut:layerImageDetails="[{'ImageSourceId':692221880,'ImageSourceLayerPathIndex':[5],'ImageSourceGlyphPathId':5,'ImageSourceName':'Archer with Bow','ImageSourceHeightDefault':6.0,'ImageSourceSingleSetGroupId':6086841,'ImageSourceUuid':'2959f0a6-dc0b-43bf-897f-4574647bbb58'}]" cricut:layerName="'Path5'" cricut:layerNativeSize="{'Width':317.9243849691574,'Height':381.1}" cricut:nativeSize="{'Width':317.9243849691574,'Height':381.1}" />
                                </g>
                            </g>
                        </defs>
                    </g>
                    <g transform="matrix(1.0,0.0,0.0,1.0,-230.78730992582834,-390.1262872431538)" cricut:graphicContainerSubtypeName="'GraphicGroup'" cricut:graphicId="'3CBA5834-445D-497B-BA53-C390E7A4BDCB'" cricut:nativeSize="{'Width':631.803981429902,'Height':1155.8806715082835}">
                        <path stroke="rgb(0,0,0)" stroke-width="1.0pt" fill="rgb(73,73,73)" fill-rule="evenodd" d="M 697.0730738520004,857.9025158504777 C 700.6261711107309,855.8665037055512 704.4167566339947,853.6797433614931 704.4928369465574,853.6461494572445 C 712.2298416252694,850.2298097289807 721.2819296240818,852.0930561803849 727.0407254403382,858.2873187905744 C 732.7995212565945,864.481581400764 733.9991418333103,873.6452539695997 730.0288659668314,881.113153813691 C 724.2573430355702,891.969113612968 717.12990270823,902.1536025804074 709.9729236731906,912.2873289893731 C 702.9042122873032,922.2960752631603 695.7687001706208,932.2269713589051 690.611247673593,943.0847660894898 C 686.8612600769816,950.9794768191977 678.3873678093406,955.4909620572984 669.7439925471961,954.1944557679767 C 665.7993923390368,953.6027657367528 661.4616009221664,953.3679913161704 657.517000714007,953.762451336986 C 653.562997614866,954.1578516468999 649.6755198536063,953.3543507782165 646.2970452792247,951.5754199277433 C 643.5620174422675,953.518866551339 640.3462928988631,954.7603324442782 636.9329396877667,955.1289068012617 C 636.2948805058203,955.1978045209406 635.6570566972705,955.2354297455661 635.0215129229888,955.2424784107621 C 636.7562871429849,959.667770598377 636.8794823961907,964.6542813381715 635.2182242376373,969.2437145403719 C 637.9663565010994,969.0710118281515 640.7580310746625,969.469462323692 643.4108303626467,970.4612711781793 C 647.048362865437,971.8212447581988 650.1510597912416,974.1945160857824 652.4015340938503,977.2293417562463 C 655.0801505764864,977.2906360806286 657.7456064907635,977.8942137846368 660.2298274919358,979.0352347027901 C 662.7507306130847,980.1931039875726 664.9734119277847,981.8531490281578 666.7795982334568,983.8854357039869 C 671.2694418107194,984.1148719563712 675.6147114580832,985.8669077799314 679.0331909969325,988.9391818897553 C 679.9297432690164,988.6986848850687 680.796727162669,988.2852426142294 681.5683130960886,987.8718930070404 C 684.5657680839856,986.2661135492388 687.8814618081844,985.4788993943591 691.1957695599435,985.5217512794405 C 690.7306628067048,984.5211849930522 690.3463514268383,983.4758993410251 690.0504159892382,982.394495180881 C 688.4325407699638,976.4824725893791 689.6376536514554,970.1545885386905 693.315293014569,965.2510693878716 C 694.7655735254687,963.317362040005 696.2066086303805,961.1355506578194 697.6568891412802,958.9601298914698 C 700.5959366602308,954.5515586130438 705.1448332977271,951.5420444553749 710.2503161620607,950.5142177628502 L 726.4803355594302,928.3444756756451 C 734.743870313104,918.2732926946048 742.2355205668505,907.9458741946642 749.7243489373674,895.550572064154 C 753.236237377796,889.737791197238 759.4769436063385,886.1247936895437 766.2665626505003,885.9736147890391 C 772.927321993846,885.825305102221 779.2086232037518,889.0288694982602 783.0013416127517,894.4855626665778 C 789.399102724223,899.6211384054244 791.9776157567337,908.1658862854204 789.4859002113627,915.9847178243432 L 781.4678468805414,941.144816207266 C 779.5296312769893,947.236336529573 777.591422396228,953.2971081137302 775.6532067895183,959.3578775505841 C 771.7933459170301,971.4276012312218 767.9333821635012,983.4972922318394 764.0735212910131,995.8120864440634 C 762.1351574888727,1001.9963900032735 757.4483280926852,1006.5599783543288 751.7778598929873,1008.5779503321589 C 755.9876866234408,1013.1985524361622 757.942513630944,1019.7226634632448 756.4898718410712,1026.2595515176718 C 735.425152844974,1121.050787000109 727.7326803475187,1206.9189561825729 734.7542533462176,1282.2658356686131 C 735.5010286464855,1290.2793090830255 731.3334931507655,1297.9501633805855 724.2041489466169,1301.6845817732349 C 723.6088554589678,1302.2241091882133 723.5845938485447,1302.717216247152 723.4471011690091,1303.5580515268975 C 722.8149797466997,1309.0729009098277 724.1699279669206,1315.379512680653 725.2095700774561,1321.6385561506836 C 727.2014912318955,1333.6306839879144 728.5123399790202,1345.48939168329 726.3033216991827,1354.9751760614165 C 726.1187142752884,1355.7679020581386 725.8855066822439,1356.5485185104938 725.6050207108663,1357.3126009842467 C 718.6676146708635,1376.2110519208056 718.7418371415625,1395.6142897471755 720.8948252229428,1415.2304033775297 C 721.0589493053966,1416.7257561287752 721.0524948858406,1418.2349226463275 720.8755863598677,1419.728816865654 C 719.6053467094259,1430.4552850249402 715.3378941501711,1440.205006075671 710.7241431717096,1449.8708004656228 C 707.1376671581882,1457.3844569011399 702.4561092580923,1464.6724432096198 704.321225299321,1474.1077361240705 C 705.6191203471274,1480.6735581306202 703.5196881392021,1487.4512599649995 698.7375605343756,1492.1337599113924 C 694.5768336950812,1496.207804941535 691.9125123155615,1501.5928673700762 689.0009533234016,1506.8345820116033 C 681.7710224083816,1519.8507135193413 673.7621336643552,1532.289596908044 660.2015909835958,1539.8232317306874 C 654.9659705350658,1542.7319097576483 648.6966754501541,1543.120153872157 643.1421792717318,1540.8796848253985 C 639.2413359281348,1539.3062354094939 635.3646177405493,1539.0927841623627 632.0046476336685,1539.9573618362065 C 629.5049071872298,1540.6005877315704 627.2607159736024,1541.7502446036428 625.9193918316103,1543.493965988232 C 627.2477035378166,1545.3128799688582 628.6740655945059,1546.3706485887383 631.070067054796,1547.908893294731 C 638.4972189124612,1551.1373971695004 661.7996187126516,1554.404045665142 681.195120223937,1557.5758729725087 C 694.3176251601938,1559.7218509702238 705.9512613839203,1561.6746827256122 711.7214782725548,1563.0794841355378 C 718.7737297998535,1564.3753729877997 727.8166726942497,1566.06023645078 736.3395092990886,1565.829108678446 C 739.2413762898817,1565.7504139803905 742.070552894117,1565.4878060104888 744.5568135108048,1564.5926538201088 C 745.318508561655,1564.3184134654996 746.094585468056,1564.06892069794 746.5888208324058,1563.43003108061 C 746.8558013752432,1563.0849098910883 747.1340610311511,1562.7487296648414 747.4231381935008,1562.4220320463087 C 747.5539866698622,1561.7043100630267 747.4942054226416,1560.9355840027263 747.4431950369992,1560.1432838561932 C 747.1180938211153,1555.0937681989665 745.4137886434378,1549.6581447087751 743.9228776364396,1544.3695128236457 C 741.7782192870064,1536.7618766359146 739.876285702487,1529.3606644601905 739.4443722411921,1522.9899409060909 C 739.376856638503,1521.9940857664258 739.3845772661805,1520.994555783682 739.46746837946,1519.9998624243278 C 740.3874428612087,1508.9601686433432 744.8121125810661,1498.9551423172322 749.6748348417377,1489.0982728699246 C 752.84690530959,1482.6684002999536 757.1501527041085,1476.54239626841 755.7498693444259,1468.7408175501787 C 755.5629254933312,1467.6992732369374 755.4595962350403,1466.6444437303007 755.4408701707187,1465.5864210961279 C 755.1016848400577,1446.4224499137824 760.9486328434745,1428.178718403563 767.2196243396357,1409.9417947132697 C 771.3890270287449,1397.8165863276558 775.7785250364597,1385.6990324905707 776.7933408016986,1372.9574567714599 C 777.3907897060153,1365.4561538617068 782.1800072262479,1358.9382469210714 789.1601417758852,1356.1268038385786 C 801.4809018210102,1351.16427548707 814.6924368657299,1348.7922212332921 827.9704087372771,1348.8136114417039 C 840.9339444849317,1348.8344951078298 853.9571226395193,1351.1399092897461 866.2158346554246,1355.483711843934 C 878.5311386070366,1359.8475674179294 890.0692907213869,1366.2668151217674 900.0295812682826,1374.4280642481335 C 910.3062035073943,1382.8485088000332 918.9055251126634,1393.1181612653525 925.0530990271609,1404.8937958057984 C 926.8981349281058,1408.4279490808478 927.6358102132237,1412.4359231550409 927.1699901268552,1416.3953938891736 C 925.9999043638694,1426.3411228745533 923.7428541913481,1436.7100235045473 921.4214162696029,1447.2017586593277 C 918.4507454801516,1460.627700771763 915.2388666217545,1474.2780306246293 915.3882935670755,1487.3599911450358 C 921.1711871645552,1483.5874148372575 927.4914860051445,1479.8688041327357 935.2205913175069,1476.3375500766733 C 950.6712318930101,1469.57027539015 968.5654220732906,1466.8521677727815 986.9483512629839,1464.3526048721847 C 997.6083899749925,1462.9031385217186 1008.4481106480638,1461.4779653337366 1018.86895148435,1458.7565992554705 C 1020.5059299371907,1458.329108067149 1022.190860275292,1458.1127295184822 1023.8827370944362,1458.1127295184822 C 1044.5738210063025,1458.1127295184822 1072.8315370979033,1458.4148916539432 1098.0358284155961,1458.684851943031 C 1106.9166008528155,1458.7799728835191 1115.4168116444587,1458.8710239585648 1123.0682658766793,1458.9432074890574 C 1123.7731472239868,1458.9498573130886 1124.4771734956803,1458.994063233709 1125.1773503420682,1459.07563723523 C 1128.2423374094171,1459.432723107154 1130.770911145014,1459.5097202026402 1132.7274441515983,1458.6951180573133 C 1133.239181782645,1457.878068903658 1133.1623589212684,1456.6776113926219 1133.0905136720748,1455.4034147672182 C 1132.9172180967387,1452.329966769347 1131.947805537863,1449.0060277510133 1130.4391146467021,1445.5808916737838 C 1127.607174539937,1439.1516222422092 1128.3859055732378,1431.7041643919267 1132.4865797159819,1425.9997922295313 C 1136.5872538587262,1420.2954200671356 1143.398534973739,1417.18455201686 1150.3950225077422,1417.8205963381322 C 1150.812599185239,1417.8585578542682 1151.2313345852795,1417.8966616440007 1151.6511935200517,1417.9348676980158 C 1174.1545234121593,1419.9826112760954 1200.1417220706892,1422.6236594220572 1223.3008886529574,1418.118265237345 C 1232.9906330731565,1416.233218208255 1242.1489629446355,1413.0618640051164 1249.9951340607045,1407.550571455035 C 1252.748180227264,1405.6167820176977 1255.324736883429,1403.3862147332447 1257.7233732615123,1400.783530331243 C 1246.988123829405,1396.0590168878273 1237.4365185503386,1389.0929325447187 1229.2455674146793,1380.8214146765777 C 1216.6751727202438,1368.12737675564 1207.4111354509637,1352.4039521979282 1201.9708334848474,1338.2261955589586 C 1201.72009079592,1337.572744915087 1201.504096681277,1336.9064855159716 1201.3237568195493,1336.230211034493 C 1193.5152753783882,1306.9484056301387 1189.0870359476162,1274.5703425801878 1184.6898589803318,1241.9862948569296 C 1178.0856180100884,1193.0474178111822 1171.887386470366,1143.517700429111 1151.5266695607243,1105.0766669037077 C 1151.3162786873552,1104.6794489347867 1151.1194455940201,1104.2751967993408 1150.9365109694609,1103.8646101975526 C 1139.2918342289368,1077.7287801799328 1118.0498886828923,1054.3876169064356 1097.568776885835,1031.5730899285509 C 1042.6166453441679,970.0036860022855 992.6940451434675,898.6814505215679 973.9930579696019,827.3299917658956 C 973.3194137782721,824.7597800820524 973.1688149776293,822.0804536570552 973.5501946032774,819.4509415012709 C 975.4984119222739,806.0184957755597 986.1957040722531,781.0168687771447 998.6046833231692,753.351872114829 C 1009.2537167553113,729.6105579906015 1021.0168809351699,703.5585661057451 1027.478157544108,681.9414267239703 C 1030.1218654692339,673.096517867555 1031.9409696272767,665.2091857348539 1031.7994193583652,658.8851537830332 C 1031.7861963255646,658.2943892258513 1031.8011246437102,657.7351190733646 1031.7564511438854,657.2249130583583 C 1030.681818911863,656.406541983993 1029.7081456677852,655.4915667660415 1028.8417250156808,654.4987941241167 C 1027.3844369357676,654.3119694385753 1025.9256168648228,653.9593842573363 1024.4892608351104,653.430200456916 C 1022.7823467165946,652.8013373606209 1021.0103510874393,652.2071169251853 1019.2323855955798,651.6080447794349 C 1015.120533583214,650.2225870642327 1010.991018176646,648.7983747602605 1007.2512496439297,647.1362554123866 C 998.9302305590033,643.4380247079752 994.3761204935365,634.6890128242112 995.6848672492064,626.0462552796295 C 995.6064187406471,626.0550870240793 995.5278557915904,626.063458599168 995.4491819886998,626.0713681454021 C 988.6786614330103,626.7520489234527 982.0315539242702,623.9159971627362 977.8377913095433,618.5573004883628 C 976.1764366267638,616.4344583937001 974.5118061527525,614.1857811409122 972.4351127992734,612.432128975752 C 972.0201646765923,612.0817283388205 971.6338839277528,611.6455821265267 971.0437354866061,611.5533714325977 C 964.8829033435611,610.5907414102475 959.5328990347947,606.7881169836012 956.598506510109,601.2861309998153 C 954.9300704343516,598.15781335777 953.0553338797215,595.2365828876558 950.7612342755551,592.3168197550804 C 945.7330983872617,585.9173740790707 945.1223803788503,577.0964802132714 949.2206323640833,570.0651655327244 C 952.7740351124864,563.9686412094836 954.231608381943,558.0349533890949 953.928019657584,552.2122264704485 C 953.585377001662,545.6404586278908 951.2104704999923,539.2951887984314 947.8840370989714,533.0747244209275 C 939.1720425447116,516.783205773614 924.218867107326,501.6459709899469 910.6368616024429,487.52682562667707 C 903.533787416491,480.1428397402403 896.7175821786027,473.035853178348 890.260249040323,465.3838768088079 C 885.874437762107,459.59129587531504 881.8419438716328,453.37101951367646 877.8084521076167,447.1133674068428 C 869.9704450464703,434.9533025625001 862.6412688350794,422.1300460536725 849.7346824720981,414.93403087748106 C 843.384867426697,411.9404149855949 837.2557815405961,410.32618365815995 831.3919472741156,410.0223951075372 C 825.8242711135355,409.7339496647955 820.5373110390522,410.6436363374995 815.617654194074,412.5094172682454 C 804.541161225323,416.7101796408755 795.3512098823546,425.50509785130015 788.3853479862845,436.2822261452201 C 780.7084889925222,448.15936288788 775.7608548509138,462.52162731475227 774.3666748210854,477.0558654374159 C 773.04115539299,490.8743211547364 774.9067918208265,504.9018612330068 781.2207164248841,516.8821284304495 C 781.4777979885179,517.3699242178571 781.7144356525564,517.8682236563766 781.9300132613912,518.3757292771752 C 787.1609971968321,530.6903372918591 794.8479687796604,541.3117563673848 802.3528767332077,551.9281815138652 C 814.4610871373875,569.0564274842973 826.0876229057378,586.2098344377106 831.5381491080592,607.1328221175894 C 832.6855599513611,611.5373992257483 832.2838649943321,616.2025496966588 830.4004091233367,620.3461526128488 C 825.1819801728674,631.8266963038808 821.724275414823,644.0077306835776 818.2442086248536,656.0183648460314 C 817.3641414157163,659.0557103699108 816.4863869381627,662.0843416845354 815.5890057767574,665.0932079315997 C 815.0503544442903,666.8992741639893 814.2571474451967,668.6193905327106 813.2332923681051,670.2017120154884 C 808.6336766400843,677.3102090497026 801.6652956869403,684.9575196314004 794.2902859300835,692.8435512661445 C 788.4529715587965,699.0853390483385 782.3146415096068,705.5334948114673 777.71638029155,712.1893628606249 C 775.1303354518321,715.9325980545665 772.6767242625887,719.476024765229 772.7232573394134,723.3382701416785 C 772.8004876322632,729.7483844482116 769.7761866673319,735.800925637487 764.6037283870189,739.5879040212877 C 752.4864092242652,748.4595126940185 744.0071216248335,764.9401242033983 740.1122690368054,778.1393468628262 C 738.6051855775198,783.246685252627 735.1085581504121,787.53396025562 730.4085691873238,790.037220075941 C 728.2659573760903,791.1783959594865 725.9552369648806,791.9051507306692 723.5937566348921,792.206638361008 C 719.3273332239114,798.8203084451183 710.5904801330496,812.3617035432095 703.5309173461638,823.3033241229643 C 700.4906343073612,828.015460620629 697.7624523287936,832.243862026454 695.8147112037274,835.2621495358067 C 696.1245698807235,840.8443901217232 696.6480632247499,850.2602633223726 697.0730738520004,857.9025158504777 Z M 1050.5822797367894,604.6323688545767 C 1054.1842450403224,602.3735914006661 1057.9842574370557,599.9716702846688 1061.091320949028,597.9138817704484 C 1061.4991135902558,597.6438032831343 1061.8926309404214,597.3818456416718 1062.268520940249,597.1293411575774 L 1067.3853149126571,583.9294958374514 C 1064.5419774706193,582.839722417852 1061.9410885972093,581.0930043299255 1059.820485495145,578.7656268561262 C 1055.0661357423223,573.5476930963804 1053.4418376462613,566.1968036250206 1055.5549045333378,559.4614029224638 C 1057.5508274869906,553.099398507695 1060.3518456942652,546.7196402883442 1063.206039037801,540.3376269818441 C 1064.460057709009,537.5336249809372 1065.7575548869452,534.738802034462 1066.9252514423315,531.937856382115 C 1065.5177798018872,530.373278536435 1064.3549610651353,528.5801791049392 1063.4957833345277,526.6144839107068 C 1062.7551432038993,524.9199884721406 1062.261889201557,523.14699786609 1062.0166503891937,521.3475779706887 C 1059.9452114954254,520.8396757485939 1057.936528733234,519.9926527076744 1056.0753192837508,518.8056502447746 C 1055.3257694128943,518.3491765435565 1054.9759872605787,518.1523446320878 1054.2449574775244,517.9821629205513 C 1050.5608095347625,518.280745824125 1046.9480390557333,517.5430271703391 1043.7642591968088,515.9502738907431 C 1041.1219798127781,521.1390547090929 1039.0246986503607,525.2142391015706 1039.0246986503607,526.1337104298195 C 1039.0246986503607,537.092696720712 1030.140684941253,545.9767104298195 1019.1816986503607,545.9767104298195 C 1018.4086506320184,545.9767104298195 1017.6356026136766,545.9767104298195 1016.8625545953346,545.9767104298195 L 1007.0588515461068,569.0758463814236 C 1007.1918383922459,569.7689820490907 1007.3383424095748,570.5094668519434 1007.4945250434934,571.2862905434087 C 1008.4350317415549,575.9641978542597 1009.7143431631193,581.755319934828 1010.8595907867007,586.8968505993554 C 1014.4962537088289,579.6650221003647 1022.2232970410046,575.3092658908482 1030.3979724792237,576.0597999041831 C 1039.1424226022582,576.8626461205068 1046.3192973353698,583.3174568474776 1048.0414378862463,591.9281596018601 L 1050.5822797367894,604.6323688545767 Z" cricut:graphicId="'DED48257-7F35-42B9-A988-778F4EE86F0D'" cricut:layerFillColorOriginal="'#494949'" cricut:layerGraphicId="'DED48257-7F35-42B9-A988-778F4EE86F0D'" cricut:layerImageDetails="[{'ImageSourceName':'Offset','LayerOperationsUsedSet':['Offset']},{'ImageSourceId':692221880,'ImageSourceLayerPathIndex':[2],'ImageSourceGlyphPathId':2,'ImageSourceName':'Archer with Bow','ImageSourceHeightDefault':6.0,'ImageSourceSingleSetGroupId':6086841,'ImageSourceUuid':'2959f0a6-dc0b-43bf-897f-4574647bbb58'},{'ImageSourceId':692221880,'ImageSourceLayerPathIndex':[4],'ImageSourceGlyphPathId':4,'ImageSourceName':'Archer with Bow','ImageSourceHeightDefault':6.0,'ImageSourceSingleSetGroupId':6086841,'ImageSourceUuid':'2959f0a6-dc0b-43bf-897f-4574647bbb58'},{'ImageSourceId':692221880,'ImageSourceLayerPathIndex':[3],'ImageSourceGlyphPathId':3,'ImageSourceName':'Archer with Bow','ImageSourceHeightDefault':6.0,'ImageSourceSingleSetGroupId':6086841,'ImageSourceUuid':'2959f0a6-dc0b-43bf-897f-4574647bbb58'},{'ImageSourceId':692221880,'ImageSourceLayerPathIndex':[1],'ImageSourceGlyphPathId':1,'ImageSourceName':'Archer with Bow','ImageSourceHeightDefault':6.0,'ImageSourceSingleSetGroupId':6086841,'ImageSourceUuid':'2959f0a6-dc0b-43bf-897f-4574647bbb58'},{'ImageSourceId':692221880,'ImageSourceLayerPathIndex':[5],'ImageSourceGlyphPathId':5,'ImageSourceName':'Archer with Bow','ImageSourceHeightDefault':6.0,'ImageSourceSingleSetGroupId':6086841,'ImageSourceUuid':'2959f0a6-dc0b-43bf-897f-4574647bbb58'},{'ImageSourceId':692221880,'ImageSourceLayerPathIndex':[0],'ImageSourceName':'Archer with Bow','ImageSourceHeightDefault':6.0,'ImageSourceSingleSetGroupId':6086841,'ImageSourceUuid':'2959f0a6-dc0b-43bf-897f-4574647bbb58'}]" cricut:layerName="'Path0'" cricut:layerNativeSize="{'Width':631.803981429902,'Height':1155.8806715082835}" cricut:nativeSize="{'Width':631.803981429902,'Height':1155.8806715082835}" />
                    </g>
                </g>
            </defs>
        </g>
    </g>
</svg>