<svg xmlns="http://www.w3.org/2000/svg" viewBox="2103.427029630724,779.174820935961,598.1597587862652,790.867485883814" width="598.1597587862652pt" height="790.867485883814pt" xmlns:cricut="http://developer.cricut.com/schemas/svg/v1">
    <g cricut:canvasRootGraphic="true" cricut:graphicContainerSubtypeName="'GraphicGroup'" cricut:graphicId="'B4C8DFAB-CBD7-4096-8AFB-3324CFC4C75D'">
        <g transform="matrix(1.0,0.0,0.0,1.0,2103.4270296307236,779.1748209359611)" cricut:cacheComponentsId="'components-2'" cricut:graphicContainerSubtypeName="'SymmetricDifferenceGraphic'" cricut:graphicId="'BD5B1746-C1A3-436D-A702-2A782530AE60'" cricut:nativeSize="{'Width':598.1597587862657,'Height':790.8674858838139}">
            <path stroke="rgb(0,0,0)" stroke-width="1.0pt" fill="rgb(43,42,41)" fill-rule="evenodd" d="M 598.1597587862657,312.06120438794085 C 598.1597587862657,312.06120438794085 540.0027436035093,300.2430196967881 497.5523675577015,222.9493749925815 C 497.5523675577015,222.9493749925815 411.9214689980986,269.067463528747 335.10326850560523,275.1123970776699 C 337.9389536254648,195.25474966029662 387.1813898386017,101.77902160742838 387.1813898386017,101.77902160742838 C 310.77071295614815,58.83622119948939 299.0883694683421,0.0 299.0883694683421,0.0 C 299.0883694683421,0.0 287.40602598053556,58.83622119948939 210.9783689476635,101.77902160742838 C 210.9783689476635,101.77902160742838 260.1868448599639,195.3056901115516 263.05649028066046,275.1123970776699 C 186.2382897881671,269.067463528747 100.60739122856376,222.9493749925815 100.60739122856376,222.9493749925815 C 58.15701518275637,300.17509909511466 0.0,312.06120438794085 0.0,312.06120438794085 C 0.0,312.06120438794085 58.15701518275637,323.8793890790936 100.60739122856376,401.1730337833002 C 100.60739122856376,401.1730337833002 186.34017069067704,355.0040047958797 263.1753513335884,349.01001169821177 L 263.1753513335884,512.1722770678779 C 261.68109809677617,592.7770511036575 210.995349098082,689.0884642763855 210.995349098082,689.0884642763855 C 287.40602598053556,732.0312646843246 299.0883694683421,790.8674858838139 299.0883694683421,790.8674858838139 C 299.0883694683421,790.8674858838139 310.77071295614815,732.0312646843246 387.1813898386017,689.0884642763855 C 387.1813898386017,689.0884642763855 334.96742730225833,589.8904255325425 334.96742730225833,508.60644548002995 L 334.96742730225833,348.9930315477935 C 411.81958809558864,355.0040047958797 497.5523675577015,401.1730337833002 497.5523675577015,401.1730337833002 C 540.0027436035093,323.94730968076703 598.1597587862657,312.06120438794085 598.1597587862657,312.06120438794085 Z M 302.1380992946865,742.932967865269 C 290.1855417408542,724.3903085790333 270.8863810084463,701.9966212699688 239.78551621602173,681.5341707793544 C 254.70151126164137,649.3877872749189 284.8752282929504,576.7033545487205 286.0646723711061,512.5409563782249 L 286.06808109871736,349.0109041891004 C 286.06808109871736,343.48002443229336 283.75968531645776,338.2001255487129 279.6995246312149,334.4443664917088 C 275.6393639459725,330.68860743470475 270.1959231988676,328.7978467039021 264.6817967173706,329.2280094990332 C 204.9997451977115,333.883868987749 141.0457221383831,361.0874175944749 111.28276761991856,375.2103187933218 C 90.91606780336724,343.60347789517425 68.62375468462551,324.0840388790572 50.247055094841926,312.04869561544444 C 68.62161278589019,300.00829141389465 90.9112495530303,280.4911521812754 111.27705026400463,248.91203204202418 C 141.01236779526153,263.02358632720495 204.8920094960281,290.20059868663304 264.5495583798811,294.89513613195834 C 270.18951954814656,295.3389527048811 275.7507519424844,293.3542815542918 279.8354054599854,289.4399820292289 C 283.92005897748686,285.52568250416596 286.1396987401886,280.0539894715074 285.9364045874677,274.4002467626982 C 283.6654958189524,211.2447958039886 254.39210672807712,140.8312940916469 239.77141186955987,109.33425317055082 C 270.88006111289405,88.87185076361686 290.1827589728123,66.47734359738092 302.1369485919395,47.93451801854451 C 314.08829699716534,66.47578572641896 333.3851988136248,88.86779162337132 364.48193007386135,109.32934143767011 C 349.8504179690776,140.82049009229775 320.56653693145654,211.21318343240785 318.32249653936833,274.40912333654967 C 318.1217881033872,280.06140941091314 320.34260814338086,285.53074003660515 324.4270196991388,289.443054439348 C 328.5114312548967,293.3553688420908 334.07124204030424,295.3388312626163 339.7096599366423,294.89513613195834 C 399.3631388126619,290.2009189613433 463.23813443886,263.02729440887913 492.976858592147,248.91451196221817 C 513.3434497279086,280.5209779278781 535.6355869851559,300.0402356671749 554.0121632218575,312.07549821929695 C 535.6375159657227,324.11596103349495 513.3477514663273,343.63323184513604 492.9818702396874,375.2126235039617 C 463.2222663183802,361.09033660987586 399.2621030997402,333.8805800286706 339.5644469393683,329.2113422291187 C 334.0497109134226,328.7800084789675 328.60524225309155,330.6701997783599 324.5441882766886,334.42602230353634 C 320.48313430028566,338.181844828713 318.17415706738757,343.462345399642 318.17415706738757,348.99392403868194 L 318.17415706738757,508.6073379709186 C 318.17415706738757,573.6906120664311 349.27678053244836,648.7212089529747 364.4942120612409,681.5329442907013 C 333.3911230421927,701.9951538448696 314.0910569529583,724.3896896416319 302.1380992946865,742.932967865269 Z" cricut:graphicId="'0C5DFB2A-F53F-4822-95DA-6CEF5C095099'" cricut:layerFillColorOriginal="'#1E1C1C'" cricut:layerGraphicId="'0C5DFB2A-F53F-4822-95DA-6CEF5C095099'" cricut:layerImageDetails="[{'ImageSourceId':1348873146,'ImageSourceLayerPathIndex':[0,0],'ImageSourceName':'Medieval Cross 3','ImageSourceHeightDefault':6.94,'ImageSourceSingleSetGroupId':14554770,'ImageSourceUuid':'c254f2aa-3c58-46e4-9a40-76186c20beea'},{'ImageSourceName':'Offset','LayerOperationsUsedSet':['Offset']}]" cricut:layerName="'Path0'" cricut:layerNativeSize="{'Width':598.1597587862657,'Height':790.8674858838139}" cricut:nativeSize="{'Width':598.1597587862657,'Height':790.8674858838139}" />
            <defs>
                <g id="components-2">
                    <g transform="matrix(1.698015041832304,0.0,0.0,1.698015041832304,1.0363860383222345e-06,1.425030973223329e-06)" cricut:graphicContainerSubtypeName="'GraphicGroup'" cricut:graphicId="'143C25ED-A9D0-4E72-83B1-0927CF850239'" cricut:nativeSize="{'Width':352.27,'Height':465.76}">
                        <path stroke="rgb(0,0,0)" stroke-width="1.0pt" fill="rgb(43,42,41)" fill-rule="evenodd" transform="matrix(1.0,0.0,0.0,1.0,-73.86000061035156,-17.1200008392334)" d="M 426.13,200.9 C 426.13,200.9 391.88,207.9 366.88,253.38 C 366.88,253.38 316.39,226.19 271.13,222.65 L 271.13,316.65 C 271.13,364.52 301.88,422.94 301.88,422.94 C 256.88,448.23 250.0,482.88 250.0,482.88 C 250.0,482.88 243.12,448.23 198.12,422.94 C 198.12,422.94 227.97,366.22 228.85,318.75 L 228.85,222.66 C 183.6,226.19 133.11,253.38 133.11,253.38 C 108.11,207.86 73.86,200.9 73.86,200.9 C 73.86,200.9 108.11,193.9 133.11,148.42 C 133.11,148.42 183.54,175.58 228.78,179.14 C 227.09,132.14 198.11,77.06 198.11,77.06 C 243.12,51.77 250.0,17.12 250.0,17.12 C 250.0,17.12 256.88,51.77 301.88,77.06 C 301.88,77.06 272.88,132.11 271.21,179.14 C 316.45,175.58 366.88,148.42 366.88,148.42 C 391.88,193.94 426.13,200.9 426.13,200.9 Z" cricut:graphicId="'61B76532-10CF-4080-BC6E-D94F90C8D5F2'" cricut:layerFillColorOriginal="'#1E1C1C'" cricut:layerGraphicId="'61B76532-10CF-4080-BC6E-D94F90C8D5F2'" cricut:layerImageDetails="[{'ImageSourceId':1348873146,'ImageSourceLayerPathIndex':[0,0],'ImageSourceName':'Medieval Cross 3','ImageSourceHeightDefault':6.94,'ImageSourceSingleSetGroupId':14554770,'ImageSourceUuid':'c254f2aa-3c58-46e4-9a40-76186c20beea'}]" cricut:layerName="'Path0'" cricut:layerNativeSize="{'Width':352.27,'Height':465.76}" cricut:nativeSize="{'Width':352.27,'Height':465.76}" />
                    </g>
                    <g transform="matrix(1.0,0.0,0.0,1.0,-2100.3772998655945,-779.1739284450724)" cricut:graphicContainerSubtypeName="'GraphicGroup'" cricut:graphicId="'3B2F12CA-20D4-4F2D-90FE-EF0F39DF71BF'" cricut:nativeSize="{'Width':503.76510812701554,'Height':694.9984498467245}">
                        <path stroke="rgb(0,0,0)" stroke-width="1.0pt" fill="rgb(73,73,73)" fill-rule="evenodd" d="M 2402.515399160281,1522.1068963103414 C 2414.468356818553,1503.5636180867043 2433.768422907787,1481.169082289942 2464.8715119268354,1460.7068727357737 C 2449.654080398043,1427.8951373980472 2418.551456932982,1352.8645405115035 2418.551456932982,1287.781266415991 L 2418.551456932982,1128.1678524837544 C 2418.551456932982,1122.6362738447144 2420.86043416588,1117.3557732737854 2424.921488142283,1113.5999507486088 C 2428.982542118686,1109.8441282234323 2434.427010779017,1107.95393692404 2439.941746804963,1108.3852706741911 C 2499.6394029653347,1113.054508473743 2563.5995661839747,1140.2642650549483 2593.359170105282,1154.3865519490341 C 2613.725051331922,1122.8071602902085 2636.0148158313173,1103.2898894785674 2654.389463087452,1091.2494266643694 C 2636.0128868507504,1079.2141641122473 2613.720749593503,1059.6949063729505 2593.3541584577415,1028.0884404072906 C 2563.6154343044545,1042.2012228539515 2499.7404386782564,1069.3748474064157 2440.086959802237,1074.0690645770308 C 2434.4485419058988,1074.5127597076887 2428.8887311204912,1072.5292972871632 2424.8043195647333,1068.6169828844204 C 2420.7199080089754,1064.7046684816776 2418.4990879689817,1059.2353378559856 2418.699796404963,1053.583051781622 C 2420.943836797051,990.3871118774803 2450.227717834672,919.9944185373702 2464.859229939456,888.5032698827425 C 2433.7624986792193,868.0417200684437 2414.46559686276,845.6497141714914 2402.514248457534,827.1084464636169 C 2390.560058838407,845.6512720424533 2371.2573609784886,868.0457792086893 2340.1487117351544,888.5081816156232 C 2354.7694065936716,920.0052225367193 2384.042795684547,990.418724249061 2386.313704453062,1053.5741752077706 C 2386.516998605783,1059.2279179165798 2384.2973588430814,1064.6996109492384 2380.21270532558,1068.6139104743013 C 2376.128051808079,1072.5282099993642 2370.566819413741,1074.5128811499535 2364.9268582454756,1074.0690645770308 C 2305.2693093616226,1069.3745271317055 2241.389667660856,1042.1975147722774 2211.654350129599,1028.0859604870966 C 2191.288549418625,1059.6650806263478 2168.9989126514847,1079.182219858967 2150.6243549604364,1091.2226240605169 C 2169.00105455022,1103.2579673241296 2191.2933676689618,1122.7774063402467 2211.660067485513,1154.3842472383942 C 2241.4230220039776,1140.2613460395473 2305.377045063306,1113.0577974328214 2365.059096582965,1108.4019379441056 C 2370.573223064462,1107.9717751489745 2376.016663811567,1109.8625358797772 2380.0768244968094,1113.6182949367812 C 2384.1369851820523,1117.3740539937853 2386.445380964312,1122.6539528773658 2386.445380964312,1128.1848326341728 L 2386.4419722367006,1291.7148848232973 C 2385.252528158545,1355.877282993793 2355.078811127236,1428.5617157199913 2340.1628160816163,1460.7080992244269 C 2371.263680874041,1481.1705497150413 2390.5628416064487,1503.5642370241058 2402.515399160281,1522.1068963103414 Z" cricut:graphicId="'8A29F012-869A-43C9-8ECA-043A8C4A5818'" cricut:layerFillColorOriginal="'#494949'" cricut:layerGraphicId="'8A29F012-869A-43C9-8ECA-043A8C4A5818'" cricut:layerImageDetails="[{'ImageSourceName':'Offset','LayerOperationsUsedSet':['Offset']},{'ImageSourceId':1348873146,'ImageSourceLayerPathIndex':[0,0],'ImageSourceName':'Medieval Cross 3','ImageSourceHeightDefault':6.94,'ImageSourceSingleSetGroupId':14554770,'ImageSourceUuid':'c254f2aa-3c58-46e4-9a40-76186c20beea'}]" cricut:layerName="'Path0'" cricut:layerNativeSize="{'Width':503.76510812701554,'Height':694.9984498467245}" cricut:nativeSize="{'Width':503.76510812701554,'Height':694.9984498467245}" />
                    </g>
                </g>
            </defs>
        </g>
    </g>
</svg>