<svg xmlns="http://www.w3.org/2000/svg" viewBox="252.0,252.0,377.92484026107866,499.68000000000006" width="377.92484026107866pt" height="499.68000000000006pt" xmlns:cricut="http://developer.cricut.com/schemas/svg/v1">
    <g cricut:canvasRootGraphic="true" cricut:graphicContainerSubtypeName="'GraphicGroup'" cricut:graphicId="'F675728B-4A13-4568-9D09-F18ED6D1E79D'">
        <g transform="matrix(1.0728272071453109,0.0,0.0,1.0728272071453109,252.00000065480177,252.00000090035243)" cricut:graphicContainerSubtypeName="'GraphicGroup'" cricut:graphicId="'143C25ED-A9D0-4E72-83B1-0927CF850239'" cricut:nativeSize="{'Width':352.27,'Height':465.76}">
            <path stroke="rgb(0,0,0)" stroke-width="1.0pt" fill="rgb(43,42,41)" fill-rule="evenodd" transform="matrix(1.0,0.0,0.0,1.0,-73.86000061035156,-17.1200008392334)" d="M 426.13,200.9 C 426.13,200.9 391.88,207.9 366.88,253.38 C 366.88,253.38 316.39,226.19 271.13,222.65 L 271.13,316.65 C 271.13,364.52 301.88,422.94 301.88,422.94 C 256.88,448.23 250.0,482.88 250.0,482.88 C 250.0,482.88 243.12,448.23 198.12,422.94 C 198.12,422.94 227.97,366.22 228.85,318.75 L 228.85,222.66 C 183.6,226.19 133.11,253.38 133.11,253.38 C 108.11,207.86 73.86,200.9 73.86,200.9 C 73.86,200.9 108.11,193.9 133.11,148.42 C 133.11,148.42 183.54,175.58 228.78,179.14 C 227.09,132.14 198.11,77.06 198.11,77.06 C 243.12,51.77 250.0,17.12 250.0,17.12 C 250.0,17.12 256.88,51.77 301.88,77.06 C 301.88,77.06 272.88,132.11 271.21,179.14 C 316.45,175.58 366.88,148.42 366.88,148.42 C 391.88,193.94 426.13,200.9 426.13,200.9 Z" cricut:graphicId="'61B76532-10CF-4080-BC6E-D94F90C8D5F2'" cricut:layerFillColorOriginal="'#1E1C1C'" cricut:layerGraphicId="'61B76532-10CF-4080-BC6E-D94F90C8D5F2'" cricut:layerImageDetails="[{'ImageSourceId':1348873146,'ImageSourceLayerPathIndex':[0,0],'ImageSourceName':'Medieval Cross 3','ImageSourceHeightDefault':6.94,'ImageSourceSingleSetGroupId':14554770,'ImageSourceUuid':'c254f2aa-3c58-46e4-9a40-76186c20beea'}]" cricut:layerName="'Path0'" cricut:layerNativeSize="{'Width':352.27,'Height':465.76}" cricut:nativeSize="{'Width':352.27,'Height':465.76}" />
        </g>
    </g>
</svg>