<svg xmlns="http://www.w3.org/2000/svg" viewBox="216.0,216.0,300.52451994502826,499.67999999999995" width="300.52451994502826pt" height="499.67999999999995pt" xmlns:cricut="http://developer.cricut.com/schemas/svg/v1">
    <g cricut:canvasRootGraphic="true" cricut:graphicContainerSubtypeName="'GraphicGroup'" cricut:graphicId="'8369720A-1EF4-41FE-8D83-B0F4611035F5'">
        <g transform="matrix(1.1971824236906417,0.0,0.0,1.1971824236906417,216.00001117819446,216.00000164407987)" cricut:graphicContainerSubtypeName="'GraphicGroup'" cricut:graphicId="'E6F00369-3550-4ED5-BDE5-ACACBC0B0572'" cricut:nativeSize="{'Width':251.0265052326606,'Height':417.38}">
            <path stroke="rgb(0,0,0)" stroke-width="1.0pt" fill="rgb(0,0,0)" fill-rule="evenodd" transform="matrix(1.0,0.0,0.0,1.0,-124.48819732666016,-41.310001373291016)" d="M 367.68,57.89 C 347.3,42.67 250.0,41.31 250.0,41.31 C 250.0,41.31 152.7,42.67 132.32,57.89 C 111.94,73.11 137.21,88.33 142.1,97.29 C 146.99,106.25 153.0,128.82 153.0,129.64 C 153.0,130.46 143.31,133.71 143.85,142.77 C 143.85,142.77 152.19,140.6 159.62,169.23 C 167.05,197.86 188.24,222.68 219.23,222.68 C 217.52886937637,229.590586592057 218.625011294079,236.893351995533 222.28,243.0 C 228.44,253.33 229.34,259.0 227.53,262.39 C 225.72,265.78 211.95,268.28 211.68,281.87 C 211.41,295.46 241.85,291.11 241.85,317.47 C 241.85,343.83 232.33,361.23 223.64,369.38 C 214.95,377.53 169.0,380.5 169.0,405.23 C 169.0,405.23 158.94,405.5 158.4,416.64 C 157.86,427.78 182.86,458.69 249.99,458.69 C 317.12,458.69 342.13,427.79 341.58,416.64 C 341.03,405.49 331.0,405.23 331.0,405.23 C 331.0,380.5 285.07,377.51 276.37,369.35 C 267.67,361.19 258.16,343.81 258.16,317.44 C 258.16,291.07 288.6,295.44 288.33,281.84 C 288.06,268.24 274.33,265.84 272.48,262.36 C 270.63,258.88 271.57,253.3 277.73,242.97 C 281.38721857918,236.875675521833 282.493931275039,229.585091641696 280.81,222.68 C 311.81,222.68 333.0,197.86 340.42,169.23 C 347.84,140.6 356.19,142.77 356.19,142.77 C 356.73,133.71 347.04,130.45 347.04,129.64 C 347.04,128.83 353.04,106.26 357.91,97.29 C 362.78,88.32 388.07,73.11 367.68,57.89 Z M 184.77,184.81 C 177.3,173.94 169.14,174.07 166.7,167.28 C 164.26,160.49 169.28,159.44 169.28,159.44 C 168.33,153.38 160.17,148.12 162.76,143.23 C 165.35,138.34 170.23,144.04 170.23,144.04 C 171.86,128.82 192.38,124.34 186.13,130.13 C 179.88,135.92 180.69,145.94 180.69,145.94 C 184.23,141.87 191.57,144.18 186.95,151.94 C 182.33,159.7 184.5,164.85 184.5,164.85 C 187.22,162.14 193.33,161.59 190.61,171.24 C 187.89,180.89 195.91,191.24 195.91,191.24 C 195.91,191.24 192.25,195.68 184.77,184.81 Z M 164.12,106.9 C 164.119993509754,103.199695035909 167.119682429557,100.200002150973 170.819988919526,100.1999988061 C 174.520298555398,100.199993603368 177.519989702902,103.199682923049 177.519994785216,106.899989413016 C 177.519994095986,110.600292757057 174.520313814183,113.599991604862 170.82,113.6 C 167.121979478933,113.594498043225 164.125503998656,110.598029358585 164.12,106.9 Z M 189.3,109.43 C 189.300002654477,106.716057754014 190.9348423865,104.269351218781 193.442198581136,103.230770897269 C 195.949555901666,102.19219360427 198.835646253934,102.766271033622 200.754692344614,104.685319306295 C 202.673745797711,106.604366265838 203.247815611616,109.490459709871 202.209232439192,111.997814723619 C 201.170645343201,114.505173006912 198.723937057995,116.140006658857 196.01,116.14 C 194.229579581714,116.14265648097 192.521321598546,115.436568997173 191.262377445394,114.177623412576 C 190.003430724778,112.918674349485 189.297343985575,111.210419042047 189.3,109.43 Z M 216.36,207.81 C 210.67,196.74 222.77,188.81 228.91,195.75 C 233.63,201.08 226.91,207.75 226.91,207.75 C 235.8,208.66 240.24,192.75 229.91,179.9 C 219.58,167.05 203.63,175.59 201.8,168.66 C 199.97,161.73 208.95,160.03 208.95,160.03 C 206.42,158.2 193.04,157.42 195.0,152.19 C 196.96,146.96 212.46,148.28 225.33,157.03 C 238.53,166.03 243.33,178.73 243.76,187.35 C 245.0,213.51 221.85,218.5 216.36,207.81 Z M 234.0,113.66 C 230.08,110.39 228.0,103.33 234.0,101.66 C 240.0,99.99 244.76,108.81 244.76,108.81 C 244.859538161486,103.585629262312 246.704114892772,98.5447473218449 250.0,94.49 C 253.286019406916,98.5380131515404 255.126629335344,103.567158090228 255.23,108.78 C 255.333370664656,113.992841909772 260.0,99.93 266.0,101.63 C 272.0,103.33 269.92,110.39 266.0,113.63 C 261.604206996314,117.547778835114 258.314448050896,122.551351482365 256.46,128.14 C 254.605551949104,133.728648517635 267.57,112.97 278.46,113.37 C 289.35,113.77 291.4,119.64 291.01,121.73 C 290.62,123.82 281.6,120.82 275.45,124.09 C 275.45,124.09 283.95,126.7 281.45,132.32 C 278.78,138.32 255.08,138.55 250.03,165.74 C 244.98,138.55 221.28,138.36 218.61,132.32 C 216.13,126.7 224.61,124.09 224.61,124.09 C 218.46,120.82 209.44,123.82 209.05,121.73 C 208.66,119.64 210.75,113.73 221.6,113.37 C 232.45,113.01 243.6,128.14 243.6,128.14 C 241.723909682958,122.555609165632 238.413373563609,117.562219153515 234.0,113.66 Z M 319.4,410.21 C 319.4,410.21 322.4,443.21 250.0,443.21 C 177.6,443.21 180.6,410.21 180.6,410.21 C 180.6,410.21 191.11,431.41 250.0,431.41 C 308.89,431.41 319.4,410.21 319.4,410.21 Z M 298.15,168.69 C 296.32,175.62 280.37,167.12 270.04,179.93 C 259.71,192.74 264.16,208.69 273.04,207.78 C 273.04,207.78 266.36,201.08 271.04,195.78 C 277.18,188.85 289.28,196.78 283.59,207.84 C 278.1,218.53 254.95,213.54 256.14,187.41 C 256.53,178.79 261.37,166.06 274.57,157.09 C 287.49,148.31 303.0,147.0 305.0,152.22 C 307.0,157.44 293.58,158.22 291.05,160.06 C 291.0,160.06 300.0,161.76 298.15,168.69 Z M 297.29,109.43 C 297.290011173487,106.715147503806 298.925951340226,104.26781009713 301.434536650109,103.229819020026 C 303.943125104805,102.19182917436 306.829997142947,102.767745422104 308.748253404503,104.68886974086 C 310.666516759603,106.609997609771 311.238113453362,109.497726452883 310.196375658196,112.004758183683 C 309.154642820069,114.511792472987 306.704855268596,116.144056591466 303.99,116.14 C 302.211309117414,116.139996547002 300.505640777522,115.432734932151 299.248863176835,114.174078275929 C 297.992093248922,112.915423238797 297.287369310779,111.208683256061 297.29,109.43 Z M 333.29,167.28 C 330.85,174.07 322.69,173.94 315.22,184.81 C 307.75,195.68 304.08,191.2 304.08,191.2 C 304.08,191.2 312.08,180.87 309.38,171.2 C 306.68,161.53 312.77,162.1 315.49,164.81 C 315.49,164.81 317.66,159.65 313.04,151.9 C 308.42,144.15 315.76,141.9 319.3,145.9 C 319.3,145.9 320.11,135.9 313.86,130.09 C 307.61,124.28 328.13,128.78 329.76,144.0 C 329.76,144.0 334.65,138.29 337.23,143.19 C 339.81,148.09 331.66,153.34 330.71,159.4 C 330.72,159.44 335.75,160.49 333.3,167.28 L 333.29,167.28 Z M 322.48,106.9 C 322.480009809138,104.190102644501 324.112428883002,101.747037544464 326.616049359881,100.710005020843 C 329.119678826488,99.6729741902464 332.001461104414,100.246198653756 333.917646797769,102.162388711104 C 335.833818749995,104.078581719945 336.407052084564,106.960371341583 335.370013859113,109.463989456682 C 334.332987409315,111.967607372911 331.889906815938,113.600005773424 329.18,113.6 C 325.481976748346,113.594481242007 322.485535083815,110.598017465827 322.48,106.9 Z M 250.0,81.53 C 189.06,81.53 139.65,75.87 139.65,68.89 C 139.65,61.91 189.06,56.26 250.0,56.26 C 310.94,56.26 360.35,61.91 360.35,68.89 C 360.35,75.87 310.94,81.53 250.0,81.53 Z" cricut:graphicId="'8FACA205-DCEC-4EC4-91E0-875F67FAEEAC'" cricut:layerFillColorOriginal="'#000000'" cricut:layerGraphicId="'8FACA205-DCEC-4EC4-91E0-875F67FAEEAC'" cricut:layerImageDetails="[{'ImageSourceId':1348970249,'ImageSourceLayerPathIndex':[0,0],'ImageSourceName':'Magic chalice 3','ImageSourceHeightDefault':6.94,'ImageSourceSingleSetGroupId':15056516,'ImageSourceUuid':'88caed09-79c5-4511-8a35-d737782208aa'}]" cricut:layerName="'Path0'" cricut:layerNativeSize="{'Width':251.0265052326606,'Height':417.38}" cricut:nativeSize="{'Width':251.0265052326606,'Height':417.38}" />
        </g>
    </g>
</svg>