<svg xmlns="http://www.w3.org/2000/svg" viewBox="1302.3884818589395,679.1656872078199,1010.4421781512146,319.2820015001621" width="1010.4421781512146pt" height="319.2820015001621pt" xmlns:cricut="http://developer.cricut.com/schemas/svg/v1">
    <g cricut:canvasRootGraphic="true" cricut:graphicContainerSubtypeName="'GraphicGroup'" cricut:graphicId="'9D7E2026-BF8B-4D45-B05C-5B163DB64A6F'">
        <g cricut:graphicContainerSubtypeName="'GraphicGroup'" cricut:graphicId="'A40A062C-6734-44D6-9C3E-7584B66A94B3'" cricut:nativeSize="{'Width':1010.4421781512144,'Height':319.282001500162}">
            <path stroke="rgb(0,0,0)" stroke-width="1.0pt" fill="rgb(73,73,73)" fill-rule="evenodd" d="M 1994.5527865763836,776.2292385319149 L 1993.8763450424767,776.4910605564938 C 1992.4405746735174,777.0467867885307 1991.2925772370606,778.162566969861 1990.696217630239,779.5819412745133 C 1990.0998580234175,781.0013155791656 1990.1064320518926,782.6021966832175 1990.7144286884686,784.0166252912667 L 1991.9702978316354,786.9382482485628 C 1998.4443691795466,801.9882656483086 2009.1030943275134,815.0842387256811 2022.4298522777533,824.5510432975708 L 2066.0286721324,900.0481083698892 C 2054.254516765932,899.4118488884908 2042.4986947585398,898.6256121649358 2030.7661947804577,897.6871170007561 L 1992.0269737620172,830.5884170176081 C 1993.2828308793426,815.9775316500701 1992.1137420792984,800.3959878206101 1987.2703236010689,783.8826416170281 C 1982.2820227343989,766.875327557918 1973.3826870174307,748.8526189651552 1959.1241845360412,729.8874415785607 L 1952.9551540547307,721.6807255463774 C 1951.4489364364417,719.6769908730901 1948.8055668313038,718.9003605822086 1946.4548719238005,719.7709222436748 C 1944.104177016297,720.6414839051412 1942.6043050626627,722.9525316330738 1942.766552726991,725.4539951746825 L 1943.4311637436472,735.7006761760069 C 1943.666856620264,739.3258570877823 1943.6526430682572,742.890180008837 1943.420738698638,746.404754465241 L 1936.4039366833356,734.2516702877884 C 1936.4802824977764,722.2324548281296 1939.000549781467,710.1164209937131 1945.5818713163255,698.6134533818097 L 1948.7957994329622,692.9968106850082 C 1949.884753460182,691.0937607529089 1949.778665996173,688.7333876045392 1948.5233815458555,686.9356999602994 C 1947.2680970955378,685.1380123160596 1945.0887148640888,684.2253738121548 1942.927030381889,684.5921709180287 L 1936.5398427483462,685.675956252672 C 1928.973852007079,686.959873823271 1921.7802128450976,690.1757965232287 1915.0935823795792,695.1186318113072 C 1908.7001152232099,699.8447573593895 1902.7561652887098,706.1700324568612 1897.40414023342,713.8735651875415 C 1887.2327359347048,728.5139573984927 1879.1496710340311,748.2317754502158 1874.0070499514097,771.1387980116502 L 1842.2572676214204,826.130887813202 C 1836.387939999154,824.1234263791628 1829.9815867018049,822.2174050235415 1822.936336183134,820.4304812354117 L 1813.0790799722781,817.9302133063009 L 1871.9907415557116,715.8916912574282 C 1873.0034057766918,714.1376962475565 1873.0034021243441,711.9766883760028 1871.9907319744696,710.2226967891753 C 1870.9780618245952,708.4687052023478 1869.1065735013244,707.3882023209115 1867.0812371541692,707.3882023209115 L 1807.139128473266,707.3882023209114 C 1800.3389303192755,700.7720766810423 1792.7229900561956,694.9990122855513 1784.5294919539049,690.4816227426588 C 1770.9507738960308,682.9979010639129 1756.625693426737,679.2386235277404 1742.2590980057953,679.1667380678886 C 1727.9021709596545,679.0949009852302 1713.4923891730266,682.7060039870823 1699.7346246276963,690.0498601926989 L 1693.6646079826542,693.2891078431825 C 1691.6889758796383,694.3433984690807 1690.5191046162083,696.4618773043159 1690.679079037775,698.6954974857183 C 1690.7311093407234,699.4219632142475 1690.9206417271982,700.1163258001201 1691.2251760419608,700.7488364827126 C 1684.1042671113587,701.6431189969732 1677.2592279583237,703.8832443265716 1670.861927933928,707.3882023209115 L 1555.3730021400013,707.3882023209115 C 1553.3476628625835,707.3882023209115 1551.476172296066,708.4687083026016 1550.4635032187396,710.2227038922422 C 1549.450834141413,711.9766994818827 1549.4508351788907,714.1377108462747 1550.4635059403645,715.891705463572 L 1595.7883898847401,794.3965912493156 C 1582.6928102045963,790.0620947123631 1568.8516474728615,785.6951646499268 1554.4787010163534,781.5824183624413 L 1511.511588029127,707.1607618064386 C 1510.498921132413,705.4067610660281 1508.6274285690556,704.3262505080256 1506.6020859212401,704.3262494145802 C 1504.5767432734247,704.3262483211347 1502.7052495433727,705.4067568583673 1501.6925807527532,707.160756505336 L 1469.3308954951399,763.213026549574 C 1407.6412627228256,755.0623087902809 1352.8099556313753,760.5358433628085 1305.9284254685554,779.5333935159485 C 1304.5349256377956,780.0980739526004 1303.4228301605588,781.193209617111 1302.8368030524944,782.5778676985444 C 1302.25077594443,783.9625257799778 1302.2388249199369,785.5232742053132 1302.8035792367577,786.9167440957298 L 1305.104510008844,792.5940406746818 C 1305.669246304366,793.987466099502 1306.7643899362645,795.099478898554 1308.1490205894115,795.6854477137488 C 1309.5336512425586,796.2714165289434 1311.0943465468963,796.2833415766211 1312.487769616204,795.7185994691632 C 1354.9033341724362,778.5279444239587 1404.3366007326429,773.2191170211431 1459.8583715430836,779.6186521867467 L 1345.8366857433357,977.1092262552808 C 1344.824012568556,978.8632207277205 1344.824009800628,981.0242333808942 1345.8366784822042,982.7782304474887 C 1346.8493471637807,984.5322275140832 1348.7208385580086,985.6127346397028 1350.7461789166318,985.6127346397028 L 1435.0629336784489,985.6127346397028 C 1436.7906983064659,989.1079051242891 1439.4368723623636,992.061191026767 1442.6424006596847,994.250091151588 C 1446.5624065523575,996.9268734451467 1451.3122942740786,998.4482765138316 1456.1447671148865,998.447688537619 C 1458.1991006845067,998.4476885376113 1460.2690701145436,998.1744618323414 1462.2989855892454,997.602654560748 C 1466.081604469137,996.5363923744584 1469.5555082360136,994.5373581277374 1472.499252254646,991.8281072880424 C 1474.4408722079954,990.0411531725739 1476.1514864156893,987.9441845960391 1477.5634960881023,985.6127346397028 L 1662.4579868046694,985.6127346397028 C 1664.4833414694256,985.6127346397028 1666.3548438156035,984.5322123779495 1667.367507260639,982.7781957688095 C 1668.3801707056746,981.0241791596696 1668.3801450408419,978.8631494538962 1667.367439933969,977.1091568984492 L 1648.1518735733478,943.8280367416614 C 1648.555613675881,942.5100748580314 1648.870918211623,941.1387938552364 1649.0784804118732,939.7061718378361 C 1649.8761699459963,934.2109033345166 1648.8940368020922,928.4979155869927 1646.5597140621526,923.5720531834825 C 1644.152602840185,918.4925933185428 1640.3163938613918,914.2751257424017 1635.6562877505003,911.8403693243465 C 1633.3389674196549,910.6288828050851 1630.8715943405114,909.8745535830944 1628.3592713919838,909.5453188683634 L 1613.6990996239283,884.1517169268083 C 1615.2163260661025,876.3792065830739 1614.4381691646136,868.050057897529 1611.7172831860357,860.5999870533379 C 1608.6484233510448,852.1971273372168 1603.1185208804204,844.9475393871185 1595.8318888662754,840.6843828586624 C 1592.863205487699,838.9475414377753 1589.7134392094654,837.7607758629943 1586.5285193342029,837.0904256749154 L 1567.187900894546,803.5912491900291 C 1581.9215836432804,808.121907128467 1595.9694156588032,812.8054909636243 1609.007092365301,817.2887265048673 L 1706.3194051930104,985.8389916050394 C 1707.3320754263473,987.5929920118551 1709.2035714121776,988.6734999304333 1711.228915439395,988.6734965880709 C 1713.2542594666124,988.6734932457084 1715.125751886175,987.5929791501926 1716.1384163303615,985.8389754010298 L 1781.3601479788294,872.8704965578576 C 1792.1914036397511,875.7520948354716 1801.769032438624,878.2008397900782 1810.909678466369,880.423729160598 L 1755.0891325887883,977.1080502680045 C 1754.0764861213481,978.8620108337249 1754.0764671538082,981.0229725679415 1755.0890828308043,982.7769509101176 C 1756.1016985078002,984.5309292522937 1757.9731149152099,985.6114644193227 1759.998412554531,985.6115436774054 C 1876.4382467903288,985.6161004387594 1904.4278517753676,985.5515765545813 1911.1614509290807,985.5192031314871 C 1911.493737819802,985.5798773280558 1911.835918614138,985.6115436817463 1912.185196885252,985.6115436817463 L 2071.7092513354955,985.6115436817463 C 2073.7345886464554,985.6115436817463 2075.6060777075613,984.5310397805935 2076.618747504661,982.7770468771847 C 2077.63141730176,981.0230539737759 2077.63141941156,978.8620449533778 2076.6187530393204,977.1080500726268 L 2041.3316751575082,915.9888545922078 C 2053.0094758693995,916.8226056156758 2064.7080600692298,917.5106573440968 2076.423018706857,918.0490542264004 L 2115.5733718480988,985.8419280670489 C 2116.5861820992054,987.5957134628047 2118.4576491977973,988.6759944237159 2120.4828770382323,988.6758784947037 C 2122.508104878668,988.6757625656916 2124.379448289128,987.5952673571207 2125.3920577516374,985.8413660213694 L 2163.7834871378345,919.3450693000211 C 2211.8584467658516,918.5645068832956 2259.9907887505583,915.3399091029332 2307.830256624214,909.6579342623332 C 2309.3233789127307,909.4805935924977 2310.6848848477043,908.7173358015058 2311.615220025253,907.5360905521785 C 2312.5455552028016,906.3548453028512 2312.9685004818934,904.8523879299541 2312.791000725787,903.3592845449788 L 2312.0680892461514,897.2782532187508 C 2311.69851914981,894.1694807114714 2308.8789325629787,891.9488028852312 2305.7701200749716,892.3180365138973 C 2261.9979840911183,897.5168526747718 2217.978935412552,900.6317484564103 2173.985298433289,901.6751805457008 L 2204.8274553498636,848.2544825952623 C 2205.357348620893,847.9713446502961 2205.887074953969,847.679970784003 2206.4165378745297,847.3779010710999 C 2221.237985469954,838.9276668732666 2233.051815217365,825.7489957502004 2239.6904274507106,810.2816789330535 L 2240.944441001259,807.3604108993445 C 2241.5520101229895,805.9450575701845 2241.557522045397,804.3434122972052 2240.959708829283,802.9239107499412 C 2240.3618956131695,801.5044092026773 2239.2122250027887,800.3892610289478 2237.7751623377676,799.834990173817 L 2234.8113547003177,798.6918582606178 C 2234.4368856810624,798.5473494851418 2234.0611222560447,798.4068467303488 2233.684178495075,798.2700624975622 L 2281.245566749624,715.8917124071301 C 2282.2582407079108,714.1377179817206 2282.25824403765,711.9767049101296 2281.2455754845582,710.2227073640254 C 2280.232906931467,708.4687098179211 2278.3614152685136,707.3882023209115 2276.3360745588648,707.3882023209115 L 2191.7062301904834,707.3882023209117 C 2191.268512203747,705.6218569059455 2190.7873075336524,703.8661153558982 2190.25793329316,702.1238826918755 L 2189.3351579168093,699.0840820004896 C 2188.88776223408,697.6102740288667 2187.859947887474,696.3819465877036 2186.4881404124976,695.6816487326862 C 2185.116332937521,694.9813508776687 2183.5186310941217,694.8693711768216 2182.062550197835,695.3714680376099 L 2179.0575703554177,696.4076679871563 C 2171.0033092949543,699.1853237945463 2163.300350771299,702.8883190911043 2156.1016102408475,707.3882023209114 L 1964.6254576287838,707.3882023209115 C 1962.6001072405215,707.3882023209115 1960.7286081681755,708.4687200580505 1959.7159431577722,710.2227308253891 C 1958.7032781473692,711.9767415927276 1958.7032969676561,714.1377662010351 1959.7159925291412,715.89175932958 L 1994.5527865763836,776.2292385319149 Z M 1464.3558376643332,971.6904185062162 C 1464.052042420054,973.947416821721 1463.137871526811,976.0526548993498 1461.8210847378464,977.7249598106572 C 1460.6718082962852,979.1845284012442 1459.219469875412,980.3297068361769 1457.5670488699134,980.7964987900787 C 1456.8733631224634,980.9911584358035 1456.1526658845057,981.0268255970154 1455.4491366695584,980.9436513018226 C 1454.6746778996269,980.852091404982 1453.9191904261565,980.6167810166623 1453.2283595080494,980.2667669796119 C 1452.5623349336752,979.929321240081 1451.9547391862345,979.4850081228783 1451.4604673300585,978.9444076577128 C 1451.048205385434,978.4935039773803 1450.714408079652,977.9747764973486 1450.5213213034829,977.3928465479305 C 1450.3497127810342,976.874819211614 1450.351891093624,976.296237703451 1450.4493543875287,975.7225692067481 C 1450.5737918857658,974.9901306682282 1450.8670695624905,974.2632352623839 1451.3078958608987,973.6175905562284 C 1451.5926310396176,973.201793131172 1451.9145759760686,972.8495813332987 1452.2866864456787,972.6151038504044 C 1452.4143537319385,972.5346570305082 1452.5401427851536,972.4548673604946 1452.6803931756308,972.4477543307681 C 1454.1824554626946,972.3715747660439 1455.5926848438405,971.7016358034675 1456.6006631599944,970.5854036795503 C 1457.6086414761483,969.469171555633 1458.1317460191258,967.9981424063158 1458.0548315853132,966.4961175695795 L 1457.7416096427362,960.3793575046544 C 1457.6647152838539,958.8777247015362 1456.9944146681098,957.4681502276329 1455.8781822765409,956.4607580171005 C 1454.7619498849722,955.4533658065682 1453.2912326881903,954.9306861340759 1451.7896067806416,955.0077150351918 C 1448.8266364022434,955.1597065206474 1445.952110865254,956.0531432910411 1443.3529269257663,957.6097606349823 C 1440.8911156017502,959.0841073121279 1438.6727844375407,961.1593510410589 1436.89290796441,963.7620217933069 C 1435.9488019502912,965.1422452304337 1435.1685192306068,966.6200469212347 1434.5577684893553,968.1532107429515 L 1371.1755048390294,968.1532107429514 L 1383.6444275371477,946.5567790407035 C 1385.2065875181192,946.0411431876645 1386.7585266869576,945.5573619741564 1388.2789522988721,945.1172025497677 C 1403.133231329351,940.8247621477883 1425.1479323037397,937.5063957385006 1445.653039657477,946.8315603457436 C 1451.7842988282207,949.6198111463902 1456.5999602257018,953.0989375852186 1459.876988277089,957.2944012972256 C 1461.6363902120377,959.5467206973503 1462.9344096544999,962.0228482096584 1463.7001412658642,964.5586070240673 C 1464.419117102391,966.9395317341904 1464.668463718163,969.3699549086512 1464.3558376643332,971.6904185062162 Z M 1582.7495032595214,968.1520197849952 L 1481.9121537957583,968.1520197849951 C 1481.781442719382,965.3359680818364 1481.2971335484058,962.4995136273233 1480.4717384401722,959.709231548618 C 1479.1046812862521,955.087838667686 1476.8009015794512,950.5912991042494 1473.639309912232,946.5434237389397 C 1468.7401685390423,940.2700468988493 1461.7831502988233,934.9830093338746 1452.8834600843093,930.9358522523917 C 1433.1629210370688,921.965993763391 1412.4924496236174,922.3141911430008 1395.8642409339645,925.3943905700871 L 1396.6941015241077,923.9570428940708 C 1424.4508185804946,918.2191799306054 1453.2469602702936,919.8542737259237 1480.303797821408,928.7908462556857 C 1493.5179247589522,933.1545430469789 1506.5307735853476,939.3078486579313 1519.119294443345,945.2464713600667 C 1527.504627857113,949.2019991955266 1536.1628253776103,953.2836517876865 1544.870113385887,956.8735581649275 C 1558.6533354867292,962.5544087099136 1571.158265182761,966.2819696499378 1582.7495032595214,968.1520197849952 Z M 1606.7223671076588,918.4318089655717 C 1606.513658231926,918.6797756259537 1606.3586768099362,918.891727466278 1606.1669130456946,919.1715308706496 C 1603.8699305557348,922.4283088185571 1602.3972910203224,926.203694550946 1601.8307237614958,930.109774126155 C 1601.2622173755121,934.0292226083465 1601.606070170009,938.0768273292435 1602.9158595735964,941.8605777769014 C 1603.4077433297687,943.2815431454673 1604.444019534682,944.4488716737299 1605.7966685057393,945.1057072462647 C 1607.1493174767963,945.7625428187997 1608.7075098383536,945.8550675730553 1610.1283847527086,945.3629225883137 L 1615.9152494636648,943.3585403474124 C 1618.8730082076518,942.3340686523867 1620.440709370471,939.1062647751846 1619.4172342337383,936.1481610437326 C 1619.0309350501373,935.0316580477585 1618.952197600526,933.8112081795664 1619.1215214525128,932.6287392562785 C 1619.288697542872,931.4612691730794 1619.6990171630132,930.3242274005138 1620.352646998901,929.3556187612162 C 1621.2765942941046,928.1514033881904 1622.542843751624,927.3300131550084 1623.9010076889067,926.9781637120091 C 1624.541763651058,926.8121678243309 1625.2027194701814,926.7515578883159 1625.8526111240121,926.8155077300706 C 1626.445474029848,926.8738458988823 1627.02893141985,927.0372450561455 1627.5729646598597,927.3215765796683 C 1629.004960019206,928.0694538190862 1630.094637902946,929.5165038986344 1630.845616937366,931.1533038890976 C 1631.6968265253543,933.008561867874 1632.0959929212202,935.1584253342303 1631.7995296631711,937.201880959867 C 1631.5501762143494,938.9194571728684 1630.917757592853,940.4461528347551 1630.0207405892957,941.7940695121719 C 1629.025192851517,943.2900449436241 1627.7145584955126,944.5706722695934 1626.2365906709936,945.6729627375812 C 1622.880316460032,948.1761221496614 1618.6813684547058,949.7678691821476 1614.743674643471,950.5962803048162 C 1596.7730286502585,954.3803486819459 1576.7037889555672,951.1091584137604 1551.5225230621227,940.729215585099 C 1543.1080268694234,937.2592906347232 1534.703823490436,933.2917294712805 1526.5314881166194,929.4361893122407 C 1513.3761790766116,923.2314462200534 1499.768615255932,916.8289611547035 1485.7785634178704,912.2091254889108 C 1460.59360880551,903.8941843335206 1434.0461954183763,901.2877371724767 1407.9625668067588,904.436617790471 L 1411.7434341505705,897.8880017204045 C 1419.7686660173079,897.6017037153703 1428.3502707041669,898.1334510201466 1437.3827616441858,899.539136217044 C 1451.6254854307647,901.7548533918431 1465.9038926845296,905.7262692413332 1479.7170775523878,909.5553197815352 C 1487.09456215189,911.6003978607201 1494.6195646003846,913.6854723791541 1502.1855324006497,915.5398472600489 C 1515.4923794871365,918.7960388742998 1531.6739573410946,922.0334274823894 1548.641707769783,922.0322531704489 C 1556.549050078891,922.0322531704314 1564.624863394832,921.3337615992334 1572.6649551331452,919.6268258204003 C 1578.7915218689955,918.3266405392674 1585.8496026228713,916.093611930109 1592.3937743748893,912.3438747761 C 1596.7166984540193,909.8668876725027 1600.8094560307504,906.7371862812386 1604.306139230015,902.8081411977402 L 1610.93753104807,914.294923538941 C 1609.3883105099264,915.4814824952731 1607.961356926842,916.8706426264828 1606.7223671076588,918.4318089655717 Z M 1567.663323239026,839.3413739518301 C 1564.8775614231927,840.7315712166724 1562.3447433198785,842.6089458351187 1560.2004119069786,844.9515375748105 C 1557.6470807684364,847.7388074834251 1555.731110838611,851.2795363191817 1554.6293115512974,855.1833665637732 C 1553.5671279905928,858.9468327025996 1553.2610643855419,863.0451547517756 1553.8275504489027,867.0717193880007 C 1554.3251172104854,870.6124129479313 1555.4764534382837,873.8465297969747 1557.131085652901,876.5978524737575 C 1558.8986883615576,879.5370225037534 1561.2426508185408,881.9351576254749 1564.0040559084593,883.627102591469 C 1566.6733007887308,885.2625799267825 1570.1629427589914,884.4249370772338 1571.7989774426214,881.7560337707915 L 1575.000272429872,876.5336831312478 C 1575.7863102943638,875.2514003798354 1576.030572203139,873.7093146800343 1575.6792890643887,872.2468835755325 C 1575.3280059256385,870.7844524710307 1574.4099734181952,869.5215556023642 1573.1272769774164,868.7361929983412 C 1572.6753931434641,868.4595159504706 1572.3277919824707,868.0147617774561 1572.0340014576932,867.5014675247634 C 1571.5700623579473,866.6908992680807 1571.2715072593983,865.7133085910899 1571.1206030979529,864.6399419835985 C 1570.901966967605,863.0855508087163 1571.0163814002804,861.4857341164251 1571.4118614444556,860.0263977920039 C 1571.7534535267698,858.7659100854914 1572.292905991681,857.603195548598 1573.0787524954833,856.745626259834 C 1573.9184907894078,855.8290130286365 1574.8921351455049,855.1582113085062 1575.938508276624,854.7020116191175 C 1577.0598640862802,854.2131208431164 1578.2615174837845,853.9653922234567 1579.4720427275506,853.901406225454 C 1582.130020863177,853.7609106971261 1584.8367561849047,854.485573470873 1587.0151145402117,855.7598501490063 C 1589.1409000346273,857.0033145813853 1590.9478783853274,858.8114628271285 1592.4240154381514,860.9380759885422 C 1594.026300108832,863.2464251099774 1595.235796417652,865.9297334415073 1596.0131083735278,868.7604475262367 C 1597.552187730342,874.3652675472317 1597.434156286737,880.5784666110035 1594.9946897411376,885.6604926760028 C 1592.5047495162385,890.8476161768074 1588.4117722560934,894.4791094321729 1583.922696039362,897.084979039944 C 1579.0431205990596,899.9175300426024 1573.673429679875,901.5623323423133 1569.0415875226126,902.545327206546 C 1546.744937900938,907.2752623398792 1523.821189402469,902.855641423093 1506.3356311956004,898.576712017669 C 1499.0170183182402,896.786063033625 1491.5946220987512,894.7274404411003 1484.415477452472,892.7370420847434 C 1470.007960174884,888.7421371623484 1455.1069287163527,884.6242495040095 1440.070158443662,882.282269284448 C 1433.7893588608067,881.3050641506496 1427.6903290027897,880.7067626379965 1421.8023165867564,880.4659275462186 L 1478.5441364317808,782.1861734682112 C 1487.7648365089785,783.6371668861619 1497.127928893505,785.3681058976543 1506.6639268465535,787.4456022470375 C 1518.9753259514623,790.1272601311451 1531.0941601793288,793.2069002562573 1542.9223208204244,796.4846125898667 L 1567.663323239026,839.3413739518301 Z M 1506.6043950529042,733.583353069007 L 1530.6100035371148,775.1624376147316 C 1523.9367274705796,773.4738124832835 1517.1901939016466,771.8693294542027 1510.3788318876934,770.3852090375083 C 1502.783408282558,768.7305860505263 1495.2876848397948,767.2785703486484 1487.8827281344247,766.0094280929186 L 1506.6043950529042,733.583353069007 Z M 1650.4145334457812,724.8536810074457 L 1649.9719204598373,725.3607521952262 C 1648.741297260105,726.770592365793 1648.2857321679094,728.6969256746518 1648.7544755271772,730.5086548015925 C 1649.223218886445,732.3203839285333 1650.5558704298624,733.7840571959919 1652.3158323921534,734.4201520454851 L 1656.5284299725029,735.9426913565102 C 1663.4913270016832,738.4572357529873 1669.7583312312547,742.2223820113801 1674.5017744732677,746.4532284427999 C 1675.7588497475222,747.5744587741758 1676.9127779929922,748.7196560471614 1677.9331947150354,749.8765589020552 C 1669.3786899966294,749.4247182122537 1660.0530235897393,750.2114721580291 1650.1045955715597,752.3266365462035 L 1642.8019660834957,753.878385767167 C 1640.5523471596564,754.3564114452105 1638.814455176528,756.1462051218471 1638.4028179027707,758.4089133677812 C 1637.9911806290133,760.6716216137154 1638.9873787824497,762.9588074804607 1640.9245070162924,764.1984961740505 L 1647.2140163503757,768.2235436777999 C 1654.4606091989326,772.8584124665443 1659.617331819983,780.3162356826235 1662.1674123828277,788.560988921411 C 1664.7175852801527,796.8060406899847 1664.671986463172,805.8738246244034 1661.3085884284912,813.7918305832789 C 1659.5539263355718,817.9219618772546 1656.8833534350713,821.7146120623244 1653.5474333844368,824.9625697875396 C 1650.1475019725444,828.2728510073614 1646.0562081221553,831.0171298853902 1641.5106482964745,832.9748707996384 C 1640.625935895794,833.3557866928346 1639.7302849770272,833.7028455290341 1638.826113141739,834.0163026811961 L 1575.8010511023074,724.8536810074457 L 1650.4145334457812,724.8536810074457 Z M 1615.954513232237,968.1520197849951 C 1616.754138736007,968.0070224119843 1617.5505226264618,967.8510246392455 1618.3438387435535,967.6840581848883 C 1624.7187276072045,966.3428955267817 1631.4483428262768,963.5949933310021 1636.9784061101702,959.393590430585 L 1642.03428725831,968.1520197849951 L 1615.954513232237,968.1520197849951 Z M 1670.8550389392065,767.2317560917343 C 1677.3445795088942,767.0242021776792 1683.328268155805,767.6241616491204 1688.7093970822646,769.041708169895 C 1696.4358584243453,771.0770837468556 1702.8697004539586,774.8076932784452 1707.6290138892946,780.2657308992985 C 1712.482201447715,785.8316793784477 1715.3960284665227,793.0428746539585 1716.3900020332292,800.9981672072324 C 1717.4111021912076,809.1705681190911 1716.4076265621993,818.1146606405752 1713.3469158793137,826.9894939910124 C 1706.2082727385364,839.606407571423 1697.6305833893123,851.0639421577943 1688.3231561905793,860.2221645928271 C 1680.5571656306013,867.8636607289723 1672.3060163555092,873.9041130655011 1663.9678676468375,877.5593013898184 L 1647.668882496772,849.3284437058895 C 1647.9194438659392,849.2251274441 1648.169403378814,849.1198321504718 1648.4201519029186,849.0119114615306 C 1654.9786006669885,846.1870792517519 1660.8847891467974,842.202931363681 1665.8044518874362,837.3938098460387 C 1670.780000863162,832.5300578161301 1674.746271158975,826.8227065161825 1677.3819491636166,820.6188699547462 C 1681.82294371008,810.1655544555747 1682.4578105976434,798.3608958319415 1679.8404628649503,787.2761984467174 C 1678.145083609415,780.0961184878896 1675.086394118835,773.2273051037105 1670.8550389392065,767.2317560917343 Z M 1672.727887200591,892.7334480985946 C 1691.3510541382175,883.8234213513731 1709.6541417923415,865.543402176475 1723.8357054575895,843.0943611222921 C 1739.3769313546259,818.4930106344158 1749.9937716270608,788.9678941717345 1750.9947254314397,761.936590864317 C 1751.4927565200292,748.4821479443356 1749.5244483802073,736.5158958451763 1745.4314614454727,726.205500466934 C 1745.255798521848,725.733715795708 1745.0799621043427,725.359425966226 1744.9363849115116,725.0833863334141 C 1741.897107430788,717.879037812153 1737.7669906775836,711.5130898221871 1732.6049503933607,706.067836504508 C 1730.1430522676892,703.4708674383094 1727.4458863948907,701.0827514353862 1724.5170667501243,698.9151013854214 C 1731.3028281780716,697.1356340456246 1738.1755545449705,696.4055153317322 1745.019584181271,696.7319995184981 C 1755.5976924107576,697.2366123338063 1766.0996479141609,700.2642836994057 1776.1043229542317,705.7789669653247 C 1788.397090092962,712.5543754170225 1799.156975771636,722.6548436396505 1807.1344863892753,734.1880414989762 C 1814.6537655970765,745.0587678470486 1819.7142853644814,757.2078093739611 1821.1303348219428,769.0725282235942 L 1711.2312907175187,959.4234360579837 L 1672.727887200591,892.7334480985946 Z M 1730.2178707268708,784.6924795780292 C 1727.988164028987,778.799198861985 1724.8317773329334,773.423892608233 1720.7906243564332,768.7899471169959 C 1715.141013808347,762.3107986121212 1707.9859333203053,757.4361107889221 1699.5725188206306,754.2324245619179 C 1698.2980753707106,748.4470583633918 1694.9691125640895,742.4941547477611 1689.8899473741265,737.0317987453066 C 1685.9093536535634,732.7508944648515 1680.8491837494068,728.7428273096001 1674.99579725939,725.3461743179447 C 1679.5390720105847,722.1437073227999 1684.082052499149,720.2036799596028 1688.3157593273515,719.0976211690787 C 1694.4309835735705,717.50001467245 1699.878782906508,717.629870244149 1703.7510079940812,718.1241917673331 C 1709.5470584382058,718.8755364099019 1715.1650202328904,720.8989197509242 1719.8369776680215,723.7355304890668 C 1724.0972773562096,726.3222004258148 1727.5871100949832,729.5582910253917 1729.4771578674772,733.1853818204941 C 1733.0597692965518,742.4974699067471 1733.8708180798685,752.4884049905195 1733.545341759337,761.2897525525552 C 1733.261830162921,768.9429980711889 1732.1027459766794,776.8133835463277 1730.2178707268708,784.6924795780292 Z M 1829.566671808729,883.0394300089652 C 1829.7698396678586,886.014608229563 1829.9419009277563,889.0233929247847 1830.1147095885462,892.0556141412974 C 1831.110455678897,909.527390712303 1832.2651650517491,927.2268249230304 1839.0855604687417,942.4108670964229 C 1842.6915932943732,950.4388700427929 1847.838081798866,957.7901562747256 1855.273402654745,964.106946004448 C 1856.9213953060994,965.507023184238 1858.6837064016145,966.8571459549466 1860.5696139621434,968.152019784995 L 1780.4277858808925,968.1520197849951 L 1829.566671808729,883.0394300089652 Z M 1807.5921069331055,827.4339788493289 L 1814.359079174677,834.800424107201 C 1819.8807670019128,840.8121445779614 1823.2416906459405,847.7547442990651 1825.4234825529213,855.2841547760607 L 1820.0133375001983,864.655074057663 C 1810.7550369242476,862.4497561966577 1801.1891865377447,860.0414509642637 1790.4055945188304,857.2020464745067 L 1807.5921069331055,827.4339788493289 Z M 1833.615715643938,747.4432594121445 C 1830.7213908670005,739.6566380263345 1826.7316239012239,732.0233224751129 1821.8396924039175,724.852490049489 L 1846.6581021474683,724.852490049489 L 1833.615715643938,747.4432594121445 Z M 1901.6747421279376,965.4621612855516 C 1890.5223247962501,963.363119895915 1881.6867154760725,960.2615924565121 1874.6861077295575,956.2903908593278 C 1866.703808449772,951.7623097559599 1861.209709063615,946.1178810292514 1857.406181963032,939.6570589225751 C 1849.3041738528136,925.8946663530727 1848.5530736416194,908.694542398194 1847.548727583814,891.0616846001795 C 1846.6291682247336,874.9193778102592 1845.5352841798926,858.4474518621948 1839.9224157112885,843.7795622665834 C 1861.8134616862112,851.6692230015144 1874.2574517628398,861.0620483180699 1881.4522354409676,872.1373837689198 C 1889.9683309654818,885.2467781372211 1891.1234188795556,900.4444536471102 1892.657786281049,917.2802957402881 C 1894.0649931011963,932.7216022810907 1895.5754212294116,948.6604968733587 1901.6747421279376,965.4621612855516 Z M 1868.0353296087433,816.410990346752 C 1867.7045762039463,823.2214477031794 1867.605896064067,830.1683336576426 1867.7541170568725,837.2175718593959 C 1864.9360347183872,835.6437620435711 1861.9137887039305,834.111892217664 1858.6742333532593,832.6244684081213 L 1868.0353296087433,816.410990346752 Z M 1890.8238451633383,774.3884164409812 C 1895.0800117388685,755.5208182483466 1901.4401664045874,739.7136724133292 1909.0911899266066,727.6676469646039 C 1912.945194805983,721.5997737287071 1917.100483272664,716.5026555623035 1921.4673178402368,712.5148935330499 C 1919.5118691212751,720.6529992583376 1918.7768922236476,728.8529974372628 1918.9450859209226,737.0962893652752 L 1918.9552580001703,737.5788030411928 C 1919.4366343765423,756.2300779467353 1924.675480515694,774.4476063238328 1930.584018393491,790.4103348558269 C 1926.4288067138984,799.2801915722009 1921.6631263259394,808.1231804559279 1916.7997053085742,817.1293945372196 C 1909.0712196423644,831.440803829626 1901.2071560633083,846.0898194590256 1895.441166176915,861.5129280595552 C 1892.7952133163928,857.6118423867366 1889.623962605951,853.8462309883363 1885.8009449825572,850.2310538746385 C 1883.9674770616916,823.4078187014222 1885.6883805841944,799.2263995604382 1889.9320880804512,778.4855107806196 L 1890.1373357443445,778.1300188735524 C 1890.793136308158,776.9941628610482 1891.0318856901483,775.6716371415342 1890.8238451633383,774.3884164409812 Z M 1909.825591416847,913.2601125530832 C 1908.9820721756425,904.1460750679241 1908.055520988069,895.3399707646562 1906.1177133490633,886.9406650723367 C 1910.6294202466158,865.1677581310056 1921.6016085324761,844.9899689845683 1932.1663003086983,825.4262323128368 C 1943.1953129158915,805.0031984118702 1954.3745382650736,784.0349954179395 1958.9306743919844,761.5138375559064 C 1971.1166239019828,783.6386060466458 1975.4049784761507,804.1252542893209 1974.8807324048776,822.8989632584469 C 1974.3813829965675,840.7811010162842 1969.5529477772768,857.0863459700216 1963.1905582353127,871.7388179397306 C 1959.1242777432274,863.5084648229036 1953.7253818563809,855.0463051268911 1946.9707220232997,846.3886060248286 L 1940.337172541159,837.8852768861417 C 1938.7781890195927,835.8868671295917 1936.0821099414586,835.1661153766134 1933.7338805913082,836.1199969702515 C 1931.3856512411576,837.0738785638894 1929.9559252266904,839.4705865161706 1930.2321664322567,841.9900630435343 L 1931.407697426436,852.7115724687856 C 1933.1389811886727,868.4887888747448 1927.08237631613,879.1459674098186 1920.3596005701665,891.5681532094154 C 1916.7522884180742,898.2336438649604 1913.005441662353,905.2159589324432 1909.825591416847,913.2601125530832 Z M 1919.2417860262692,960.9190730614941 C 1918.5415721141653,931.5262432506239 1927.621600880901,914.8387353586685 1935.7166278718064,899.8820327770862 C 1939.794259910008,892.34658158316 1943.6972331601517,885.0055160734421 1946.2392202149263,876.9064566150055 C 1948.9204439478394,881.9579567131626 1951.008280757001,886.8911218928366 1952.490169409854,891.7024109539167 C 1955.0260383398056,899.9356870637823 1955.7690272324473,907.7778664294839 1954.620341543148,915.1903023976305 C 1952.7567248387,927.2173322431594 1946.3042606099893,936.9014786557582 1938.614018906457,944.859613969876 C 1932.4845235288535,951.2026335397061 1925.5497596859286,956.4716290291235 1919.2417860262692,960.9190730614941 Z M 1957.7578043584695,949.3249839802812 C 1964.6158687053144,940.5091363220022 1969.9502866394503,930.12330421896 1971.877006732932,917.8641831120831 C 1973.013522743599,910.5335950895468 1972.8115974862071,902.923376294941 1971.2908588105863,895.0670838706346 C 1971.8637560049165,893.9834294416713 1972.4331290177925,892.8899243504255 1972.9979022432822,891.7865721084374 C 1974.9926233464882,898.9824843036051 1976.1484606737704,905.4288492799227 1976.4531728518061,911.2896505012416 C 1976.900332126977,919.8902638503329 1975.4754413122591,927.1321852885071 1972.1094897842702,933.5735935087129 C 1969.0296084290605,939.4687515163897 1964.2375293775763,944.6813557345823 1957.7578043584695,949.3249839802812 Z M 1960.7021522405562,968.1520197849977 C 1963.2756178968425,966.6524664442861 1965.6899047124632,965.0942517501103 1967.9469927666175,963.4775317139766 C 1976.8108919304316,957.1284469496355 1983.306463451385,949.8517441094734 1987.5869658078059,941.6596016305746 C 1993.804542188252,929.7598277032394 1994.9899581153768,916.6545813785074 1993.2653200802042,903.3561302485036 C 1991.7257824595913,891.484963433798 1987.8563528397856,879.4557919062881 1983.4566735957867,868.1140586268458 C 1984.7849637668214,864.4802970590417 1986.0052660356216,860.763749382826 1987.0911574127017,856.9659890278708 L 2051.2847510809875,968.1520197849952 L 1960.7021522405562,968.1520197849977 Z M 1985.053518118098,724.8512990915326 L 2134.5340549005787,724.8512990915324 C 2129.9306363706946,729.6043732802327 2125.7388086710657,734.7626170021908 2122.0365279055363,740.2736456996023 C 2113.378955150106,753.1605000920679 2108.411575953608,766.3338644313652 2107.162466069383,779.3865757455026 C 2106.427818609499,787.0502506207673 2107.072193507872,794.6398761478781 2108.953111540198,801.6875942359603 C 2110.6298171214266,807.970137148581 2113.28946345478,813.8229331073379 2116.8224633758578,818.9332716794463 C 2115.575011436314,825.930729298432 2114.617309319194,833.1521907042788 2113.8979846258294,840.5396398666337 C 2109.5105965263574,830.1477334951444 2103.930547490683,821.3386275185543 2096.8270478930754,814.3185040851026 C 2095.0090052489954,805.1402676073233 2090.126676729228,796.1761791096826 2082.828575008899,789.0405373210524 C 2075.35640296453,781.7360018321134 2065.5761578466727,776.2631042287748 2053.7017247751774,772.873750958457 C 2040.0121884698804,768.9685528804669 2025.561364111993,768.4402137333833 2011.7703127450363,771.126041269446 L 1985.053518118098,724.8512990915326 Z M 2065.5383942368426,797.3195829068939 C 2063.8605080025063,796.9168776469523 2062.1373046496883,796.5610013203874 2060.367210477649,796.2531783369192 C 2057.283026066025,795.7168323830435 2054.347893796036,797.7819171615424 2053.810949687771,800.8659974931398 L 2052.7605247700794,806.8993905011052 C 2052.5026042336885,808.3808252373378 2052.8438287028453,809.9040396145954 2053.7091135280275,811.1338583216076 C 2054.57439835321,812.3636770286198 2055.8928437966106,813.1993311378134 2057.3743328737237,813.4569393581862 C 2063.898962588487,814.5914723597305 2069.598387748315,816.5412743309494 2074.584576168266,819.2752826474882 C 2070.767508686447,820.7143658903187 2066.522478137564,821.4300796212593 2062.183654141223,821.3414942561358 C 2054.5021041103796,821.1760775328725 2046.5514939011935,818.7115750052275 2038.5155814272387,814.137516927659 C 2027.8392584839798,808.0608562038227 2018.838901710334,799.2323358032437 2012.4976770622684,788.7507889618997 C 2024.3808097191727,785.9812178713945 2037.0082110583392,786.2687674997253 2048.908265423043,789.664791149878 C 2055.2913197816697,791.4861057212656 2060.867391487258,794.0376947188389 2065.5383942368426,797.3195829068939 Z M 2049.9594467364423,837.3037006567333 C 2053.941319817991,838.2161155705328 2057.8980333568115,838.7157639794689 2061.8132786987303,838.799682693543 C 2062.1893729829067,838.8076846995891 2062.5641336171207,838.8116840394584 2062.940227901297,838.8116840394584 C 2072.4428727097343,838.8116840394584 2081.5352770591903,836.1907704698414 2088.949563726718,831.5225233109377 C 2101.2634835622866,847.0566472109001 2106.540020457882,871.093833034116 2109.680756923095,901.7137403427041 C 2102.030260336434,901.5401171382338 2094.384750839666,901.3008507660543 2086.7450689964417,901.0014306388449 L 2049.9594467364423,837.3037006567333 Z M 2143.510251962958,919.5341236146862 L 2120.480511204277,959.4216045949418 L 2097.048310996449,918.845438165217 C 2111.6341347493008,919.303710666319 2126.2395176979785,919.540769125312 2140.8574612516973,919.5407691253121 C 2141.7416753626558,919.5407691253121 2142.6259426737606,919.538331369266 2143.510251962958,919.5341236146862 Z M 2171.616049776296,768.1971516295199 C 2167.3344478392805,779.8041496154653 2161.2954318452803,789.1827904135853 2153.5620949902086,796.0037772144908 C 2148.815657149679,800.1889909449369 2143.3989373529253,803.2971676457732 2137.7918622951,805.1287642929037 C 2141.0585134738953,793.3426567792517 2145.514186090315,782.5976996004165 2151.63608499076,773.3937475814773 C 2152.468827514877,772.141763130126 2152.770067213671,770.6102324507625 2152.4735245776947,769.1361267412065 C 2152.1769819417177,767.6620210316504 2151.306952361173,766.3661120429717 2150.0548619131505,765.5335289012561 L 2144.9539889851767,762.141680640955 C 2142.3468722187486,760.4080666902689 2138.828015712496,761.11617069665 2137.094387898608,763.7232782446272 C 2131.951483657386,771.4574091569298 2127.805916598237,780.0807681770807 2124.479264942338,789.3910715512629 C 2124.2572128111406,786.6585271422318 2124.2759878783645,783.8638244609061 2124.5453051882455,781.0525875642813 C 2125.5322932271833,770.7542856661706 2129.60500457012,760.3263244115776 2136.53240897188,750.0115353852988 C 2146.2835968546983,735.4958099053376 2160.0263519173955,723.8381219183475 2175.8571747786145,716.5031240271566 C 2179.162051685427,733.5500074872916 2177.734462312325,751.5423915199405 2171.616049776296,768.1971516295199 Z M 2154.20624432781,816.8539200328834 C 2152.6315769599105,819.0611263938583 2151.2760609799734,821.380832326618 2150.157474200087,823.7710286266152 C 2148.326654126949,827.6831250713989 2147.1302528813867,831.7847190335553 2146.631533098589,835.8985260952525 C 2140.9260512037326,839.9666384709371 2135.522621715684,845.0773946928764 2130.8253886078164,851.5808710388568 C 2130.697962654362,851.7572965334242 2130.5710503156156,851.934755549929 2130.4446603929164,852.1132745917931 C 2131.101287382827,842.4106798602371 2132.130870847206,832.9689872552135 2133.659541510289,823.9317506673426 C 2140.6803790464055,822.9293789319893 2147.683840811284,820.5247850365224 2154.20624432781,816.8539200328834 Z M 2153.6368189389746,901.9937749262563 C 2146.5713643295353,902.0596404094762 2139.5073195845634,902.074281292646 2132.4462890596533,902.0331755361946 C 2133.204822595307,890.0223672214721 2135.465073609662,879.7957835461345 2139.4394059494725,871.2014460040078 C 2143.357517573118,862.7286835518322 2148.958686333994,855.8986527763299 2156.368376498339,850.5338187916517 C 2162.5189681464926,853.8833564822295 2169.759258803023,855.7459152238761 2177.2888651430635,855.7459152238761 C 2177.6334316004454,855.7459152238761 2177.9793550691625,855.74184655218 2178.325282589645,855.7337056200246 C 2179.0145698567485,855.718431886971 2179.7052920253873,855.6883590096307 2180.39732784007,855.6435844299313 L 2153.6368189389746,901.9937749262563 Z M 2182.9044023781003,837.7899027195307 C 2183.1474137211376,837.5067599980536 2183.363587599749,837.1983020589705 2183.5486165880798,836.8679244266071 C 2184.2833017950784,835.5561107404902 2184.4667714832995,834.0061702523868 2184.058663285149,832.5590817274275 L 2182.3960859777826,826.6638398424238 C 2181.987954198824,825.2166677035658 2181.021612379928,823.990918338514 2179.709673410953,823.2562790459564 C 2178.397734441979,822.5216397533986 2176.8476816697585,822.3382973954875 2175.4005550792044,822.7465906472003 C 2173.8750742519474,823.1769908149889 2172.3196124410697,823.6430907121982 2170.742824495231,824.1519413510526 C 2171.046383099161,823.826362570808 2171.3586265418135,823.5064830311429 2171.680572939439,823.1914976837419 C 2176.2798889814103,818.6887882800952 2182.424961404801,815.3818959930855 2189.882983558313,813.247731436276 C 2199.3243430681946,810.5432853350578 2209.3663476501783,810.2038531812957 2218.9589855508148,812.1767000171033 C 2213.663749501589,820.3701226605223 2206.3646921442505,827.3067312590954 2197.7673196505225,832.2083999698568 C 2192.748613842042,835.0688589675854 2187.7742737318868,836.9544521874403 2182.9044023781003,837.7899027195307 Z M 2172.720323301705,801.2800092406027 C 2179.0135796854343,793.7721263514741 2184.163032324471,784.6792680044887 2188.0492199380114,774.101539516635 C 2193.850724201534,758.3102792485444 2196.0435429262648,741.3964170634422 2194.6092291344935,724.8512990915325 L 2255.9092540723623,724.8512990915325 L 2215.9433262029743,794.0748533870759 C 2205.634375040382,792.8350966191821 2195.0971995488894,793.593951651435 2185.0773278727197,796.4618781391781 C 2180.6175294812574,797.7374993441078 2176.4938340642852,799.3497349962081 2172.720323301705,801.2800092406027 Z" cricut:graphicId="'9332789E-0886-4F16-ABA0-28E5E0B0FFE9'" cricut:layerFillColorOriginal="'#494949'" cricut:layerGraphicId="'9332789E-0886-4F16-ABA0-28E5E0B0FFE9'" cricut:layerImageDetails="[{'ImageSourceName':'Offset','LayerOperationsUsedSet':['Offset']},{'ImageSourceId':1321540173,'ImageSourceLayerPathIndex':[0,0],'ImageSourceName':'Elements','ImageSourceHeightDefault':4.277,'ImageSourceSingleSetGroupId':10873737,'ImageSourceUuid':'70330ca3-3246-41fc-aab4-56b7604f2a83'}]" cricut:layerName="'Path0'" cricut:layerNativeSize="{'Width':1010.4421781512144,'Height':319.282001500162}" cricut:nativeSize="{'Width':1010.4421781512144,'Height':319.282001500162}" />
        </g>
    </g>
</svg>