<svg xmlns="http://www.w3.org/2000/svg" viewBox="5479.43953773455,3448.144132012658,969.8313187131498,1536.991156739301" width="969.8313187131498pt" height="1536.991156739301pt" xmlns:cricut="http://developer.cricut.com/schemas/svg/v1">
    <g cricut:canvasRootGraphic="true" cricut:graphicContainerSubtypeName="'GraphicGroup'" cricut:graphicId="'7322A81F-04EF-4143-910A-19356EFC1705'">
        <g transform="matrix(4.183722011267891,0.0,0.0,4.183722011267891,4719.821108631282,2453.9468821150303)" cricut:graphicContainerSubtypeName="'GraphicGroup'" cricut:graphicId="'91B9DB10-AB38-404C-BFFB-97D118FAAB5C'" cricut:nativeSize="{'Width':231.81064996697523,'Height':367.37411152073895}">
            <path stroke="rgb(0,0,0)" stroke-width="1.0pt" fill="rgb(0,0,0)" fill-rule="evenodd" d="M 386.9169922,283.3289954 C 371.2177427,276.0162598 366.5394711,283.6183431 352.1421918,289.0217287 C 338.6769714,291.4010169 328.3899536,285.2100074 323.6519775,272.9709937 C 322.4019775,269.7329871 320.4259643,263.5299842 315.3899841,260.5890052 C 308.9749797,257.0175943 305.7789717,261.131257 301.6036399,264.9107762 C 299.0507555,263.8110461 295.4281706,265.3822718 293.2207313,264.0299934 C 283.6367302,236.984519 321.0669486,228.7195229 334.7944303,248.6843928 C 345.0061634,264.5536486 358.756041,265.7622762 371.8919822,255.0387098 C 367.416291,266.0744401 359.2589159,269.8823833 349.1776707,270.6250143 C 361.0973015,278.6555165 377.1136615,268.2259556 386.9169922,283.3289953 L 386.9169922,283.3289954 Z M 297.8049927,269.4709937 C 309.6175249,269.3403082 320.3174182,284.7971002 319.1881176,295.4598485 C 319.1869812,295.4600074 301.3169861,303.7460181 301.3169861,303.7460181 C 300.9880088,303.9079281 300.5796297,303.6708972 300.5549649,303.3060057 C 299.0869752,285.4000098 298.1659547,276.4470069 297.7929688,276.4470069 C 297.419983,276.4390113 296.4829712,285.3920142 294.9829712,303.3060157 C 294.9517874,303.6669107 294.5449355,303.8953589 294.2209422,303.7339864 C 294.2209473,303.7339943 276.374939,295.4239967 276.374939,295.4239967 C 275.2203727,284.7725796 286.0080697,269.3197021 297.8049927,269.4709938 L 297.8049927,269.4709937 Z M 276.2080078,300.4849707 C 301.9114373,313.8492468 293.2776397,304.1990055 296.4832669,333.0701504 C 296.5260413,333.4892158 296.0309857,333.7985062 295.6729919,333.5699427 C 283.677204,326.4339753 274.0867254,313.2278831 276.2080079,300.4849707 L 276.2080078,300.4849707 Z M 320.0559998,301.0679785 C 319.4262107,314.151517 311.755092,329.0243793 299.1736572,332.9883773 C 299.1730042,332.9869849 300.6849976,310.4859778 300.6849976,310.4859778 C 300.7109986,310.1489722 300.9150086,309.8499915 301.2210083,309.6999671 C 301.5662395,310.0331309 320.4191859,298.921941 320.0559998,301.0679786 L 320.0559998,301.0679785 Z M 325.5799866,349.6189734 C 322.6043501,346.6788864 329.6054783,319.4657392 333.877783,317.6285866 C 333.8789674,317.6289831 345.1299744,322.8439795 345.1299744,322.8439795 C 345.5494846,323.0309198 345.7192217,323.5536464 345.4869678,323.9519525 C 339.9379883,333.8319861 333.1279908,341.3919836 325.5799866,349.6189734 Z M 270.0889893,349.6549841 C 262.5409851,341.403977 255.7309876,333.8329931 250.1949921,323.9269873 C 249.9621627,323.528724 250.1318617,323.0091608 250.5529978,322.8189868 C 250.5529938,322.8189856 261.8280029,317.6159826 261.8280029,317.6159826 C 266.0984971,319.4809841 273.0564093,346.602429 270.0889892,349.6549841 L 270.0889893,349.6549841 Z M 297.7449951,341.6659705 C 288.2471573,341.0197546 277.3668477,335.3491057 271.6714701,327.8236751 C 271.6561736,327.6900969 279.6430458,325.2354807 279.6838805,325.1528219 C 279.7989807,325.1169592 279.9199829,325.1569677 279.9819947,325.2479711 C 284.3607854,331.0675535 290.4409258,336.6528098 297.7448243,339.8442591 C 305.0308858,336.6022983 311.095511,331.0355918 315.4481229,325.1881778 C 315.5100098,325.0959631 315.6300049,325.0569616 315.7460022,325.0929723 L 323.6629944,327.6759801 C 318.5862489,335.1966511 307.0591347,340.9811411 297.7449951,341.6659703 L 297.7449951,341.6659705 Z M 247.0279999,326.9749915 C 252.6950073,336.6979834 259.6950073,345.5439917 268.0289917,353.5119788 C 267.3693086,359.5273756 258.491937,359.2242009 253.5285908,358.2271088 C 244.7418109,356.2352433 235.0196761,354.1421857 229.8822474,348.6320347 C 233.2449285,341.4128332 240.2495063,328.8219067 247.0279999,326.9749915 Z M 263.9689941,353.8809973 C 264.0156081,350.7293387 259.0640212,350.729313 259.1110362,353.8812147 C 259.0644144,357.0326336 264.0159942,357.0326936 263.9689941,353.8809973 Z M 349.8320007,326.7489783 C 356.7290039,332.5109717 362.046997,339.7939917 365.7850036,348.5959937 C 360.6563887,354.0901726 350.9490691,356.1471908 342.1765922,358.121862 C 337.2348645,359.1186168 328.3323515,359.3832964 327.7222246,353.3822558 C 336.0490417,345.4530189 343.0540466,336.6429908 348.7360535,326.9520118 C 348.9585077,326.5676825 349.4866227,326.4707032 349.8320008,326.7489784 L 349.8320007,326.7489783 Z M 336.2359924,353.8340002 C 336.2824518,350.7133755 331.3791482,350.7133163 331.426008,353.8342154 C 331.3795912,356.9550644 336.2817184,356.953342 336.2359924,353.8340002 Z M 321.5440063,336.5709998 C 318.2837142,351.0645743 321.5866902,362.0155705 337.0107611,364.0828726 C 336.5856772,364.4763761 331.5981307,390.5444406 330.0696978,389.4192449 C 329.0021712,389.6729293 324.8252294,389.0520456 324.8299006,390.7995439 C 324.830017,390.7999732 324.5090026,400.526963 324.5090026,400.526963 C 324.493988,400.9439552 324.244995,401.3159645 323.8659972,401.4909523 L 298.244995,413.3849648 C 297.843994,413.5669716 297.3809813,413.5669716 296.9710082,413.3849648 C 296.9710082,413.3849648 267.9450072,399.9319619 267.9450072,399.9319619 C 267.5760192,399.7589577 267.3059996,399.4309548 267.2070006,399.0389565 L 258.4920043,364.8939675 C 258.3012288,364.1889387 258.8636314,363.4639721 259.599014,363.4649578 C 275.3177435,363.291864 276.6153659,347.2543197 273.8385309,335.9379788 C 289.0789685,349.412892 305.7170644,348.3976327 321.5440062,336.5709999 L 321.5440063,336.5709998 Z M 297.8880005,395.0979773 C 302.3922641,390.5033538 303.8785404,383.3308268 302.3274349,377.5840916 C 307.9360047,380.8699805 313.5790101,377.9049841 317.7099915,373.8099829 C 314.6222458,369.8606494 307.7728171,367.8475764 302.483407,370.523487 C 302.2779847,370.6280066 302.0269776,370.5470129 301.9229737,370.3409888 C 304.0747286,364.3952082 301.5218909,356.60111 297.9578389,351.6539338 C 293.7288682,356.2072106 292.2126115,364.7963389 293.631637,370.5448253 C 288.1005292,368.0856063 281.521787,369.623352 277.993495,373.7777412 C 282.107296,377.9137691 287.8113042,380.8912726 293.4219592,377.5970109 C 291.8777293,383.3439025 293.3901771,390.4880694 297.8880005,395.0979773 Z M 254.576004,363.7869727 C 254.0009925,364.344135 251.4597343,374.9513156 249.9334298,374.0381745 C 249.9329987,374.0379492 229.8359986,368.5259558 229.8359986,368.5259558 C 229.2673146,368.3740397 228.9667657,367.7241182 229.2170015,367.191937 C 229.2169953,367.1919409 233.9079896,357.0839392 233.9079896,357.0839392 C 240.4479895,358.2852297 247.5467394,362.2772126 254.1592629,363.0348386 C 254.4945178,363.0965405 254.6924624,363.4628285 254.5760041,363.7869726 L 254.576004,363.7869727 Z M 345.5339966,374.1559912 C 344.9161496,374.9177757 340.5143251,363.8176461 340.2588134,363.739309 C 340.1610108,363.5240027 340.2569886,363.2700049 340.4720154,363.172013 C 347.4039723,361.7038929 354.0116196,359.7323642 360.2489868,357.1549919 C 360.8569946,356.9030005 361.5559997,357.1760108 361.8320007,357.7740027 C 361.8832662,358.9127322 367.380237,367.0037818 365.0964698,367.6868222 C 364.9788587,367.7491298 345.667098,374.1040338 345.5339966,374.1559912 Z M 347.3670044,377.9899756 L 367.3560181,371.3939673 C 367.6300049,371.3009802 367.9270325,371.4479529 368.0200196,371.7209631 C 367.2225909,375.5042334 352.8069803,383.7945543 349.0456325,382.9902044 C 349.1120544,382.4481822 346.1535387,378.2572596 347.3670044,377.9899755 L 347.3670044,377.9899756 Z M 218.8350067,371.9179846 C 219.4464367,370.2334555 230.6164362,384.4135017 231.085301,384.3704508 C 234.5128223,393.0751755 219.8004638,396.9748308 213.8932526,397.5858604 C 209.1840651,391.8291405 214.2213968,377.2847184 218.8350067,371.9179846 Z M 246.0160065,383.9659888 C 245.728598,383.7933516 233.6012846,381.1855551 233.4206095,380.8463892 C 233.4552352,380.4702852 226.1162788,372.5738934 227.2596659,372.2401504 C 227.6699101,371.7351608 247.7034506,377.86588 248.1599311,377.7737879 C 248.4381375,377.8516544 248.5929429,378.1568501 248.4920023,378.4290025 C 248.1952736,378.7223896 246.8097185,384.4296721 246.0160065,383.9659889 L 246.0160065,383.9659888 Z M 372.9169922,379.4189917 C 384.5995873,384.2864464 397.8896246,391.1339471 411.9314559,393.1447593 C 414.7051955,406.4023612 412.6746103,421.9946438 412.4323746,436.088879 C 412.3999939,436.495011 412.0580139,436.8100135 411.644989,436.8150183 L 385.25,436.8980261 C 384.8299866,436.8960119 384.4580078,436.6280371 384.3210144,436.2310339 C 382.5510254,430.9840246 379.0310059,427.6200415 373.7610168,426.1350256 C 373.3470153,426.0140234 373.0610046,425.6310278 373.059021,425.1940161 C 373.059021,425.1940161 372.9169922,379.4189917 372.9169922,379.4189917 Z M 368.631012,379.6089941 L 368.631012,425.1240087 C 368.6320191,425.5590063 368.3460083,425.9430089 367.9290162,426.0650182 C 362.6990052,427.5570226 359.2110291,430.9140172 357.4640199,436.1370092 C 357.3270265,436.5370031 356.9530336,436.8050085 356.5350343,436.8040014 L 330.2950441,436.8040014 C 329.8800356,436.8050085 329.5340578,436.4860082 329.5090334,436.0779882 C 329.2259675,422.0714372 327.1406771,406.5357063 329.876315,393.3728027 C 343.8257148,391.3426055 357.0491493,384.4585762 368.6310122,379.608994 L 368.631012,379.6089941 Z M 244.2660065,388.0139929 C 244.5204301,388.0773417 244.6668728,388.3463505 244.576002,388.5860153 C 241.5446132,397.3310772 243.1096117,394.7886704 235.146743,392.3600129 C 234.1235302,392.2500771 236.143405,386.9966817 236.039695,386.5260237 C 235.8293014,385.4685193 243.9811745,388.1583176 244.2660065,388.0139928 L 244.2660065,388.0139929 Z M 239.4799957,398.515 C 239.9147442,398.6712323 240.1400525,399.153091 239.9799958,399.5869912 C 239.9799958,399.586991 230.2409973,426.2789771 230.2409973,426.2789771 C 230.2802658,428.3479103 214.5202594,421.0150981 213.8948483,421.2556176 C 212.5597377,420.9148356 218.1957413,402.3895839 218.001448,401.6464956 C 222.8716953,399.437981 227.9824286,398.1621875 231.8603576,395.7285953 C 231.8609923,395.7299353 239.4799956,398.515 239.4799956,398.515 L 239.4799957,398.515 Z M 297.7090149,418.2539832 L 323.8300171,406.1339881 C 324.9338521,405.5441157 324.1132687,411.3880945 324.3544036,411.6459129 C 324.4823449,412.2576429 297.9612699,423.9033023 297.7446098,424.2306774 C 297.4214836,424.4951086 268.5398131,410.6952584 268.2304021,410.6930059 C 267.7192993,410.762468 268.1588134,405.4086621 268.0167803,405.2170005 C 268.0110474,405.0129859 268.1720581,404.843003 268.3750611,404.836991 C 268.9086437,404.8087006 297.1742204,418.4781912 297.709015,418.2539832 L 297.7090149,418.2539832 Z M 184.8430023,409.7809912 C 192.3703521,404.8050093 199.5498541,415.9896641 191.8914734,420.7612957 C 184.364681,425.7369335 177.1844332,414.5521386 184.8430023,409.7809912 Z M 254.6589966,458.68599 C 252.6234175,458.3426672 266.3536692,415.9095159 265.8849925,415.0503188 C 265.7284701,413.2632324 281.848073,422.0957159 282.2200287,421.8493249 C 280.3847815,434.007159 272.9005519,465.3767774 254.6589967,458.68599 L 254.6589966,458.68599 Z M 327.2349854,456.3519751 C 319.8854435,448.7721742 316.0907566,434.9344362 313.184216,421.9698446 C 313.1859742,421.9689795 324.2699585,416.8379676 324.2699585,416.8379676 C 324.8207481,429.5961061 325.0402056,443.3483798 327.2349854,456.3519752 L 327.2349854,456.3519751 Z M 203.2870026,435.1479956 C 203.2886551,434.7659991 192.2698438,425.4531694 193.4885722,425.005081 C 193.7478819,424.9713621 198.666114,418.9939366 198.9738713,419.8467233 C 198.976115,419.8455806 207.4760286,427.9937462 207.4790216,427.9939674 C 207.6120149,428.1259619 207.6420137,428.3299719 207.5500184,428.4939733 C 207.296791,428.5291019 203.7769315,435.9376467 203.2870027,435.1479955 L 203.2870026,435.1479956 Z M 297.7929993,434.1959998 C 294.837953,441.1587872 294.7087878,451.5287518 290.6411019,457.8745068 C 290.3390762,457.8631763 279.1242963,450.2442834 278.8625352,450.160917 C 280.2870813,442.6690022 284.8335431,434.2698292 286.528871,424.646696 C 289.0298953,423.6655173 294.1395263,428.3284445 297.7810733,428.8721902 C 301.4331472,428.3038894 306.4903933,423.6178213 309.0079892,424.5859846 C 310.7491284,434.1919775 315.3551314,442.5753074 316.8074766,450.0526305 C 316.8060609,450.0529945 305.281067,457.7440041 305.281067,457.7440041 C 304.887658,458.013807 304.3165794,457.8015681 304.1970835,457.3389934 C 301.7842439,449.5990334 300.1795427,441.4153749 297.7929994,434.1959999 L 297.7929993,434.1959998 Z M 213.7519989,426.3259741 C 214.3239619,426.7817822 229.1822419,429.8379635 228.7532033,431.0996539 C 228.753006,431.0999915 231.2649994,440.9459998 231.2649994,440.9459998 C 231.4902359,441.7662017 230.8760467,442.6165543 230.0269971,442.660992 C 229.186906,442.9276098 224.8357618,442.4109764 224.6339523,443.6967344 C 219.3944163,458.6888219 210.5398594,454.7653696 205.3830267,441.8516452 C 207.4371006,436.5531615 211.676899,431.6556053 212.5491449,426.9936225 C 212.7039947,426.48198 213.2359924,426.1869971 213.7519989,426.3259742 L 213.7519989,426.3259741 Z M 231.0859985,456.1729895 C 220.2519989,466.8009802 214.7989959,472.153977 214.7279968,472.2339941 C 213.5201832,474.229898 214.0317678,477.2110229 211.4765078,478.1386964 C 204.2149963,481.9250036 199.8449859,470.1499792 208.3339843,468.5670019 C 215.2109772,463.319382 220.7941808,456.1619743 226.3004927,451.2925417 C 231.2598312,445.8863732 238.5633286,440.4568821 243.9206699,433.6726024 C 245.6699828,425.2189794 257.3609923,429.8269811 253.4319762,437.0059972 C 252.4375195,439.5544397 249.4883907,438.9689658 247.4546746,440.1365024 C 247.3849944,440.2079931 241.9279936,445.5539709 231.0859984,456.1729894 L 231.0859985,456.1729895 Z M 368.618988,520.8679663 C 346.0698413,504.5549813 331.298719,469.198589 330.1589749,441.212033 C 330.1750032,441.145696 356.3373362,441.2496439 356.3689178,441.2068602 C 359.1703681,447.1722683 360.4576279,451.9216812 367.9536568,453.8734853 C 369.8805343,454.0609079 367.9653141,520.0009176 368.6199035,520.8679664 L 368.618988,520.8679664 L 368.618988,520.8679663 Z M 373.0,520.7490088 C 373.6678872,519.8422425 371.6249826,454.0218489 373.5702593,453.7941783 C 381.0656207,451.8496597 382.3385626,447.0675263 385.131014,441.1244212 C 385.1319885,441.1250158 411.2649841,441.0890051 411.2649841,441.0890051 C 410.3919981,468.9007864 395.4309534,504.4782413 373.0,520.7490088 Z M 358.5469971,579.3119971 C 326.6940057,567.6911165 304.5810768,534.9320523 278.8381642,512.9185153 C 263.8908611,497.9298812 244.8398083,481.0042252 228.8456031,464.7754473 C 229.0577512,464.533587 233.3154365,459.6587282 233.6944672,460.2574593 C 230.4391895,455.9170816 391.9375427,615.6170471 337.0114672,554.9790508 C 301.9996802,520.8401135 267.6730551,488.6180078 236.1346764,457.5314117 C 236.1350556,457.5310217 241.0280609,452.4350134 241.0280609,452.4350134 C 269.148538,478.4842253 301.1478855,511.1327619 338.4155161,547.3215107 C 350.3390805,558.7142161 353.8445466,566.2116369 358.546997,579.311997 L 358.5469971,579.3119971 Z M 259.3970032,463.6379858 C 266.7940064,463.9949804 272.2510071,460.9030004 275.7669983,454.363999 C 275.9485875,454.0129008 276.4063855,453.8971508 276.742982,454.1140024 C 276.9635287,454.6187235 291.0177609,462.6456035 289.8993471,463.5547634 C 289.3973047,463.549935 284.0147663,489.1195868 282.5536545,487.1165723 C 282.8869646,486.4805923 256.5031661,464.0725257 259.3970033,463.6379858 L 259.3970032,463.6379858 Z M 338.473999,490.4139868 C 328.7120056,488.008988 320.9249878,494.211991 318.2470093,503.3429724 C 318.0821088,503.9242352 317.1854554,503.936154 317.0209991,503.3429203 C 317.0209962,503.3429724 305.722992,463.6859595 305.722992,463.6859595 C 305.6170045,463.317948 305.7609864,462.922959 306.0799866,462.7099463 C 306.9598557,462.6972009 319.412408,452.3415575 320.0307088,454.6264175 C 321.5525425,457.4723559 324.1856792,461.3875908 327.2239746,462.3649407 C 328.1710787,462.6634527 328.7698411,463.1005107 329.009961,463.9959503 C 330.438115,472.6994988 336.3813166,482.3690307 338.4739991,490.4139869 L 338.473999,490.4139868 Z M 333.95401,494.0369727 C 350.1696971,493.3566657 351.561277,525.299938 335.3491008,526.0309208 C 319.1337133,526.7110802 317.744128,494.7685649 333.95401,494.0369727 Z M 256.3619995,496.9259802 L 272.9110107,512.7839819 C 273.9220648,520.7475267 262.7522105,530.1705944 255.2675461,524.6060434 C 247.2430115,518.8080297 247.0880127,507.819016 251.8860168,499.8539892 C 252.8317542,498.5872767 254.5653541,495.7683776 256.3619995,496.9259802 Z M 318.5320129,518.5460059 C 315.1285339,517.8464034 312.0823364,510.6843445 315.8535887,508.4503004 C 316.3545869,508.0454372 317.1676759,507.4115899 317.6960558,508.1480953 C 317.7950439,508.2809913 317.8540344,508.4399879 317.8660583,508.6049964 L 318.5320129,518.5460059 Z M 275.006012,522.7609717 C 276.1030723,545.6388046 271.7708764,556.3011409 264.3515291,582.7042271 C 261.032013,577.6949317 256.953003,573.6708838 252.1110078,570.6318824 C 250.3146763,569.4736373 248.8630941,572.5177995 247.2070947,572.2193195 C 245.5507795,556.3681381 244.9851535,539.452308 247.4438063,523.6888348 C 248.2845844,522.1947513 250.591372,527.602912 251.8131958,527.7832098 C 259.5355117,533.8882374 269.2825112,530.0937545 274.2669279,522.5092929 C 274.4913368,522.2283769 274.9882908,522.3955407 275.0060121,522.7609717 L 275.006012,522.7609717 Z M 349.6289978,553.2750098 C 343.3703621,548.0280247 335.1592231,538.7134308 324.1266055,528.3454572 C 323.9385829,528.086222 318.9553885,522.9032143 321.7683655,522.8666677 C 327.7217398,532.5502713 342.083738,533.5317823 347.5451628,523.0444861 C 347.7080768,522.6843866 348.2945684,522.7767062 348.331013,523.1759778 C 349.7839966,532.4879614 350.2160035,542.5209814 349.6289978,553.2750098 Z M 327.2109985,565.0729834 C 339.8142065,576.8860455 340.6655243,570.650698 331.0450179,582.514735 C 331.036823,582.8422082 326.1523674,564.3588411 327.2109985,565.0729834 Z M 342.6650085,576.5499731 C 343.0799272,575.1992657 354.4106661,582.8710047 355.0230673,582.9065769 C 355.454412,583.1331519 355.244429,583.8261978 354.7609837,583.7759227 C 344.2130127,583.049912 335.9260254,589.740952 335.3190308,600.5029149 C 335.1403223,601.5868426 338.714513,600.8639003 339.1640345,601.0631762 C 342.4789711,577.3354728 373.9667759,590.4488752 377.4990235,604.417954 C 356.5560303,605.1329809 332.2010193,605.0389257 332.0520325,604.943955 C 328.5393244,596.2006488 333.2817559,581.7351538 342.6650086,576.5499731 L 342.6650085,576.5499731 Z M 241.3370056,587.9439551 C 250.3352406,587.440203 254.9650646,593.1042138 256.3733796,601.112248 C 256.6164042,600.9107636 260.4414166,601.5139119 260.2789553,600.7670414 C 260.1239929,589.6229712 250.0049896,581.7539527 239.0279846,584.158982 C 238.7243376,584.2262676 238.503707,583.8162937 238.7300023,583.599957 C 242.3249817,580.1869361 246.4719848,577.3889624 251.1709747,575.2069556 C 256.5212402,577.6634432 260.3452333,583.3504906 263.2193279,588.3984984 C 265.2572973,592.2782028 267.4949658,601.76802 259.1993821,604.9635404 C 245.3089751,605.0369727 218.7719725,605.184983 218.7819823,603.8279884 C 218.8150023,599.085984 229.7779998,588.4009864 241.3370055,587.9439552 L 241.3370056,587.9439551 Z" cricut:graphicId="'06A600EA-7924-4764-9652-F472754807E4'" cricut:layerFillColorOriginal="'#000000'" cricut:layerGraphicId="'06A600EA-7924-4764-9652-F472754807E4'" cricut:layerImageDetails="[{'ImageSourceId':1348870739,'ImageSourceLayerPathIndex':[0,0,0,0],'ImageSourceName':'a_17','ImageSourceHeightDefault':11.69,'ImageSourceSingleSetGroupId':14545786,'ImageSourceUuid':'e9562ec3-3e1b-4415-ab43-38454932702f'}]" cricut:layerName="'Path0'" cricut:layerNativeSize="{'Width':231.81064996697523,'Height':367.37411152073895}" cricut:nativeSize="{'Width':231.81064996697523,'Height':367.37411152073895}" />
        </g>
    </g>
</svg>