<svg xmlns="http://www.w3.org/2000/svg" viewBox="1066.0644004764704,3020.3230103746246,1055.443119934952,1129.4580948141665" width="1055.443119934952pt" height="1129.4580948141665pt" xmlns:cricut="http://developer.cricut.com/schemas/svg/v1">
    <g cricut:canvasRootGraphic="true" cricut:graphicContainerSubtypeName="'GraphicGroup'" cricut:graphicId="'1FB834F0-8524-4A9D-96FD-924BD4AF60B5'">
        <g transform="matrix(1.0,0.0,0.0,1.0,1066.0644004764706,3020.3230103746246)" cricut:cacheComponentsId="'components-2'" cricut:graphicContainerSubtypeName="'SymmetricDifferenceGraphic'" cricut:graphicId="'8E65F01D-B12A-4BAA-B9DA-8EF148196E64'" cricut:nativeSize="{'Width':1055.4431199349517,'Height':1129.458094814166}">
            <path stroke="rgb(0,0,0)" stroke-width="1.0pt" fill="rgb(0,0,0)" fill-rule="evenodd" d="M 1041.0648971637972,391.40472644110247 C 1106.684562665189,183.672885937299 932.840746455435,64.14418290364137 819.4099235218243,103.26774991721783 C 695.5900397310361,145.97881311708755 596.4590154497394,130.65397700901786 631.6704955796617,66.38259057222501 C 665.1802354533454,5.192522309880758 471.94057362448126,14.774558415764488 335.13733175696,59.33279361408205 C 346.829626617988,50.22411901610241 351.0593096984068,34.46351166709138 345.49856983366584,20.72466116973385 C 339.93785032744216,6.985808809525281 325.93670137686735,-1.3959766432951142 311.200495499595,0.19212329347004697 C 296.46429547536485,1.7802273355288207 284.57046074866975,12.952691759154959 282.0646888247375,27.560860642333807 C 279.5588968416507,42.169032059044525 287.0494250030841,56.66656847567839 300.41395185274513,63.074895344504796 L 300.41395185274513,519.0781466738763 C 292.1022174951366,514.8411992751576 290.1465787798648,515.4925392115078 288.51687985047175,516.842976817735 C 286.8866412856715,518.1934144239624 290.63715802061455,520.5252333724159 289.49469920810753,524.1304831726984 C 288.3522403956005,527.7357329729809 287.5430775285719,531.4382267365495 287.0774024020756,535.1913901116955 C 285.07847740062067,533.2210804503666 283.1897608633307,531.142064750853 281.4198647942089,528.9637276962446 C 281.4198647942089,528.9367459258904 281.12306532031283,528.882782385182 281.12306532031283,528.8285490267701 C 281.17729867872475,528.7745854860618 281.284955942438,528.9097641555361 281.0966231853658,528.5592709586354 C 257.86477927500044,489.3005252755842 233.79730993676588,447.99143486331826 195.86094081877383,421.11759159054435 C 165.34428873048057,399.50519353683757 131.83319976827926,392.5706087381072 95.1107404985222,390.33112179870926 C 82.2943995802816,389.54919009384486 71.87970604126753,387.5255573172805 62.328159335884095,377.8388319424225 C 59.06336512302698,374.54705595921126 55.71762559910735,370.71591438661966 50.45591056233661,370.3648815543117 C 51.96688970217127,377.2452329946304 54.15241310086071,382.722532376531 55.17772037431996,390.1155374535792 C 55.744607369461505,394.24401813547405 57.066714116816854,397.9669628089452 50.75271003623271,399.3433029147125 C -6.070898329692909,411.67397196657765 23.528373566557832,444.91578286064413 0.0,482.0426988680105 C 22.55702983380695,476.78071401353617 29.113330212171775,469.01023396923284 36.88434989188221,447.8292744234896 C 36.02093324054812,456.7605102284303 35.643188455589495,467.60718191081486 33.40370151619163,476.0257640790259 C 23.879136581162328,511.58746758814567 16.35095283463957,547.9049304848866 8.742363412461316,583.2507798311728 C 5.585226463317497,597.929132721556 9.416907671316096,607.2918070344604 19.723674128913387,617.3020438358649 C 29.113330212171775,626.4216123978779 44.3850122326437,623.1303760500737 51.02279755747816,612.6881611052984 C 52.122580290462395,610.3635761124342 53.53909496970806,608.2025862825026 55.23195373273188,606.2667695787045 C 72.80952098696673,625.6829742769589 96.45972876609267,638.5543413825408 122.30863483324998,642.7725652325173 C 125.51919568769512,645.9299719993649 125.08775717973157,647.4943750445007 124.35924938016848,652.3243817556045 C 121.040491626603,674.6383058385202 117.3707010407295,696.8173210696648 119.74536664960186,719.9946618039146 C 120.43609997066909,726.6400020244482 122.57494490664584,732.3639147873862 122.76759474697474,739.5170519259857 C 99.0511582410482,766.1029997090807 49.234985453809486,771.9925805419932 28.268261164678506,773.823293660525 C -1.7354674691815433,776.4135436145273 25.65102944032202,858.5463223903873 50.420024807765515,926.3512414727652 C 65.88084903842037,968.6586573881359 59.30242360836513,970.6202320928858 57.73748092782205,982.4924808664332 C 57.686252003130846,982.7601204029377 57.65012916707542,983.0304649893144 57.62928402870176,983.3022037947624 C 57.54860853534274,983.8958027425547 57.46766322428016,984.4891318726434 57.38698773092108,985.0287672797272 C 54.82344972956946,998.3844737873478 34.96486674888513,1013.5757501321643 40.79265932768675,1025.231874925175 C 46.89053942773387,1037.4001137195078 92.08500477100324,1033.9200049792241 99.10053488079637,1025.231874925175 C 106.14250712553661,1016.5432052357182 86.04108821166454,1013.0630964954346 99.07355311044216,1003.835061216598 L 99.10053488079637,1003.835061216598 C 104.84738214853547,1002.5129544692427 109.1917169932637,1000.5432852333868 110.32468153043618,998.2765467059312 C 114.2370382317938,990.4790848912737 93.45621834040327,970.6822901647004 84.33637996068677,943.2957932551967 C 75.18955981061612,915.9368177514546 54.33265132682675,840.3061059955473 67.39182817825503,835.0988941348921 C 76.18194932424325,831.5680596663428 110.2181035375371,831.9638822374386 156.56145266248797,822.5545294618219 C 166.78376617887665,858.276234869142 204.72742037486438,913.5170925860907 176.41598837761916,1050.2882261468903 C 168.6781562754444,1087.670659519511 127.34775026459863,1111.1690833209757 131.5733653197684,1118.4382420720983 C 135.79844073953115,1125.7082102763313 138.2518931178377,1130.25140076857 164.60309949885095,1129.3429245607444 C 190.9545756975678,1128.4339087175117 194.5895597996843,1122.0732261742148 193.6805439564517,1110.2608769308536 C 192.77206774862606,1098.448257869789 212.3082185735778,1112.5322023592694 216.39757568845897,1098.9020912471465 C 219.2894818350211,1089.262853788112 231.95094739142866,938.0068266303683 239.1178452329088,850.2548243605447 C 259.1709338260144,857.356912669394 279.64155263213024,863.2197748874548 300.41395185274513,867.8102434237953 L 300.41395185274513,1129.4575970847498 L 329.097732280878,1129.4575970847498 L 329.097732280878,873.2619101238595 C 339.2394908377275,875.1383227694675 349.54379660223736,875.9934765976886 359.85614103154484,875.814385599366 C 364.06556702450206,875.4641622201686 367.43828831877596,868.0441753727662 372.4833397396025,876.8132507378782 C 374.8847173011255,880.9948855073706 370.9726304174714,895.2682420247374 358.07534418816823,896.266837345546 C 350.8439599155416,896.8334545229841 335.2484966508193,910.8637052894596 347.0128183429501,918.2027468257995 C 350.763014604479,918.5267978877534 352.38219064343406,918.4188708063366 356.699004082401,918.9312546253627 C 373.5626105537702,920.9818691722812 391.2626519061193,912.8603562956698 407.7757651805875,911.5652313186686 C 426.82462523294254,910.0812339491881 429.8735652829661,905.7368991044598 427.4991694917973,887.3628531286631 C 426.8788585913546,882.5598281879136 423.2902831342471,878.6747230746137 419.9985071510359,875.4363709967038 C 417.56987800145515,873.0352632528843 414.68282857355683,868.5565591917921 418.7843274850973,866.8834196121288 C 430.35216246177305,862.5347055803461 442.2306403757381,859.0621609716784 454.3193190415664,856.4951682080618 C 458.25865751327837,855.5510760633688 458.9062200017789,859.9218530430439 460.1201298500138,862.5396244028077 C 467.51313492706214,878.9712527308063 478.4949852789213,894.9717123685448 487.3450059550959,910.0002886381255 C 496.76164380870836,925.9467847351559 496.49155628746297,933.1506476020211 483.51332474709733,946.5605874680539 C 462.18384175872797,967.9754143393964 439.73027608479646,988.2403746471232 416.24777125409986,1007.269570764983 C 408.70396177604374,1013.400670835317 403.0300062595423,1021.5237233420171 399.86983664910616,1030.7167292027746 C 396.03842525881095,1041.4020498984414 392.3691743083447,1051.33107157108 388.78059885123724,1062.1772036180575 C 385.7586405715678,1071.2973118154775 389.40090975168,1083.0880756425554 382.11610157375213,1090.9400406333284 L 382.11610157375213,1091.1291828435112 C 382.11610157375213,1091.6415666625373 382.089119803398,1091.4257124997036 382.0621380330437,1091.075219302803 C 382.0621380330437,1091.4796760404122 382.089119803398,1092.0460234001466 382.1430833441063,1092.8287645581217 C 382.4129010476483,1098.7383119010965 384.6521181693426,1120.5660244822297 388.56447487070017,1128.7954644402578 C 395.5530232101391,1122.805781239331 402.91904651683325,1116.4917771587468 409.58327397661475,1109.6653892591366 C 417.03424530065325,1102.5561249726027 422.558216305852,1093.6714778129585 425.63742733735825,1083.8441048478796 C 426.82462523294254,1079.8772449704065 428.22794710906413,1076.3161909190605 424.58540811124834,1072.4842398933583 C 420.94259929572894,1068.6530983207667 421.8332675351209,1062.2586885645271 422.53479356432985,1055.6206334219892 C 422.66970241610073,1054.3257782626915 426.1236388391407,1052.220930357361 428.65965543473106,1052.6261965480812 C 441.66459892774736,1054.6228475542912 445.4692983653919,1047.013718496706 445.79307960964223,1035.7083567183 C 445.6880814060268,1027.6649030229187 448.9215550323717,1019.9376361508114 454.7237757791758,1014.3660461858387 C 472.99043430896285,996.0993876560517 492.41730896398013,978.4533098444108 514.0297070176869,964.9084611266071 C 533.6454540651837,952.6314857977468 543.0081283780876,959.0258955539864 547.0017002082113,980.6113118373389 C 547.7108177345926,985.0122586874802 547.7834189993675,989.4922634148172 547.2172845533414,993.9138642573621 C 545.4907210683768,1008.8078014928753 544.5191075179223,1022.676161637226 541.281564893123,1037.8132046236303 C 536.4515581820194,1060.3154614636182 530.4079114403842,1078.3937872363333 511.8441836189974,1094.2318166165396 C 502.13101610919233,1102.488238344922 496.24899017197873,1116.0063751100752 491.5271803599954,1128.120920181403 C 497.89460834588095,1128.4983951486583 505.5846827145288,1128.9306431097323 511.81720184864326,1129.092803549561 C 520.2897475575628,1129.3350998473416 529.3016588558623,1129.5512238278789 537.180335799286,1129.4160451584044 C 555.2578521188902,1129.092803549561 558.3070619866173,1124.5323447242959 554.3404719268478,1107.6957200232807 C 552.3980542790496,1099.4128561599514 555.2848338892445,1093.584254128039 561.9763129370838,1090.9940041740367 C 575.3055773097576,1085.8137740837358 577.1943012345507,1076.019121627461 576.4388116646335,1064.4439421455131 C 573.956488792048,1025.5362292947702 576.870250172597,991.3775778440681 589.0120468319828,954.9246664601496 C 596.3510883683227,932.8535783104214 598.3207576041787,917.9062171696069 581.1066579359085,900.5024356557469 C 578.3005538190728,897.6698894039639 575.9258882102004,895.5922930866914 571.7709653933584,895.6187352216384 C 579.9512118175248,891.4349500228216 586.2107031297774,884.2674879511144 589.2551525828742,875.5985314365325 C 592.5469285660854,866.5593685501751 615.3192729273187,849.5883746327961 618.0174499627378,845.6760179314385 C 641.734695921775,811.4898450749752 650.4495379284749,784.6429835725555 648.3719416112024,746.0318003780051 C 647.5087947775717,729.9779168349653 639.3872819009605,716.8645066251252 633.963946059768,702.3216022219199 C 688.8176153721342,705.8562141383188 708.0019239116673,734.402657355349 700.3388313133737,788.2318288473664 C 697.0203433775118,811.5438086156837 682.5850962380196,831.105592122472 671.0366287087224,851.9352490182036 C 653.4984779784986,883.5586933264258 640.817045912029,913.9933208328423 645.4851620010074,951.3903243614541 C 648.6810780457299,979.2374113093167 663.8265722898011,1004.3190159633941 686.9831248057528,1020.1128934535777 C 664.6692007228371,983.1211561156858 660.999679954667,950.7157801025992 675.4349270941591,909.8659194217616 C 673.4112943175949,970.898144327534 679.509174417642,1031.9306390510096 749.7157408792461,1045.0170674904957 C 737.1419660764898,1035.5194843258207 726.4034912932254,1027.1823871040792 720.925922093621,1011.9104352659037 C 740.0020337340338,1028.7470599669189 758.5927433257748,1036.3019556660922 784.1174980808391,1035.5194843258207 C 767.7662754284961,1024.6728126434361 752.8993199633371,1015.8767555079696 746.1268956044353,996.8278954556147 C 763.772973416076,1014.2581191044219 779.9620356285902,1020.7604559420781 804.5963919619664,1016.2277883402778 C 785.9789704175748,1010.8584160397938 770.8421972488738,1001.0095302251073 763.071447386867,983.309488872758 C 751.5772132159818,957.0840175415954 753.1424257142285,934.2569001865429 761.5604682470323,908.1385464836865 C 766.3092598293699,893.3795180999441 774.2149185431476,880.482231870641 780.0972142980647,866.5329264152278 C 793.6420630158686,834.4243498760372 801.1429951743337,802.8017150209259 796.9338389990799,767.9685193113694 C 793.8579171787021,742.3358374748882 787.5172011454672,719.9946618039146 768.3328926059341,700.6214808719023 C 729.8838698512125,661.8219649202795 680.7770478065854,657.2350639600672 631.9403132832037,680.9253281487502 C 624.142311833139,684.7294879509875 620.014100968948,685.6198863726756 612.9723985419114,679.926463010238 C 600.4427171408452,669.8203137332462 586.2685588439915,661.9439503338294 571.0694393641495,656.6417348299785 C 561.4495889740119,653.4241694648406 553.48862980647,646.5395148570703 548.9171360856556,637.4844080607995 C 526.9269932469902,597.7672420994309 505.9081941410755,561.6119396425188 491.7160527524747,517.9557050271419 C 487.12888197455874,503.9246448075556 488.6671127024512,495.10133608403174 479.73587689751054,476.241348424156 C 476.3091920625283,469.037215739587 453.69873832342006,435.25603925614035 445.03732022202126,425.27305404279326 C 439.2092578255161,418.55459322459984 438.9399797573813,414.1020614807513 441.4490145826175,406.2236543550311 C 449.6244909999372,380.5370089778416 447.7897306158523,362.1621535489341 423.2363195935388,347.53830383466635 C 424.6410991824304,345.9923872278709 426.86559647538314,345.4956676238027 428.79456428650207,346.29714239837364 C 446.71018998398114,352.09795320682105 450.5148894216256,365.37298422108285 458.52820539911664,380.3208849973045 C 482.11081232408645,424.328422262693 508.98438577915675,430.50724767380274 548.8906939507083,400.50324922223916 C 533.5914905244751,405.0367262771503 523.4463448712995,408.51737465284083 508.52569568313555,402.257334112965 C 530.2997145412639,397.85903572752835 545.5179726564345,390.3586432044705 552.020309494091,368.09868266226323 C 551.2375683361158,368.773226921118 549.834516277698,370.4997904060826 549.1869537891973,371.0124440428123 C 540.9308018785184,377.51478088046866 515.4057773057505,390.8982786115543 509.4697878278286,375.9770897879834 C 514.2188492278699,374.9245309264663 518.9134074517954,374.2499866676116 523.7164323925449,373.1170221304391 C 506.28620874373775,368.09868266226323 500.80890936183704,354.74216670153174 494.4409417405445,340.4148466434564 C 481.19316231434044,310.62751180783715 450.4336742928594,301.29127962987997 425.77233618912913,320.66446056189244 C 415.06084317621907,329.083312547807 413.41495518461335,330.2702406256878 404.7805188535688,320.07113143180385 C 402.5852039042474,324.81521254719854 401.54064194695974,330.0104490275282 401.73184862124884,335.2343467354519 C 402.10932358850386,341.5753325863902 402.4063928801035,346.29714239837364 398.0620580353753,351.15413087983137 C 384.22067966137905,352.7724974656758 372.40239442853994,369.74430083616534 363.0397201156358,378.64828505304826 C 362.82413577050573,378.8638693981782 361.663649827572,379.5923771977413 361.3401384010253,380.3208849973045 C 359.4244327058778,384.908325592924 363.01273834528155,388.658521854453 365.5762763466333,391.9772796080185 C 372.9422996533273,401.50184454304775 377.55645220159744,413.58967766172526 381.71137501843936,423.8427503963176 C 383.0604635361488,427.2154716905914 384.7872968388171,434.7436554371142 386.78394784502706,434.79761897782254 C 401.623921539832,435.2290574857861 386.6217874051984,454.3054389439025 386.1633671268807,455.2492612708921 C 373.0445605629697,481.9050918392041 366.96772624379884,503.46217726368474 365.1186655214262,531.0618301589866 L 329.097732280878,525.4283063267349 L 329.097732280878,298.49812676281414 C 361.5192973561772,290.28514568470194 507.34686213636104,254.6805411607191 554.7454682998641,266.237373038826 C 608.1963553715159,279.2960102548472 561.2478051375206,343.1615908655131 610.8135870958724,353.6038058102885 C 660.351847648463,364.0462905727673 725.5400746418914,291.03335017662374 804.5961221442631,328.8342708074378 C 883.6529790997454,366.6362707090661 838.9717070286126,498.3345616255744 838.9717070286126,498.3345616255744 L 839.0518428865646,498.2528068614012 C 842.0201074432291,494.9618403313006 937.5895380377726,387.97939069463797 909.3666062472892,260.7592642038148 C 995.4389933125644,261.02935172506017 1041.0648971637972,391.40472644110247 1041.0648971637972,391.40472644110247 Z M 491.4125549591827,683.1058844354723 C 495.7162501940724,681.0520479160432 499.15768811919514,677.5043332454113 501.07109842574283,673.0909943880406 C 508.1777436105113,656.6993019046481 513.7856804195694,639.7121671738546 517.8336028837723,622.3381379917603 C 520.5422614658605,627.2605958546978 523.2865016080134,632.2022911337888 526.0555271262947,637.1843351793398 C 527.8316002048803,640.3798544142517 529.6174330776894,643.5929165843613 531.4098209585477,646.8295580028441 C 534.8543160163538,653.5252755090207 539.5277521325502,659.4246401422438 545.1203650061309,664.2611377008618 C 550.7635246187217,669.1413481331124 557.342551383183,672.9393921484332 564.5400844629391,675.3808073078012 C 577.5764305802006,679.9283570815685 589.7341530489944,686.6821042481447 600.4835450709493,695.3464194796345 C 605.4327951117577,699.3480021609328 609.8923840719274,701.6099183987787 614.1259066427087,702.7744132645892 C 614.1755692075474,704.9593039473998 614.5865463812149,707.1496516969414 615.3716813689007,709.2550243686467 C 617.0180513355351,713.6698350567876 618.884653889226,717.9669155558074 620.7527468515161,722.2427142434638 C 624.2390585439605,730.2223850950916 628.0685550123615,738.0020055824261 628.5575600642364,747.0971326788633 C 630.3786536839193,780.9413301630782 622.5024029194549,804.4003436551695 601.7138345319509,834.3651040477155 C 601.1803448408843,835.1385289152838 599.1523458301065,836.3589033577921 596.9773711001203,838.2732857111134 C 586.7105231066603,847.3100217944973 573.5015481117457,860.8684735741106 570.6100186919309,868.8085659588003 C 569.8542350207383,870.9566676539641 568.8168783539982,872.7223786093123 567.4932066938891,874.2380469922252 C 566.1695473542618,875.7537012675878 564.5595782210398,877.0193167149234 562.7354531885192,877.9522650536564 C 554.5512298169697,882.1380842613207 550.3134533006314,891.397074597531 552.4946545450944,900.3270777199168 C 554.3220643672735,907.8086319595188 560.2541253335714,913.4180210103589 567.5360492999325,915.0064762429643 C 571.7575439726982,919.3859225347121 574.118789817277,923.246347368658 574.4960255317262,927.655027204715 C 575.0361845785087,933.9677600839225 572.8601855818522,940.6113397342049 570.1895762472154,948.6429689103106 C 567.9977527031081,955.2234122307643 566.0840623272832,961.7332743897496 564.429835856088,968.2089628859937 C 563.3182584041288,964.4065353184114 562.0410578359163,961.1509502468336 560.6213904045992,958.3511259168033 C 556.7139236168516,950.6449404118125 551.4778261993538,945.5616924081382 545.5558544821065,942.4706240419237 C 539.1744738606587,939.1397598106273 531.672295043689,937.837042494845 522.7520338589716,939.7416325087795 C 518.8128286622534,940.5827032717482 514.3918843461263,942.1547908277882 509.5213132377883,944.6548608032926 C 511.9419892193784,939.9433345608302 513.1702616723146,935.4940747604383 513.5836583622297,931.0833044862943 C 514.4043350074783,922.3270269450054 511.96936950413095,912.6773652517927 504.4345501492176,899.9160354824489 C 501.85172070393213,895.5305177680013 499.09373143091176,891.0636748658817 496.2925203280509,886.5298523344536 C 489.87282513546467,876.1394327479716 483.1598415079781,865.3862564588603 478.2158941899392,854.3978824544351 C 476.8079257252785,850.65516782584 475.09166430072895,847.3820291903594 472.7754858400471,844.542340082179 C 470.0170047518015,841.3432212888274 466.63362036590894,839.0342524493149 462.62897279608165,837.6968876465903 C 459.1767357834844,836.5440021077743 455.1196594022137,836.0130901747102 450.2578022190441,837.069909129412 C 437.1357213878727,839.8586113164256 424.3009437337959,843.6107188411438 411.80181818066563,848.3095343746907 C 408.22682073571383,849.7596513882627 405.88936202784413,851.3876596828413 404.04452113276744,853.1037059734115 C 401.3658746931624,855.595347013408 399.56045341464363,858.420207449173 398.39752244154835,861.4241045178014 C 396.59855032600166,866.0709212158367 396.2952799714479,871.3798349420299 398.01483576042193,876.8437234614955 C 399.42076659597063,881.311068691452 402.7173614859685,886.2547476013387 406.04756765722465,889.5472156291137 C 406.4954139653791,889.9878793977737 407.741832085156,889.3021958447719 407.8196156209805,889.9044684507799 C 407.8972119772014,890.5049408874581 407.9709719829677,891.0813196343295 408.0377661949521,891.6347294035779 C 407.46335593293526,891.6852931754429 406.8624910029841,891.7332557073644 406.2345703093908,891.782173734741 C 400.8542848424667,892.2041480742203 395.3622442887278,893.2129944944554 389.8184219063846,894.4250937476511 C 391.4228160219382,890.7922319074985 392.3712353579028,887.1189955504788 392.76340749703996,883.8164793629587 C 393.6056273709726,876.7240714901473 391.8835882182976,870.7499605519072 389.69080454827844,866.9315604038218 C 387.34227904986386,862.8494493318044 384.9362196703482,860.2425743991516 382.8297722082644,858.456007116326 C 378.183903288684,854.5156489723786 373.5882606154382,853.1212813893442 369.3043679758694,852.7802701118437 C 364.62007826327823,852.4073859727039 359.84064485567245,853.6304277841036 355.3311066616904,856.0190448847093 C 347.832580891889,855.8866711283044 340.21902489980647,855.1397813614858 332.70778434744335,853.7500631308994 C 327.2706816983205,852.744098720576 321.6780511323089,854.0545240330102 317.2656195358846,857.3324541583213 C 314.51742116215365,852.9159719202596 310.0630430905513,849.6208333089903 304.6957272211359,848.4347163678765 C 284.7172413129163,844.0196938184163 265.02900199205845,838.3809076225657 245.74233492877352,831.5502584669084 C 239.93684441983078,829.4941609196771 233.5057289422275,830.2503234441754 228.33548215880705,833.596934472019 C 223.16523537538654,836.9435454998627 219.84203212791402,842.50118422739 219.3406958181041,848.6395813371917 C 213.0660441069005,925.4668591054176 202.82132534646547,1051.8194598763516 198.6417822003454,1085.3135722242553 C 195.03695383668924,1085.4186936452472 191.80522917586808,1085.9233002318867 189.26913547700593,1086.845914632616 C 186.73375084301557,1087.7682710801548 184.49754879226214,1089.045355154287 182.53698650001292,1090.6198679174909 C 180.22351244100315,1092.4778014540352 178.26735491038323,1094.7542600425438 176.74497082813605,1097.5502244583126 C 175.1440739856842,1100.4903830273693 173.82058583688735,1104.2726734962878 173.80332616445372,1109.3118555007818 C 171.24200386870848,1109.5467586744567 168.08726581376624,1109.3679329302722 163.64464694942416,1109.521188465483 C 176.4410390701492,1095.768756050501 191.14141119794925,1077.0439821049504 195.84708513239377,1054.3103061941742 C 220.55373249985206,934.9535890275963 197.15065240466254,874.5338384789459 182.33738220110092,835.9082187634565 C 179.65367305831268,828.9104439742409 177.25486488806746,822.7429525972293 175.63869777614258,817.0952833716058 C 172.78946880507266,807.1386998859407 162.76233347221796,801.0476611026181 152.6131749633264,803.1083022644887 C 126.75111569334155,808.3592227044226 104.84379915658263,810.4383233252704 89.29379036515274,811.9277248016385 C 74.7297959725426,813.3226844470719 64.61999705782131,814.83447907442 60.012352403682826,816.6791249056187 C 55.66046260132214,818.4206370392997 51.801258462911505,821.3749914757075 48.80055449724307,825.892607165332 C 47.16672304695231,828.3523708336195 45.71751236382016,831.4564522206535 44.756401267152455,835.26207782389 C 44.19504008755263,837.4848494526386 43.782225554382705,840.1096032572132 43.55873471529213,843.0815364576797 C 41.46520173025277,835.5534713753661 39.6521543527229,828.3197248265053 38.21946349028519,821.5331264476854 C 35.830698501200516,810.2176437937933 34.37090414802475,800.423788335331 35.103974012258334,793.1113342308875 C 46.58381142389288,791.9541867109392 63.05742816883463,789.7350851660319 79.81094461601987,785.0687718125134 C 101.50695908036477,779.0258373436657 123.31318250720648,768.7137347060436 137.57504978452408,752.7262882517903 C 140.9409766653996,748.9531094154879 142.7395306225942,744.0373139403237 142.60340215606863,738.9828296601302 C 142.45802047355016,733.5847711373751 141.5535073986806,728.7973607193437 140.56607637826016,724.0534490931739 C 140.1495030454247,722.0521071908818 139.70322551420162,720.0658600217337 139.48279797431246,717.9505126329063 C 137.4203412299683,697.7846936557448 140.5141044706785,678.4507189460369 143.41846935455698,659.0457328489026 C 143.66618246309025,657.3897908122833 143.8317218555477,656.2844391615088 144.07982879505812,654.6300406326266 C 144.84711231743995,649.6118759147389 144.8527893170251,646.1691477386441 144.29277365899685,643.1256087465422 C 143.85174988479838,640.7287595978178 143.16619645667896,638.3699476291413 141.8584465579553,635.9129095811882 C 145.45443775842926,633.0563760636064 148.07407273762811,628.949563606893 149.00093062819667,624.1126204310276 C 149.30745833963738,622.7070874972399 149.45838456171498,622.0274206233912 149.7589458808646,620.5015301874482 C 155.69300351497287,587.7739019053845 155.07556094083702,558.4714722072636 145.40621036756664,526.4398774289373 C 143.15461331631508,518.9810265161225 136.7463100068183,513.5300755702065 129.0228720908297,512.504086789238 C 121.29943417484105,511.47809800826934 113.69027412966938,515.0669558945963 109.56944783777749,521.6792880771818 C 102.09585433352714,533.6715147199188 90.70174988480665,540.4300881978431 78.90341328758183,546.7274027382955 C 68.92980252174198,552.0270147824119 62.67571123737025,558.1965472344907 58.55428075303479,565.311320184414 C 55.069692633532384,571.3267202714685 53.04613892886567,578.217102248344 52.472091423066445,586.6165199747352 C 47.78231099922772,587.2750388286356 43.44987895414846,589.5964837346269 40.29482426030546,593.2043497368845 C 37.879449560996704,595.9663773737923 35.792554660468795,598.9960593125634 34.07412832186594,602.2324145048356 C 31.10423628712448,600.5949921429926 29.361230469501038,598.6954389219347 27.96396681803401,595.6191818963316 C 27.155763236032044,593.25049766049 27.45268254536944,590.6267786798446 28.14170147537584,587.4233487905537 C 29.040187137972566,583.2494079647395 29.93755666727054,579.0619379125496 30.83721484559925,574.8637746646343 C 37.487732412601645,543.829811875255 44.25674079971964,512.2027026321664 52.57112877015578,481.15941594334157 C 54.56892835979585,473.64948515956627 55.42175963665227,464.5437715294242 56.10129094320342,456.0212698765924 C 56.27349520204541,453.861529675579 56.44092699396646,451.74896945191546 56.635270191683674,449.73867126827844 C 57.595839832166234,439.80247887152365 51.025338369894484,430.6995427488757 41.292233727977305,428.4820469971244 C 39.059158294991676,427.97328484278984 36.81912813999344,427.86330587494075 34.651355407023345,428.1090850647508 C 35.80481436106612,426.4258196363489 37.28096810540217,425.2751447701914 39.52060955836731,423.9525746443996 C 43.35061010949903,421.8196978200836 48.39782928026045,420.15912520400303 54.960687957555365,418.73499110356437 C 59.652011017509324,417.7123754225972 62.9399590385604,416.0223214034132 65.38701076862708,414.29576278138774 C 68.57677638327004,412.0451698509091 70.81593588628084,409.4514438420162 72.39960219672093,406.6306309463676 C 79.02344538817249,408.6984963257576 86.10791602507697,409.66175108037334 93.90235551213647,410.1372939358153 C 126.83684525077643,412.14577488574884 157.0232043231261,417.92775632470506 184.39165594130463,437.3101872732852 C 219.4161432877392,462.1216875907408 241.3858337578917,500.40652135594854 262.8634690057134,536.7106523971067 C 263.2491291284827,537.3625423967651 263.6345006059566,538.0139444023312 264.01964262007203,538.6647835024196 C 264.5054871546937,539.4857965524297 265.0499070773588,540.2707037697451 265.648666369154,541.0133979535096 C 268.0814735464538,544.0310241775367 270.27339758881715,546.4406908972635 273.0236409461166,549.19983177874 C 278.38031699098775,554.5738376189879 286.3326530229754,556.4225915469187 293.51056725635914,553.9626191326627 C 300.60804376322454,551.5302138614325 305.719512218524,545.3062535287611 306.736411520799,537.8873804029363 C 308.1354310185396,537.417136102365 309.49261706879594,536.7869920486703 310.78034993681416,535.9980296451797 C 311.1533282047761,535.7695149912099 311.5170824287031,535.5297584962252 311.8712844127892,535.2793461334134 C 314.7828239326089,540.3642092547677 319.8946877101825,544.0731989221499 326.0316410174891,545.0329928420701 L 329.5278369341077,545.5797833121271 C 327.6839060995613,547.7850964755282 326.2982200818448,550.4173846995532 325.5421629023194,553.3533075266078 C 324.49137222390567,557.4337400954082 323.49341747082013,561.4468486288429 322.5261936101387,565.4260633028987 C 321.92566546883546,567.8977421275106 321.34295738453903,570.3489780912405 320.77758609853817,572.7816863438889 C 316.9856582793861,588.6353019885589 314.0243879794213,604.6763010953734 311.90588597219454,620.8388790626727 C 311.29453092337354,625.5030585671361 312.36358642279896,630.1865184980186 314.84772696287456,634.0837138144841 C 311.7943974651185,637.5152466532918 309.99524137075633,641.9384185147765 309.83984706983364,646.6155708334959 C 308.38603102301437,690.373411719544 318.44576712982604,729.1644300837572 347.5993512814878,767.1251153486085 C 352.1754937358757,773.0836795695445 359.72443636384247,775.9467750318081 367.10103966647847,774.5215413480182 C 369.2316518391386,774.1098857240154 371.24233836193383,773.3608694389529 373.0734751920725,772.3293974602702 C 373.10875696086936,772.3668720981116 373.1442028467946,772.404230012108 373.17981258419985,772.44147013936 C 378.02549676709515,777.5090137031227 385.18580158659614,779.6431192512475 392.01510464207314,778.0552676374477 C 413.61551373573815,773.0330502662905 432.7718918235532,762.3114444212006 449.345717228913,747.6197001755686 C 465.0243994707027,733.7214489287292 478.38788191854536,716.2303765917923 489.27766852581857,696.8855422934676 C 491.6528609367246,692.6662030839252 492.38300158420253,687.7655309996669 491.4125549591827,683.1058844354723 Z M 85.6711366065328,989.0942213918029 C 82.38283799034178,991.7167218712252 80.25330835020901,994.2655105105575 78.79168354075625,996.5164902515191 C 75.23498652819694,1001.9939923219774 74.40804286675291,1007.1642288973246 74.80709559336975,1011.974997366922 C 73.17194985666578,1012.9189886382017 71.41276217889202,1013.0773981625339 68.93566448830921,1013.2212203774909 C 67.464783329373,1013.2655361622185 66.13439431099027,1013.2776565005952 64.92336375327096,1013.1105393914761 C 70.44469093199103,1005.0156502523528 75.38770065395335,996.5139890930259 76.87425743561465,988.7692175810321 C 77.10663844240628,987.3289138946652 77.20294011129232,986.6354055837178 77.3430975701923,985.5078132473766 C 77.54574594275851,983.9851254965188 77.89342654834138,982.7225607130792 78.2054478503427,981.469636172237 C 78.47194419548543,980.3995175337582 78.75157005252805,979.3333590520213 79.0204112177858,978.2325960013691 C 81.06304717461813,981.7075618174715 83.08981728106414,984.971236974015 84.9884477249272,988.0057302319171 C 85.21842387697166,988.373290483104 85.44614746488782,988.7361180275748 85.6711366065328,989.0942213918029 Z M 129.51249770011532,620.3782354739462 C 105.98439395126104,617.4099709172817 88.52718853209967,608.0745481924353 72.14952374480941,590.994817740529 C 72.31114454923107,578.2864039037051 76.16980752758388,570.6502930757656 88.20340728784942,564.2561531372296 C 103.07036275300845,556.3229730176904 116.99322607347437,547.28434976674 126.40986392708697,532.1742885506897 C 135.12497575149052,561.0447828296737 135.58339602980823,587.4599360064265 130.24100549967847,616.9245688686099 C 129.99870920189784,618.2466756159652 129.7556034510066,619.109552631892 129.51249770011532,620.3782354739462 Z M 316.76515301620765,51.832838025596914 C 314.837151575067,49.02824184011348 312.18429776133297,46.71254672003141 308.9934021973327,45.18250364342816 C 306.3089726948289,43.895312416841534 304.21447704996973,41.795711123270166 302.91691712533174,39.284351415438664 C 301.61935155723876,36.77298078499365 301.1187277938291,33.84984828704279 301.6220491054016,30.91560472382554 C 302.12536774631866,27.98135374986606 303.5715371835583,25.392180982737386 305.6318607435117,23.4568156388479 C 307.69219307857037,21.521442052061502 310.3666847401867,20.239879956195693 313.32663915602274,19.920888134489985 C 316.2865949955927,19.60189851926043 319.17272819147007,20.28419687311225 321.5981077300493,21.736149997926134 C 324.02348533786477,23.188101966888553 325.9881094507263,25.409707332007883 327.10505035838895,28.1693297528617 C 328.22200126727006,30.928966406171583 328.3556789900326,33.89162588809182 327.6229887538107,36.621778725826175 C 326.8902948359262,39.351945282184545 325.2912256664949,41.84960324395246 322.94267666440413,43.67919862208112 C 320.12272899101964,45.87602876068843 318.0395005601559,48.70659001811697 316.76515301620765,51.832838025596914 Z M 871.3831652018689,410.1727052026493 C 870.521300662652,393.86868010707207 867.5505278090291,377.45053438929466 861.4152680733339,362.5288712859405 C 857.0363375860022,351.8788045732287 851.0739917153337,341.9652110707795 843.2248637050784,333.24423340754487 C 835.2760773212544,324.4125277183808 825.3967430704181,316.78556772519863 813.1560558697856,310.9325339192288 C 785.2432092983918,297.58591046404234 758.8145390583666,295.9360691247976 733.9056165349996,299.9256215240302 C 711.1419940543285,303.5715706652582 689.726511269416,312.14279682721934 669.8121222899424,320.2794735510881 C 649.3929531883105,328.62239474848144 631.2959587484895,337.64234378931866 614.9064735788886,334.1875000536018 C 612.2477178418608,333.62736956221653 610.1372208095909,332.93544105665893 608.5912773319974,331.75723165438416 C 607.7746897342602,331.1348860127867 607.257194056969,330.3343590756845 606.8593368262739,329.47413882350753 C 604.3744628511272,324.10151077350537 604.5061653543298,317.4358160636585 604.1064258788974,310.75672153380214 C 603.377646271985,298.5798208643541 602.1261287571601,286.313769280136 597.2609261219243,275.9428688324695 C 594.065157081794,269.1306135054485 589.4874006442506,262.9940193975104 582.9062651014028,257.8477548736608 C 577.0627703815883,253.27830490927494 569.5040104532613,249.41643602873575 559.4548218532,246.96130917428962 C 510.0746939007427,234.92133614439052 357.9959259298617,270.7079142533607 324.2250440657287,279.26270218840085 C 322.8316035940857,279.61568638890134 321.50424349606027,280.11127097012394 320.2569518527451,280.7314825803664 L 320.2569518527451,72.46353763117372 C 325.39385331159536,78.28886999858406 333.6244611162152,80.6945698304537 341.2826479309054,78.20021893186845 C 407.7386982233076,56.55479387573098 487.89361710515385,43.352339811852175 547.3738733641244,43.044813086137594 C 574.4107406616972,42.90502620900304 596.8261475997801,45.096661770330456 610.5530811583001,51.28849431015402 C 612.496061311313,52.164917852554765 614.1867333818777,53.07626385097086 615.4992990080855,54.20705189462319 C 615.2402933729325,55.03118668401157 614.7887245155971,55.89769347457701 614.2663813370518,56.85151212169387 C 608.2150695116743,67.89809017096991 605.3211648338095,77.97959783182637 604.7472825936877,86.89801666574903 C 604.0367101211593,97.94067050448331 606.6818324753231,107.6147723974126 612.0244210999513,115.96283245084174 C 616.8615280708912,123.52105231679201 624.0786910729437,130.06904832896402 633.7360499505608,135.13289494299562 C 641.5574563039308,139.23405785734843 651.159820489595,142.42922774906816 662.3504165765214,144.46589958573537 C 700.5298132007313,151.41449296194668 759.9634510620926,144.76378133171698 825.8798272805325,122.02634780941605 C 850.5462046032508,113.51863674158596 878.4981400037932,113.86164717149256 905.6573513563451,121.64647283243477 C 933.7131280928731,129.68828700152216 960.9286032196703,145.68846362841992 983.139304617152,168.5824418427365 C 1005.4658465930042,191.59582428612674 1022.7082451422541,221.59310191850153 1030.6949722616293,257.54762696541394 C 1035.6305083704938,279.76634734908856 1037.0262250731355,304.2055866681124 1034.0274522478132,330.6483145690783 C 1030.8462320277176,325.25392657144954 1027.3726165023336,319.7281042775755 1023.6083109874271,314.2089273404519 C 1011.3663398948299,296.25990480451884 996.0721347678616,278.46229436437153 977.9656471403664,265.0457946234664 C 958.2900503920907,250.4666203459256 935.3657951448981,240.99774966234742 909.4288715158802,240.9163618950211 C 903.4004640990645,240.89744528689886 897.6903621700726,243.62006856719137 893.9099827448406,248.31589492923496 C 890.1296033196086,253.01172129127855 888.6889468403247,259.1714656426753 889.9945731887049,265.05681980870446 C 902.2375963900138,320.2445292877666 888.9253955061224,371.2604366922539 871.3831652018689,410.1727052026493 Z M 363.33678940723547,755.038854957641 C 337.27347851590133,721.1019936592506 328.37219247605384,686.3939933641375 329.6719043540152,647.2744736161142 L 388.88420884939734,663.8658340246095 L 363.33678940723547,755.038854957641 Z M 341.8077650239231,570.1128162103103 C 342.7540157102446,566.2198863836074 343.73021616165926,562.2937689793694 344.75822161215393,558.3018160554668 C 350.74844444848776,558.7286676624701 356.644770723989,559.301760464793 362.44989861569314,559.9795425360903 C 373.5755618035402,561.2787147786446 384.3213216648001,563.0004215449455 394.59085327930865,565.0003103635981 C 401.7611688117003,566.4075895660383 408.6696712324219,567.9191982805146 415.3163605414731,569.5351365070269 L 395.435922326802,640.4842412887785 L 335.8655697388197,623.7919690591584 C 334.47141216116705,623.4103513681573 333.01980477943204,623.2835982284437 331.58059478887066,623.4177319043458 C 333.6121296383282,607.918647982955 336.4529638513704,592.5363146316865 340.091454611693,577.3339474102022 C 340.64637968864434,574.9452512807457 341.21848315938763,572.5382075474483 341.8077650239231,570.1128162103103 Z M 431.12751956049107,557.5453437910714 C 428.38362419284493,553.9267056510485 424.46310630914735,551.3378752610697 420.00402798226065,550.2537874109553 C 413.07953595062526,548.5703099904204 405.88242793712,546.9948838116277 398.4124243820053,545.5287864554127 C 392.83500009188305,544.442627440314 387.1316679869521,543.4362329214096 381.31248542868053,542.529502101326 C 383.40513102641006,539.5741795722959 384.670503446802,536.0717600390615 384.91728284739537,532.3882542916958 C 386.55742141365766,507.9070381902837 391.94670009905275,488.7129253989215 403.3763250295214,465.21851551248795 C 405.5246309655203,462.0706607328414 409.82754593161707,455.27183482534764 411.71057534616153,449.1536499969654 C 412.6172545893418,446.2077421173594 413.0899743283721,443.31721015314275 413.1557833691256,440.65616974995413 C 413.27017767512046,436.03054587423463 412.2298580902721,431.8342974017973 410.2965097904519,428.18946817428986 C 408.2813036087385,424.39031703776385 405.3062591087175,421.02192498241135 400.8946533645065,418.53493786613745 C 400.63131843138757,417.77510437660584 400.37652101611064,417.0767027565111 400.1351379956754,416.473245205423 C 399.81882063896825,415.69213471441975 399.5337487567111,414.98534250214124 399.2457648357417,414.27135445964444 C 395.3621066048358,404.64274210977516 390.86984703185266,393.9868807494469 384.7282932404095,384.6820424753326 C 389.5755321455658,379.3827653915478 393.966623631765,371.6111535192595 400.3664503510982,370.86287069381336 C 405.1615532106362,370.3022159646469 409.58712345941404,368.0127533343818 412.8148855785311,364.4243503558602 C 416.9022246628229,366.8615817334989 419.92871810923197,369.1831682331646 422.3703348165797,371.99700582784664 C 423.86417238358666,373.78276212673944 424.8769900718078,375.6710130444815 425.41221433330776,377.72835603652237 C 427.0999080219063,384.2156643158957 425.2946502713665,391.552120183607 422.54194391827804,400.2014165500055 C 420.1321705573129,407.76814280606953 419.6096322014883,413.7549104038483 420.53577449364985,419.39733693208126 C 421.5219706284245,425.4056353112713 424.08833598810673,431.40538281046116 430.0481419645027,438.2757146999177 C 437.9564356458539,447.39066318717806 458.67575677171027,478.16856575212927 461.81402894304296,484.75910082737613 C 466.40339575051365,494.4572917194702 467.57241127731305,500.95151653379395 468.7695999933831,507.2642521369283 C 469.7920660682635,512.6556811633243 470.8390747401964,517.9537494920364 472.8545907392483,524.1193001847621 C 478.5663052252135,541.6842130804471 485.3305735433992,558.0810041682339 492.804870593525,573.9794647409069 C 476.98363055711076,567.3007154525399 460.7755598617859,561.5623280753839 444.26511133856053,556.7964036073702 C 439.9072055806917,555.5384456753668 435.27327936898865,555.817163002007 431.12751956049107,557.5453437910714 Z M 471.9861728163799,687.1516414756832 C 452.4238496741845,721.9025427856595 424.2284392894623,750.1931988197321 387.52135962880715,758.727802600466 L 412.2663412206354,670.4178173197176 L 471.9861728163799,687.1516414756832 Z M 438.7619000730437,575.8610125665671 C 460.48356471428446,582.1312124859728 481.65683518832594,590.1650760726911 502.07057694359895,599.882343077496 C 498.37706046937313,622.3605914434572 491.92672477803313,644.2979170434885 482.8654924408931,665.1979240269959 C 482.2473571929136,664.8920871379144 481.6040728929783,664.6397319480989 480.9427714854534,664.4437835455963 L 418.81805469804004,647.0359547661831 L 438.7619000730437,575.8610125665671 Z M 490.83824858925703,392.05316109245877 C 485.6057625171041,386.9504700374959 480.794168548218,379.86077452195974 476.018231027387,370.94839053091795 C 474.8346097451495,368.7404833595305 473.7533375227485,366.57346300219996 472.70028474552606,364.46838418528677 C 468.9598197309737,356.9911011489059 465.33687850217706,350.18726361036187 460.4706476538004,344.3911789527161 C 456.4318803106177,339.58067197863164 451.64163489279,335.34058995380923 445.4400128844405,331.92392200791625 C 446.66448899463234,331.4403694462425 447.8988308598012,331.06580093770634 449.1388566621958,330.8041991376735 C 452.41959558974867,330.1120786937051 455.70692596653356,330.23992524682916 458.81537024238827,331.14926715195674 C 462.17929132909563,332.13334604744995 465.3164257537165,334.007007316384 468.0944989794918,336.58446906538853 C 471.40277359611815,339.65384506327194 474.17511712504194,343.67776268589574 476.31013064085363,348.4782415807536 C 476.4892983485839,348.8813587649349 476.6677501237007,349.2836930189032 476.84578414214826,349.68508068578006 C 480.6006094920278,358.1505447575367 484.39017464400985,366.174260912232 489.64109012467264,372.92738434104393 C 489.3498959078607,376.475621647285 489.737651832831,379.89655235506876 491.0322153368757,383.3119769473647 C 491.84467363731636,385.35423860521354 492.80322193711294,387.1986958536017 493.8824810887041,388.8662569606733 C 492.694393284614,390.21286398994374 491.8939013470127,391.27691051953315 490.83824858925703,392.05316109245877 Z M 739.9195008772645,977.9786297600829 C 738.3836408594061,978.484720623349 736.8906533426273,979.185719915554 735.4763077116065,980.0854456188338 C 730.7884848081276,983.0675701195048 727.7119116316283,987.7574676057973 726.6726638846872,992.916533248206 C 721.0790302198868,991.2264682267983 714.8618344462384,992.046473216448 709.7868838250706,995.4889105056457 C 709.224424130186,995.8704378094317 708.6867060852439,996.2769120776968 708.1744765229089,996.7060432959036 C 706.5355317462847,993.9040823678813 705.1048545529354,990.959405215892 703.8506416387352,987.8981952552467 C 694.7707406976706,965.7365009466023 694.3526378218282,938.1012718775094 695.2670286517441,910.5234882848015 C 695.5914319315673,900.7395718728774 688.7321905752433,892.1809627987413 679.11248943239,890.3666839431992 C 677.4858941072837,890.0599075204143 675.86256508355,889.9614625440852 674.2721360563535,890.0542892554977 C 678.2262275456044,880.4930555776098 683.0991084949765,871.0985347863063 688.3896155310085,861.5590994610131 C 690.7753115366975,857.256084781312 693.2897630628388,853.0127284447478 695.7968957159467,848.776573662275 C 706.6819732456815,830.3846975172232 717.0089666472386,811.9260061733751 719.9837824226456,791.0283525672094 C 722.2113177020701,775.3810309953449 722.3634198469285,761.5692096945115 720.528622061335,749.5916119459573 C 718.4110239599199,735.7678879088971 713.6644731508331,724.1353778969847 706.4884375217202,714.5356481149922 C 699.1519716972293,704.7213031047461 689.2386896298199,696.9276993248686 676.3524685130428,691.4201674640856 C 674.0354238412747,690.4298695918874 671.6128890670016,689.51274196504 669.0827778285807,688.6716500247342 C 680.0712409776122,686.2484013306255 690.914753734116,685.634903868681 701.4563943329456,687.0148717967995 C 720.5263116722995,689.5112454943717 738.4242046288414,698.6317409897883 754.2351922900684,714.5857036167581 C 770.0456340785806,730.5529761786277 774.6970638534606,749.2067175947404 777.2321838929838,770.332717924101 C 781.0144802677391,801.6334588810794 773.9793237734691,829.982969187015 761.8143901006424,858.8204048842272 C 759.7024553260987,863.8286570911143 757.3025536986984,868.6847824442675 754.9080930011858,873.5548929304152 C 750.3779187268874,882.7688463105058 745.8963444370493,892.0378827960253 742.6719757111714,902.0582911793492 C 737.7856548144298,917.2205987149164 735.0137281609398,931.4500800055939 735.0058570916783,945.672867203599 C 734.9999732206622,956.3048464916967 736.5053083502144,966.953065656746 739.9195008772645,977.9786297600829 Z M 355.2821913211024,379.600201911144 C 355.8628390191247,379.04302835333004 356.4478038004035,378.4936795089188 357.0311496754611,377.93947394584364 C 356.2464602156671,378.2319757108 355.61490062285355,378.83169546586606 355.2821913211024,379.600201911144 Z" cricut:graphicId="'CCD7C865-054B-4E73-8B0A-13549D7C533C'" cricut:layerFillColorOriginal="'#000000'" cricut:layerGraphicId="'CCD7C865-054B-4E73-8B0A-13549D7C533C'" cricut:layerImageDetails="[{'ImageSourceId':1348503457,'ImageSourceLayerPathIndex':[0,0],'ImageSourceName':'Knight','ImageSourceHeightDefault':7.0,'ImageSourceSingleSetGroupId':13001913,'ImageSourceUuid':'4f08bad3-01eb-4a2f-ae9c-8bc391c5ea57'},{'ImageSourceName':'Offset','LayerOperationsUsedSet':['Offset']}]" cricut:layerName="'Path0'" cricut:layerNativeSize="{'Width':1055.4431199349517,'Height':1129.458094814166}" cricut:nativeSize="{'Width':1055.4431199349517,'Height':1129.458094814166}" />
            <defs>
                <g id="components-2">
                    <g transform="matrix(2.6981770354190693,0.0,0.0,2.698177035419069,-2.5361283064739837e-06,1.3620206459563633e-05)" cricut:graphicContainerSubtypeName="'GraphicGroup'" cricut:graphicId="'6CE49849-E431-4FC3-AD1B-F7580F1529DB'" cricut:nativeSize="{'Width':391.16896559421826,'Height':418.60044021860995}">
                        <path stroke="rgb(0,0,0)" stroke-width="1.0pt" fill="rgb(0,0,0)" fill-rule="evenodd" transform="matrix(1.0,0.0,0.0,1.0,-74.7155990600586,-40.6922492980957)" d="M 206.3905,181.3799 C 206.513808922055,181.095075677804 206.747877919205,180.872807180521 207.0387,180.7644 C 206.8225,180.9698 206.6057,181.1734 206.3905,181.3799 Z M 460.5557,185.7549 C 460.5557,185.7549 443.6458,137.4351 411.7456,137.335 C 422.2056,184.4854 386.7856,224.1353 385.6855,225.355 L 385.6558,225.3853 C 385.6558,225.3853 402.2156,176.5752 372.9155,162.565 C 343.6157,148.5552 319.4556,175.6153 301.0957,171.7451 C 282.7256,167.875 300.1257,144.2051 280.3157,139.3653 C 262.7488,135.0821 208.7021,148.2779 196.686,151.3218 L 196.686,235.4268 L 210.0361,237.5147 C 210.7214,227.2857 212.9736,219.2962 217.8357,209.417 C 218.0056,209.0672 223.5657,201.9971 218.0657,201.8372 C 217.3257,201.8172 216.6857,199.0271 216.1857,197.7771 C 214.6458,193.9771 212.9357,189.4971 210.2057,185.9671 C 209.2556,184.7371 207.9257,183.3472 208.6357,181.647 C 208.7556,181.377 209.1857,181.107 209.2656,181.0271 C 212.7356,177.7271 217.1157,171.437 222.2456,170.8372 C 223.8557,169.0371 223.7456,167.2871 223.6057,164.937 C 223.534834867068,163.000915881223 223.9219710496,161.075454203901 224.7356,159.3172 C 227.9357,163.0972 228.5457,162.6573 232.5156,159.5371 C 241.6556,152.357 253.0557,155.8172 257.9656,166.857 C 260.3257,172.167 262.3557,177.1172 268.8157,178.9771 C 267.0356,179.397 265.2957,179.647 263.5356,180.0371 C 265.7356,185.5672 275.1957,180.607 278.2556,178.1971 C 278.4956,178.0071 279.0156,177.3672 279.3057,177.1172 C 276.8958,185.3672 271.2556,188.147 263.1857,189.7771 C 268.7156,192.0972 272.4756,190.8072 278.1458,189.127 C 263.3557,200.2471 253.3958,197.9571 244.6556,181.647 C 241.6857,176.107 240.2756,171.187 233.6357,169.0371 C 232.920784786581,168.74005693572 232.096340258386,168.924151454926 231.5757,169.4971 C 240.6757,174.917 241.3557,181.7271 238.3257,191.2471 C 237.3958,194.167 237.4956,195.8172 239.6556,198.3072 C 242.8657,202.0071 251.2456,214.5271 252.5156,217.1971 C 255.8257,224.187 255.2556,227.4571 256.9557,232.6573 C 262.2156,248.8372 270.0056,262.2371 278.1556,276.9571 C 279.849889759643,280.313109141507 282.800385247166,282.864703984023 286.3657,284.0572 C 291.998806827433,286.022310307533 297.252041923125,288.941452860458 301.8958,292.687 C 304.5056,294.7971 306.0356,294.4671 308.9257,293.0572 C 327.0256,284.2771 345.2256,285.9771 359.4756,300.357 C 366.5857,307.5371 368.9357,315.8172 370.0757,325.3172 C 371.6357,338.2271 368.8557,349.9471 363.8357,361.8472 C 361.6556,367.0171 358.7256,371.7971 356.9656,377.2671 C 353.8457,386.9471 353.2656,395.4073 357.5256,405.127 C 360.4056,411.687 366.0156,415.3372 372.9156,417.3272 C 363.7856,419.0071 357.7856,416.5972 351.2456,410.1372 C 353.7556,417.1971 359.2656,420.4571 365.3257,424.4771 C 355.8657,424.7671 348.9756,421.9671 341.9056,415.7271 C 343.9357,421.3872 347.9156,424.4771 352.5757,427.9971 C 326.5557,423.147 324.2957,400.5271 325.0457,377.9073 C 319.6957,393.0471 321.0557,405.0572 329.3257,418.7671 C 320.743404542002,412.913563600106 315.130172331789,403.617804157775 313.9457,393.2971 C 312.2156,379.437 316.9156,368.1573 323.4156,356.437 C 327.6957,348.7171 333.0457,341.4671 334.2756,332.8272 C 337.1157,312.877 330.0056,302.2971 309.6757,300.9871 C 311.6857,306.377 314.6957,311.2371 315.0156,317.187 C 315.7856,331.4971 312.5557,341.4471 303.7656,354.1172 C 302.7656,355.5672 294.3257,361.857 293.1057,365.2071 C 291.977364307741,368.41999389124 289.657467862814,371.076403006587 286.6257,372.627 C 288.1656,372.6172 289.0457,373.3872 290.0857,374.437 C 296.4656,380.8872 295.7356,386.427 293.0156,394.607 C 288.5156,408.1172 287.4357,420.7771 288.3557,435.1971 C 288.6357,439.4871 287.9357,443.1172 282.9956,445.0371 C 280.5156,445.9971 279.4457,448.1573 280.1656,451.2271 C 281.6357,457.4671 280.5056,459.1573 273.8057,459.2771 C 270.8857,459.3272 267.5457,459.2471 264.4056,459.1573 C 262.0957,459.0972 259.2456,458.937 256.8857,458.7971 C 258.6357,454.3072 260.8157,449.2971 264.4156,446.2371 C 271.2957,440.3672 273.5356,433.667 275.3257,425.3272 C 276.5256,419.7171 276.8857,414.5772 277.5256,409.0572 C 277.735421089793,407.418463629294 277.70851356526,405.758081575586 277.4457,404.127 C 275.9656,396.127 272.4956,393.7571 265.2256,398.3072 C 257.2156,403.3272 250.0156,409.8672 243.2456,416.6372 C 241.095177447796,418.70214603276 239.896785502457,421.566030340821 239.9357,424.5471 C 239.8157,428.7371 238.4056,431.5572 233.5857,430.8172 C 232.6458,430.667 231.3657,431.4471 231.3157,431.927 C 231.0557,434.3872 230.7256,436.7571 232.0757,438.177 C 233.4257,439.5972 232.9056,440.917 232.4656,442.3872 C 231.324380950588,446.029426894705 229.277083485416,449.32226018289 226.5156,451.9571 C 224.0457,454.4871 221.3157,456.8272 218.7256,459.0471 C 217.2756,455.9971 216.4457,447.9073 216.3457,445.7171 C 216.3257,445.427 216.3157,445.2171 216.3157,445.0672 C 216.3257,445.1971 216.3357,445.2771 216.3357,445.0872 L 216.3357,445.0171 C 219.0356,442.107 217.6857,437.7371 218.8057,434.357 C 220.1357,430.3372 221.4956,426.6573 222.9156,422.6971 C 224.086823966757,419.289982624053 226.189708781956,416.279412005421 228.9856,414.0071 C 237.688700101454,406.954487859261 246.010454152127,399.443876049247 253.9156,391.5071 C 258.7256,386.5371 258.8257,383.8672 255.3357,377.9571 C 252.0557,372.3872 247.9856,366.4571 245.2456,360.3672 C 244.7957,359.397 244.5557,357.7771 243.0957,358.127 C 238.615386622805,359.078380406074 234.212977975027,360.365376983053 229.9257,361.9771 C 228.4056,362.5972 229.4756,364.2571 230.3757,365.147 C 231.5957,366.3472 232.9257,367.7871 233.1556,369.5672 C 234.0356,376.377 232.9056,377.9871 225.8457,378.5371 C 219.7256,379.0171 213.1656,382.0271 206.9156,381.2671 C 205.3157,381.0772 204.7156,381.1172 203.3257,380.9971 C 198.9656,378.2771 204.7456,373.0772 207.4257,372.8672 C 212.2057,372.4971 213.6556,367.2071 212.7656,365.6573 C 210.8958,362.4073 209.6458,365.1573 208.0857,365.2871 C 204.263732688761,365.353474813799 200.444744672317,365.036537186284 196.686,364.3411 L 196.686,459.2925 L 186.0552,459.2925 L 186.0552,362.3206 C 178.356520874081,360.619277782784 170.769687787372,358.446380251933 163.3376,355.8142 C 160.6814,388.3369 155.9888,444.3955 154.917,447.968 C 153.4014,453.0196 146.1609,447.7998 146.4976,452.1778 C 146.8345,456.5557 145.4873,458.9131 135.7209,459.25 C 125.9546,459.5867 125.0453,457.9029 123.4794,455.2085 C 121.9133,452.5144 137.2312,443.8054 140.099,429.9507 C 150.5918,379.2605 136.5291,358.7871 132.7405,345.5479 C 115.5647,349.0352 102.9502,348.8885 99.6924,350.1971 C 94.8524,352.127 102.5824,380.1573 105.9724,390.2971 C 109.3524,400.4471 117.0542,407.7842 115.6042,410.6741 C 115.1843,411.5142 113.5742,412.2442 111.4443,412.7342 L 111.4343,412.7342 C 106.6042,416.1543 114.0542,417.4441 111.4443,420.6643 C 108.8442,423.8843 92.0942,425.1741 89.8342,420.6643 C 87.6743,416.3443 95.0343,410.7141 95.9844,405.7642 C 96.0143,405.5642 96.0443,405.3443 96.0742,405.1243 C 96.0819256377547,405.023588000053 96.0953135050374,404.923392726419 96.1143,404.8242 C 96.6943,400.4241 99.1324,399.6971 93.4023,384.0171 C 84.2224,358.8872 74.0724,328.4471 85.1924,327.4871 C 92.9631,326.8086 111.426,324.6258 120.2158,314.7725 C 120.1444,312.1214 119.3517,310.0 119.0957,307.5371 C 118.2156,298.9471 119.5757,290.7271 120.8057,282.4571 C 121.0757,280.667 121.2356,280.0872 120.0457,278.917 C 110.465562845233,277.353639332926 101.700308575899,272.58324549419 95.1857,265.3872 C 94.5582916643713,266.104653554154 94.0333021397215,266.905560908106 93.6257,267.7671 C 91.1656,271.6372 85.5056,272.857 82.0256,269.4771 C 78.2057,265.7671 76.7856,262.2971 77.9557,256.857 C 80.7756,243.7571 83.5657,230.2971 87.0957,217.1172 C 87.9257,213.9971 88.0657,209.9771 88.3857,206.667 C 85.5056,214.5171 83.0757,217.397 74.7156,219.3472 C 83.4357,205.5872 72.4656,193.2671 93.5256,188.6971 C 95.8657,188.187 95.3757,186.8072 95.1656,185.2771 C 94.7856,182.5371 93.9756,180.5071 93.4156,177.9571 C 95.3657,178.0872 96.6057,179.5071 97.8157,180.7271 C 101.3557,184.3172 105.2156,185.0672 109.9656,185.357 C 123.5757,186.187 135.9956,188.7571 147.3057,196.7671 C 161.3657,206.7271 170.2856,222.0371 178.8958,236.5872 C 178.9656,236.7171 178.9257,236.667 178.9056,236.687 C 178.9056,236.7071 179.0156,236.7271 179.0156,236.7371 C 179.671559948472,237.544436592823 180.371557210511,238.314962645125 181.1124,239.0452 C 181.284988796207,237.654200326562 181.58488122595,236.281979855123 182.0083,234.9458 C 182.43171877405,233.609620144877 181.0417,232.7454 181.6459,232.2449 C 182.2499,231.7444 182.9747,231.503 186.0552,233.0733 L 186.0552,64.0691 C 181.102030999514,61.6940420313404 178.325886935168,56.3209563418826 179.254585071055,50.906867041978 C 180.183275772606,45.4927786810525 184.591375971579,41.3520331788246 190.05291531121,40.7634491010522 C 195.514456820099,40.1748665447862 200.70357108754,43.2813289239379 202.764488304323,48.3732306708797 C 204.825413066392,53.4651317274105 203.257805372421,59.3063375275196 198.9244,62.6822 C 249.6265,46.168 321.2451,42.6167 308.8257,65.295 C 295.7756,89.1153 332.5156,94.795 378.4058,78.9654 C 420.4456,64.4654 484.8757,108.7652 460.5557,185.7549 Z M 122.7156,270.6172 C 122.8057,270.147 122.8958,269.8272 122.9856,269.3372 C 124.9656,258.417 124.7957,248.627 121.5657,237.927 C 118.0757,243.5271 112.9156,246.877 107.4056,249.8172 C 102.9457,252.187 101.5156,255.0171 101.4557,259.7271 C 107.5256,266.0572 113.9956,269.5171 122.7156,270.6172 Z M 209.3757,320.5252 L 218.8441,286.7346 L 196.8988,280.5855 C 196.4171,295.084 199.7161,307.9475 209.3757,320.5252 Z M 249.6434,295.3648 L 227.51,289.1629 L 218.339,321.8924 C 231.9434,318.7293 242.3932,308.2442 249.6434,295.3648 Z M 237.3298,254.1182 L 229.9382,280.4971 L 252.9629,286.9488 C 253.207991926454,287.021422515102 253.446406341628,287.114950547734 253.6755,287.2283 C 257.033779393158,279.482326808044 259.424406696951,271.351901964878 260.7933,263.021 C 253.227546720174,259.419580642691 245.380296448565,256.442065275368 237.3298,254.1182 Z M 201.3966,251.9878 C 201.1782,252.8867 200.96616666666668,253.7788 200.7605,254.6641 C 199.412000360221,260.298410507399 198.359128671021,265.999420170347 197.6062,271.7437 C 198.139600874616,271.693987296148 198.677596477825,271.740964621227 199.1943,271.8824 L 221.2723,278.0689 L 228.6404,251.7737 C 226.177,251.1748 223.61656666666667,250.61456666666666 220.9591,250.093 C 217.153,249.3518 213.1704,248.7137 209.047,248.2322 C 206.8955,247.981 204.7102,247.7686 202.4901,247.6104 C 202.1091,249.0899 201.7473,250.545 201.3966,251.9878 Z" cricut:graphicId="'7A65F1BD-8F4D-4678-B234-DEB9E6502779'" cricut:layerFillColorOriginal="'#000000'" cricut:layerGraphicId="'7A65F1BD-8F4D-4678-B234-DEB9E6502779'" cricut:layerImageDetails="[{'ImageSourceId':1348503457,'ImageSourceLayerPathIndex':[0,0],'ImageSourceName':'Knight','ImageSourceHeightDefault':7.0,'ImageSourceSingleSetGroupId':13001913,'ImageSourceUuid':'4f08bad3-01eb-4a2f-ae9c-8bc391c5ea57'}]" cricut:layerName="'Path0'" cricut:layerNativeSize="{'Width':391.16896559421826,'Height':418.60044021860995}" cricut:nativeSize="{'Width':391.16896559421826,'Height':418.60044021860995}" />
                    </g>
                    <g transform="matrix(1.0,0.0,0.0,1.0,-231.5695320779485,-384.6404616252947)" cricut:graphicContainerSubtypeName="'GraphicGroup'" cricut:graphicId="'A856840D-366F-40C5-8514-C57B57ED4260'" cricut:nativeSize="{'Width':1008.1203647563856,'Height':1089.6774810047498}">
                        <path stroke="rgb(0,0,0)" stroke-width="1.0pt" fill="rgb(73,73,73)" fill-rule="evenodd" d="M 722.9820870371312,1067.7463460607669 C 723.952533662151,1072.4059926249615 723.2223930146731,1077.3066647092198 720.8472006037671,1081.5260039187622 C 709.9574139964939,1100.8708382170869 696.5939315486512,1118.3619105540238 680.9152493068615,1132.2601618008632 C 664.3414239015017,1146.9519060464952 645.1850458136867,1157.6735118915851 623.5846367200216,1162.6957292627424 C 616.7553336645447,1164.2835808765421 609.5950288450437,1162.1494753284173 604.7493446621484,1157.0819317646547 C 604.7137349247431,1157.0446916374026 604.6782890388179,1157.0073337234062 604.643007270021,1156.9698590855648 C 602.8118704398823,1158.0013310642476 600.8011839170871,1158.75034734931 598.670571744427,1159.1620029733128 C 591.293968441791,1160.5872366571027 583.7450258138242,1157.7241411948391 579.1688833594363,1151.765576973903 C 550.0152992077745,1113.8048917090518 539.9555631009629,1075.0138733448387 541.4093791477821,1031.2560324587905 C 541.5647734487048,1026.578880140071 543.363929543067,1022.1557082785864 546.4172590408231,1018.7241754397787 C 543.9331185007475,1014.8269801233132 542.864063001322,1010.1435201924307 543.475418050143,1005.4793406879675 C 545.5939200573698,989.3167627206682 548.5551903573346,973.2757636138535 552.3471181764867,957.4221479691835 C 552.9124894624875,954.9894397165352 553.495197546784,952.5382037528052 554.0957256880872,950.0665249281934 C 555.0629495487686,946.0873102541376 556.0609043018542,942.074201720703 557.1116949802679,937.9937691519024 C 557.8677521597933,935.0578463248478 559.2534381775098,932.4255581008229 561.0973690120562,930.2202449374217 L 557.6011730954376,929.6734544673648 C 551.464219788131,928.7136605474445 546.3523560105574,925.0046708800625 543.4408164907377,919.9198077587081 C 543.0866145066516,920.17022012152 542.7228602827246,920.4099766165045 542.3498820147627,920.6384912704744 C 541.0621491467444,921.427453673965 539.7049630964881,922.0575977276598 538.3059435987475,922.5278420282309 C 537.2890442964725,929.9467151540558 532.177575841173,936.1706754867272 525.0800993343076,938.6030807579573 C 517.9021851009239,941.0630531722135 509.94984906893626,939.2142992442825 504.5931730240651,933.8402934040347 C 501.84292966676566,931.0811525225582 499.65100562440233,928.6714858028314 497.2181984471025,925.6538595788043 C 496.6194391553073,924.9111653950397 496.0750192326422,924.1262581777244 495.58917469802054,923.3052451277142 C 495.2040326839051,922.6544060276259 494.8186612064312,922.0030040220598 494.4330010836619,921.3511140224014 C 472.9553658358402,885.0469829812432 450.9856753656877,846.7621492160355 415.96118801925314,821.9506488985799 C 388.5927364010746,802.5682179499997 358.40637732872494,796.7862365110435 325.471887590085,794.77775556111 C 317.6774481030255,794.302212705668 310.592977466121,793.3389579510523 303.96913427466944,791.2710925716623 C 302.38546796422935,794.0919054673109 300.14630846121855,796.6856314762038 296.9565428465756,798.9362244066824 C 294.5094911165089,800.6627830287078 291.22154309545783,802.3528370478919 286.5302200355039,803.375452728859 C 279.96736135820896,804.7995868292977 274.92014218744754,806.4601594453783 271.0901416363158,808.5930362696943 C 268.8505001833507,809.9156063954861 267.37434643901463,811.0662812616436 266.22088748497185,812.7495466900455 C 268.38866021794195,812.5037675002354 270.6286903729402,812.6137464680845 272.8617658059258,813.1225086224191 C 282.594870447843,815.3400043741703 289.16537191011474,824.4429404968183 288.2048022696322,834.3791328935731 C 288.01045907191497,836.3894310772101 287.8430272799939,838.5019913008737 287.67082302115193,840.6617315018871 C 286.9912917146008,849.1842331547189 286.13846043774436,858.289946784861 284.1406608481043,865.7998775686362 C 275.82627287766815,896.8431642574611 269.05726449055015,928.4702735005498 262.40674692354776,959.504236289929 C 261.50708874521905,963.7023995378443 260.6097192159211,967.8898695900341 259.71123355332435,972.0638104158485 C 259.02221462331795,975.2672403051392 258.72529531398055,977.8909592857848 259.5334988959825,980.2596435216263 C 260.93076254744955,983.3359005472295 262.673768365073,985.2354537682872 265.64366039981445,986.8728761301302 C 267.3620867384173,983.6365209378581 269.4489816389452,980.606838999087 271.86435633825397,977.8448113621793 C 275.01941103209697,974.2369453599215 279.3518430771762,971.9155004539302 284.04162350101495,971.2569816000299 C 284.6156710068142,962.8575638736386 286.6392247114809,955.9671818967631 290.1238128309833,949.9517818097087 C 294.24524331531876,942.8370088597854 300.4993345996905,936.6674764077067 310.47294536553034,931.3678643635902 C 322.27128196275515,925.0705498231379 333.66538641147565,918.3119763452136 341.138979915726,906.3197497024765 C 345.2598062076179,899.707417519891 352.86896625278956,896.118559633564 360.5924041687782,897.1445484145327 C 368.3158420847668,898.1705371955012 374.7241453942636,903.6214881414171 376.97574244551515,911.080339054232 C 386.64509301878553,943.1119338325583 387.2625355929214,972.4143635306792 381.3284779588131,1005.1419918127428 C 381.0279166396635,1006.6678822486858 380.8769904175859,1007.3475491225345 380.5704627061452,1008.7530820563222 C 379.6436048155766,1013.5900252321877 377.0239698363778,1017.696837688901 373.4279786359038,1020.5533712064828 C 374.73572853462747,1023.0104092544359 375.4212819627469,1025.3692212231124 375.86230573694536,1027.7660703718368 C 376.4223213949736,1030.8096093639388 376.41664439538846,1034.2523375400335 375.64936087300663,1039.2705022579212 C 375.4012539334962,1040.9249007868034 375.23571454103876,1042.030252437578 374.9880014325055,1043.6861944741972 C 372.083636548627,1063.0911805713315 368.9898733079168,1082.4251552810395 371.05233005226097,1102.590974258201 C 371.2727575921501,1104.7063216470283 371.7190351233732,1106.6925688161764 372.1356084562087,1108.6939107184685 C 373.1230394766291,1113.4378223446383 374.0275525514987,1118.2252327626697 374.17293423401713,1123.6232912854248 C 374.3090627005427,1128.6777755656183 372.5105087433481,1133.5935710407825 369.1445818624726,1137.3667498770849 C 354.882714585155,1153.3541963313382 333.0764911583133,1163.6662989689603 311.3804766939684,1169.709233437808 C 294.62696024678314,1174.3755467913265 278.1533435018414,1176.5946483362338 266.67350609020684,1177.751795856182 C 265.94043622597326,1185.0642499606256 267.400230579149,1194.858105419088 269.7889955682337,1206.17358807298 C 271.2216864306714,1212.9601864518 273.0347338082013,1220.1939330006608 275.12826679324064,1227.7219980829743 C 275.3517576323312,1224.7500648825078 275.76457216550114,1222.1253110779332 276.32593334510096,1219.9025394491846 C 277.28704444176867,1216.0969138459482 278.7362551249008,1212.992832458914 280.3700865751916,1210.5330687906267 C 283.37079054086,1206.015453101002 287.22999467927065,1203.0610986645943 291.58188448163133,1201.3195865309133 C 296.1895291357698,1199.4749406997146 306.2993280504911,1197.9631460723665 320.86332244310125,1196.5681864269332 C 336.41333123453114,1195.078784950565 358.32064777129006,1192.9996843297172 384.1827070412749,1187.7487638897833 C 394.33186555016647,1185.6881227279127 404.35900088302117,1191.7791615112353 407.2082298540911,1201.7357449969004 C 408.82439696601597,1207.383414222524 411.2232051362612,1213.5509055995356 413.90691427904943,1220.548680388751 C 428.72018448261105,1259.1743001042405 452.12326457780057,1319.594050652891 427.4166172103423,1438.9507678194689 C 422.71094327589776,1461.684443730245 408.0105711480977,1480.4092176757956 395.21417902737267,1494.1616500907776 C 399.65679789171475,1494.0083945555668 402.811535946657,1494.1872202997513 405.37285824240223,1493.9523171260764 C 405.39011791483586,1488.9131351215824 406.7136060636327,1485.1308446526639 408.31450290608456,1482.1906860836073 C 409.83688698833174,1479.3947216678384 411.79304451895166,1477.1182630793298 414.1065185779614,1475.2603295427855 C 416.06708087021065,1473.6858167795817 418.3032829209641,1472.4087327054494 420.83866755495444,1471.4863762579107 C 423.3747612538166,1470.5637618571814 426.60648591463774,1470.0591552705419 430.2113142782939,1469.95403384955 C 434.390857424414,1436.4599215016462 444.635576184849,1310.1073207307122 450.9102278960526,1233.2800429624863 C 451.41156420586253,1227.1416458526846 454.73476745333505,1221.5840071251573 459.90501423675556,1218.2373960973136 C 465.075261020176,1214.89078506947 471.5063764977793,1214.1346225449718 477.311867006722,1216.190720092203 C 496.59853407000696,1223.0213692478603 516.2867733908648,1228.660155443711 536.2652592990844,1233.075177993171 C 541.6325751684998,1234.261294934285 546.0869532401022,1237.5564335455542 548.8351516138331,1241.972915783616 C 553.2475832102574,1238.6949856583049 558.840213776269,1237.3845603458706 564.2773164253919,1238.390524756194 C 571.788556977755,1239.7802429867804 579.4021129698375,1240.527132753599 586.9006387396389,1240.659506510004 C 591.410176933621,1238.2708894093983 596.1896103412267,1237.0478475979985 600.8739000538179,1237.4207317371383 C 605.1577926933867,1237.7617430146388 609.7534353666325,1239.1561105976732 614.3993042862129,1243.0964687416206 C 616.5057517482967,1244.8830360244463 618.9118111278124,1247.489910957099 621.260336626227,1251.5720220291164 C 623.4531202962461,1255.3904221772018 625.1751594489211,1261.3645331154419 624.3329395749885,1268.4569409882533 C 623.9407674358513,1271.7594571757734 622.9923480998867,1275.432693532793 621.3879539843331,1279.0655553729457 C 626.9317763666763,1277.85345611975 632.4238169204152,1276.8446096995149 637.8041023873393,1276.4226353600357 C 638.4320230809326,1276.373717332659 639.0328880108838,1276.3257548007375 639.6072982729006,1276.2751910288725 C 639.5405040609162,1275.721781259624 639.4667440551499,1275.1454025127528 639.389147698929,1274.5449300760745 C 639.3113641631045,1273.9426574700665 638.0649460433276,1274.6283410230683 637.6170997351732,1274.1876772544083 C 634.286893563917,1270.8952092266334 630.9902986739191,1265.9515303167466 629.5843678383704,1261.4841850867901 C 627.8648120493964,1256.0202965673245 628.1680824039502,1250.7113828411314 629.9670545194969,1246.064566143096 C 631.1299854925921,1243.0606690744676 632.9354067711109,1240.2358086387026 635.614053210716,1237.744167598706 C 637.4588941057926,1236.028121308136 639.7963528136623,1234.4001130135573 643.3713502586141,1232.9499959999853 C 655.8704758117444,1228.2511804664384 668.7052534658212,1224.4990729417202 681.8273342969926,1221.7103707547067 C 686.6891914801622,1220.6535518000048 690.7462678614329,1221.184463733069 694.1985048740302,1222.337349271885 C 698.2031524438574,1223.6747140746095 701.58653682975,1225.983682914122 704.3450179179956,1229.1828017074736 C 706.6611963786775,1232.022490815654 708.377457803227,1235.2956294511346 709.7854262678877,1239.0383440797298 C 714.7293735859266,1250.026718084155 721.4423572134132,1260.7798943732662 727.8620524059994,1271.1703139597482 C 730.6632635088603,1275.7041364911763 733.4212527818806,1280.170979393296 736.0040822271661,1284.5564971077436 C 743.5389015820795,1297.3178268770873 745.9738670854268,1306.9674885703 745.1531904401782,1315.723766111589 C 744.7397937502631,1320.1345363857329 743.5115212973269,1324.5837961861248 741.0908453157368,1329.2953224285873 C 745.9614164240749,1326.7952524530829 750.3823607402019,1325.2231648970428 754.3215659369201,1324.3820941340741 C 763.2418271216376,1322.4775041201397 770.7440059386072,1323.780221435922 777.1253865600551,1327.1110856672183 C 783.0473582773022,1330.2021540334329 788.2834556948001,1335.2854020371071 792.1909224825478,1342.991587542098 C 793.6105899138647,1345.7914118721283 794.8877904820772,1349.046996943706 795.9993679340364,1352.8494245112884 C 797.6535944052316,1346.3737360150442 799.5672847810566,1339.863873856059 801.759108325164,1333.2834305356052 C 804.4297176598008,1325.2518013594995 806.6057166564572,1318.608221709217 806.0655576096747,1312.2954888300096 C 805.6883218952256,1307.8868089939526 803.3270760506466,1304.0263841600067 799.1055813778811,1299.6469378682589 C 791.8236574115199,1298.0584826356535 785.8915964452219,1292.4490935848135 784.0641866230429,1284.9675393452114 C 781.88298537858,1276.0375362228256 786.1207618949182,1266.7785458866153 794.3049852664677,1262.592726678951 C 796.1291102989884,1261.659778340218 797.7390794322102,1260.3941628928824 799.0627387718376,1258.8785086175199 C 800.3864104319467,1257.362840234607 801.4237670986869,1255.5971292792588 802.1795507698794,1253.449027584095 C 805.0710801896942,1245.5089351994052 818.2800551846088,1231.950483419792 828.5469031780689,1222.913747336408 C 830.721877908055,1220.9993649830867 832.7498769188329,1219.7789905405784 833.2833666098993,1219.00556567301 C 854.0719349974033,1189.0408052804642 861.9481857618678,1165.5817917883728 860.1270921421849,1131.737594304158 C 859.6380870903099,1122.6424672077208 855.8085906219089,1114.8628467203862 852.3222789294646,1106.8831758687584 C 850.4541859671746,1102.607377181102 848.5875834134836,1098.3102966820823 846.9412134468491,1093.8954859939413 C 846.1560784591634,1091.790113322236 845.7451012854958,1089.5997655726944 845.6954387206573,1087.4148748898838 C 841.4619161498758,1086.2503800240734 837.0023271897062,1083.9884637862274 832.0530771488977,1079.9868811049291 C 821.3036851269428,1071.3225658734393 809.1459626581492,1064.568818706863 796.1096165408876,1060.0212689330958 C 788.9120834611316,1057.5798537737278 782.3330566966702,1053.781809758407 776.6898970840793,1048.9015993261564 C 771.0972842104986,1044.0651017675384 766.4238480943022,1038.1657371343153 762.9793530364963,1031.4700196281387 C 761.186965155638,1028.233378209656 759.4011322828287,1025.0203160395463 757.6250592042433,1021.8247968046344 C 754.856033685962,1016.8427527590834 752.111793543809,1011.9010574799925 749.4031349617208,1006.9785996170549 C 745.355212497518,1024.3526287991492 739.7472756884598,1041.3397635299427 732.6406305036913,1057.7314560133352 C 730.7272201971437,1062.144794870706 727.2857822720209,1065.6925095413378 722.9820870371312,1067.7463460607669 Z M 317.2406686844813,1373.7346830170975 C 317.0156795428363,1373.3765796528694 316.78795595492016,1373.0137521083986 316.5579798028757,1372.6461918572118 C 314.65934935901265,1369.6116985993096 312.63257925256664,1366.3480234427661 310.5899432957343,1362.8730576266637 C 310.32110213047656,1363.9738206773159 310.04147627343394,1365.0399791590528 309.7749799282912,1366.1100977975316 C 309.4629586262899,1367.3630223383739 309.115278020707,1368.6255871218134 308.9126296481408,1370.1482748726712 C 308.77247218924083,1371.2758672090124 308.6761705203548,1371.9693755199598 308.44378951356316,1373.4096792063267 C 306.95723273190185,1381.1544507183205 302.01422300993954,1389.6561118776474 296.49289583121947,1397.7510010167707 C 297.7039263889388,1397.9181181258898 299.0343154073215,1397.9059977875131 300.5051965662577,1397.8616820027855 C 302.98229425684053,1397.7178597878285 304.7414819346143,1397.5594502634963 306.37662767131826,1396.6154589922166 C 305.9775749447014,1391.8046905226192 306.80451860614545,1386.634453947272 310.36121561870476,1381.1569518768138 C 311.8228404281575,1378.9059721358522 313.9523700682903,1376.3571834965198 317.2406686844813,1373.7346830170975 Z M 548.3346850941562,436.4732996508916 C 549.6090326381044,433.34705164341165 551.6922610689682,430.5164903859831 554.5122087423526,428.3196602473758 C 556.8607577444434,426.49006486924713 558.4598269138747,423.9924069074792 559.1925208317592,421.26224035112085 C 559.9252110679811,418.5320875133865 559.7915333452186,415.56942803146626 558.6745824363375,412.8097913781564 C 557.5576415286748,410.05016895730256 555.5930174158133,407.82856359218323 553.1676398079978,406.3766116232208 C 550.7422602694186,404.9246584984069 547.8561270735412,404.2423601445551 544.8961712339712,404.56134975978466 C 541.9362168181352,404.88034158149037 539.2617251565189,406.1619036773562 537.2013928214602,408.0972772641426 C 535.1410692615068,410.03264260803206 533.6948998242672,412.62181537516074 533.1915811833501,415.5560663491202 C 532.6882598717776,418.49030991233747 533.1888836351873,421.4134424102883 534.4864492032802,423.92481304073334 C 535.7840091279182,426.43617274856484 537.8785047727774,428.5357740421362 540.5629342752812,429.82296526872284 C 543.7538298392815,431.3530083453261 546.4066836530155,433.66870346540816 548.3346850941562,436.4732996508916 Z M 1102.9526972798174,794.813166827944 C 1120.4949275840709,755.9008983175486 1133.8071284679622,704.8849909130613 1121.5641052666533,649.6972814339991 C 1120.258478918273,643.81192726797 1121.699135397557,637.6521829165732 1125.479514822789,632.9563565545296 C 1129.259894248021,628.260530192486 1134.969996177013,625.5379069121935 1140.9984035938287,625.5568235203158 C 1166.9353272228466,625.6382112876421 1189.8595824700392,635.1070819712203 1209.5351792183149,649.6862562487611 C 1227.64166684581,663.1027559896662 1242.9358719727784,680.9003664298135 1255.1778430653756,698.8493889657466 C 1258.942148580282,704.3685659028702 1262.415764105666,709.8943881967442 1265.5969843257617,715.288776194373 C 1268.595757151084,688.8460482934071 1267.2000404484422,664.4068089743832 1262.2645043395778,642.1880885907086 C 1254.2777772202026,606.2335635437962 1237.0353786709527,576.2362859114214 1214.7088366951004,553.2229034680312 C 1192.4981352976188,530.3289252537146 1165.2826601708216,514.3287486268168 1137.2268834342935,506.28693445772944 C 1110.0676720817416,498.50210879678724 1082.1157366811992,498.15909836688064 1057.449359358481,506.66680943471073 C 991.5329831400412,529.4042429570117 932.0993452786798,536.0549545872414 893.91994865447,529.10636121103 C 882.7293525675435,527.0696893743628 873.1269883818794,523.8745194826431 865.3055820285093,519.7733565682903 C 855.6482231508922,514.7095099542587 848.4310601488396,508.1615139420867 843.5939531778998,500.6032940761364 C 838.2513645532715,492.25523402270727 835.6062421991079,482.581132129778 836.3168146716362,471.5384782910437 C 836.890696911758,462.62005945712104 839.7846015896228,452.5385517962646 845.8359134150003,441.49197374698855 C 846.3582565935455,440.5381550998717 846.8098254508809,439.67164830930625 847.068831086034,438.84751351991787 C 845.7562654598263,437.71672547626554 844.0655933892616,436.80537947784944 842.1226132362485,435.9289559354487 C 828.3956796777287,429.73712339562513 805.9802727396458,427.5454878342977 778.943405442073,427.68527471143227 C 719.4631491831024,427.99280143714685 639.3082303012561,441.19525550102566 572.8521800088539,462.8406805571631 C 565.1939931941637,465.3350314557484 556.9633853895439,462.92933162387874 551.8264839306936,457.1039992564684 L 551.8264839306936,665.3719442056611 C 553.0737755740088,664.7517325954186 554.4011356720342,664.256148014196 555.7945761436772,663.9031638136955 C 589.5654580078102,655.3483758786554 741.6442259786912,619.5617977696852 791.0243539311484,631.6017707995843 C 801.0735425312099,634.0568976540304 808.6323024595367,637.9187665345696 814.4757971793513,642.4882164989555 C 821.056932722199,647.6344810228051 825.6346891597426,653.7710751307432 828.8304581998727,660.5833304577642 C 833.6956608351086,670.9542309054307 834.9471783499336,683.2202824896488 835.6759579568459,695.3971831590968 C 836.0756974322783,702.0762776889532 835.9439949290756,708.7419723988 838.4288689042223,714.1146004488022 C 838.8267261349174,714.9748207009792 839.3442218122087,715.7753476380814 840.160809409946,716.3976932796788 C 841.7067528875393,717.5759026819536 843.8172499198092,718.2678311875112 846.4760056568371,718.8279616788965 C 862.865490826438,722.2828054146133 880.9624852662589,713.2628563737761 901.3816543678909,704.9199351763828 C 921.2960433473645,696.783258452514 942.7115261322771,688.2120322905529 965.4751486129481,684.5660831493249 C 990.384071136315,680.5765307500923 1016.8127413763403,682.226372089337 1044.725587947734,695.5729955445235 C 1056.9662751483665,701.4260293504933 1066.8456093992029,709.0529893436754 1074.7943957830269,717.8846950328395 C 1082.6435237932822,726.6056726960742 1088.6058696639507,736.5192661985234 1092.9848001512823,747.1693329112352 C 1099.1200598869775,762.0909960145893 1102.0908327406005,778.5091417323667 1102.9526972798174,794.813166827944 Z M 662.6970516384396,942.1858054163662 C 666.8428114469372,940.4576246273017 671.4767376586402,940.1789073006614 675.834643416509,941.4368652326649 C 692.3450919397344,946.2027897006786 708.5531626350593,951.9411770778345 724.3744026714735,958.6199263662015 C 716.9001056213477,942.7214657935286 710.135837303162,926.3246747057417 704.4241228171968,908.7597618100568 C 702.4086068181449,902.5942111173312 701.361598146212,897.296142788619 700.3391320713316,891.904713762223 C 699.1419433552616,885.5919781590886 697.9729278284622,879.0977533447649 693.3835610209915,869.3995624526708 C 690.2452888496588,862.809027377424 669.5259677238024,832.0311248124727 661.6176740424512,822.9161763252124 C 655.6578680660552,816.0458444357558 653.091502706373,810.046096936566 652.1053065715984,804.0377985573759 C 651.1791642794368,798.395372029143 651.7017026352614,792.4086044313642 654.1114759962265,784.8418781753002 C 656.864182349315,776.1925818089017 658.6694400998548,768.8561259411904 656.9817464112563,762.368817661817 C 656.4465221497563,760.3114746697762 655.4337044615352,758.4232237520341 653.9398668945282,756.6374674531413 C 651.4982501871805,753.8236298584593 648.4717567407714,751.5020433587936 644.3844176564796,749.0648119811549 C 641.1566555373626,752.6532149596765 636.7310852885847,754.9426775899416 631.9359824290467,755.503332319108 C 625.5361557097135,756.2516151445542 621.1450642235143,764.0232270168425 616.297825318358,769.3225041006273 C 622.4393791098012,778.6273423747416 626.9316386827843,789.2832037350698 630.8152969136902,798.9118160849391 C 631.1032808346596,799.6258041274359 631.3883527169168,800.3325963397144 631.7046700736239,801.1137068307177 C 631.9460530940592,801.7171643818058 632.2008505093361,802.4155660019005 632.464185442455,803.1753994914321 C 636.875791186666,805.662386607706 639.850835686687,809.0307786630585 641.8660418684004,812.8299297995845 C 643.7993901682206,816.474759027092 644.839709753069,820.6710074995293 644.7253154470741,825.2966313752488 C 644.6595064063206,827.9576717784374 644.1867866672903,830.848203742654 643.28010742411,833.7941116222601 C 641.3970780095656,839.9122964506423 637.0941630434688,846.7111223581361 634.9458571074699,849.8589771377826 C 623.5162321770013,873.3533870242162 618.1269534916062,892.5474998155784 616.4868149253439,917.0287159169906 C 616.2400355247505,920.7122216643561 614.9746631043586,924.2146411975905 612.882017506629,927.1699637266207 C 618.7012000649006,928.0766945467042 624.4045321698316,929.0830890656086 629.9819564599538,930.1692480807075 C 637.4519600150685,931.6353454369224 644.6490680285738,933.210771615715 651.5735600602092,934.8942490362499 C 656.0326383870959,935.9783368863643 659.9531562707934,938.5671672763431 662.6970516384396,942.1858054163662 Z M 722.4077806672055,776.6936227177534 C 723.4634334249612,775.9173721448278 724.2639253625625,774.8533256152384 725.4520131666526,773.506718585968 C 724.3727540150614,771.8391574788964 723.4142057152649,769.9947002305082 722.6017474148242,767.9524385726594 C 721.3071839107795,764.5370139803634 720.9194279858092,761.1160832725797 721.2106222026212,757.5678459663386 C 715.9597067219584,750.8147225375267 712.1701415699763,742.7910063828314 708.4153162200968,734.3255423110747 C 708.2372822016492,733.9241546441979 708.0588304265324,733.5218203902295 707.8796627188021,733.1187032060483 C 705.7446492029904,728.3182243111904 702.9723056740667,724.2943066885666 699.6640310574403,721.2249306906832 C 696.885957831665,718.6474689416787 693.7488234070441,716.7738076727446 690.3849023203368,715.7897287772514 C 687.2764580444821,714.8803868721238 683.9891276676972,714.7525403189998 680.7083887401443,715.4446607629682 C 679.4683629377497,715.706262563001 678.2340210725808,716.0808310715372 677.009544962389,716.5643836332109 C 683.2111669707385,719.9810515791039 688.0014123885662,724.2211336039263 692.0401797317489,729.0316405780108 C 696.9064105801256,734.8277252356565 700.5293518089222,741.6315627742006 704.2698168234746,749.1088458105814 C 705.322869600697,751.2139246274946 706.404141823098,753.3809449848252 707.5877631053355,755.5888521562126 C 712.3637006261665,764.5012361472544 717.1752945950526,771.5909316627906 722.4077806672055,776.6936227177534 Z M 971.4890329552129,1362.6190913853775 C 968.0748404281628,1351.5935272820407 966.5695052986108,1340.9453081169913 966.5753891696269,1330.3133288288936 C 966.5832602388882,1316.0905416308885 969.3551868923782,1301.861060340211 974.2415077891199,1286.6987528046438 C 977.4658765149977,1276.67834442132 981.9474508048359,1267.4093079358004 986.4776250791342,1258.1953545557099 C 988.8720857766469,1253.3252440695621 991.2719874040472,1248.469118716409 993.383922178591,1243.4608665095218 C 1005.5488558514177,1214.6234308123096 1012.5840123456877,1186.273920506374 1008.8017159709323,1154.9731795493956 C 1006.266595931409,1133.847179220035 1001.6151661565292,1115.1934378039223 985.804724368017,1099.2261652420527 C 969.9937367067898,1083.272202615083 952.0958437502479,1074.1517071196663 933.025926410894,1071.6553334220941 C 922.4842858120645,1070.2753654939756 911.6407730555608,1070.88886295592 900.6523099065292,1073.3121116500288 C 903.18242114495,1074.1532035903347 905.6049559192231,1075.070331217182 907.9220005909914,1076.0606290893802 C 920.8082217077683,1081.5681609501632 930.7215037751779,1089.3617647300407 938.0579695996687,1099.1761097402868 C 945.2340052287817,1108.7758395222793 949.9805560378685,1120.4083495341918 952.0981541392836,1134.232073571252 C 953.9329519248771,1146.2096713198061 953.7808497800187,1160.0214926206395 951.5533145005941,1175.668814192504 C 948.5784987251872,1196.5664677986697 938.2515053236301,1215.0251591425179 927.3664277938951,1233.4170352875697 C 924.8592951407874,1237.6531900700425 922.344843614646,1241.8965464066066 919.9591476089571,1246.1995610863078 C 914.668640572925,1255.738996411601 909.795759623553,1265.1335172029044 905.841668134302,1274.6947508807923 C 907.4320971614984,1274.6019241693798 909.0554261852322,1274.700369145709 910.6820215103386,1275.0071455684938 C 920.3017226531917,1276.821424424036 927.1609640095157,1285.380033498172 926.8365607296926,1295.163949910096 C 925.9221698997767,1322.741733502804 926.3402727756192,1350.376962571897 935.4201737166837,1372.5386568805413 C 936.674386630884,1375.5998668411867 938.1050638242332,1378.544543993176 939.7440086008575,1381.3465049211982 C 940.2562381631925,1380.9173737029914 940.7939562081344,1380.5108994347263 941.3564159030191,1380.1293721309403 C 946.431366524187,1376.6869348417426 952.6485622978353,1375.8669298520929 958.2421959626357,1377.5569948735006 C 959.2814437095768,1372.397929231092 962.358016886076,1367.7080317447994 967.045839789555,1364.7259072441284 C 968.4601854205758,1363.8261815408487 969.9531729373546,1363.1251822486436 971.4890329552129,1362.6190913853775 Z" cricut:graphicId="'949A7ADC-824E-4D3F-B872-3C28B83A0180'" cricut:layerFillColorOriginal="'#494949'" cricut:layerGraphicId="'949A7ADC-824E-4D3F-B872-3C28B83A0180'" cricut:layerImageDetails="[{'ImageSourceName':'Offset','LayerOperationsUsedSet':['Offset']},{'ImageSourceId':1348503457,'ImageSourceLayerPathIndex':[0,0],'ImageSourceName':'Knight','ImageSourceHeightDefault':7.0,'ImageSourceSingleSetGroupId':13001913,'ImageSourceUuid':'4f08bad3-01eb-4a2f-ae9c-8bc391c5ea57'}]" cricut:layerName="'Path0'" cricut:layerNativeSize="{'Width':1008.1203647563856,'Height':1089.6774810047498}" cricut:nativeSize="{'Width':1008.1203647563856,'Height':1089.6774810047498}" />
                    </g>
                </g>
            </defs>
        </g>
    </g>
</svg>