<svg xmlns="http://www.w3.org/2000/svg" viewBox="241.59209634366516,375.0323842091768,1039.6450390650698,983.6653626299842" width="1039.6450390650698pt" height="983.6653626299842pt" xmlns:cricut="http://developer.cricut.com/schemas/svg/v1">
    <g cricut:canvasRootGraphic="true" cricut:graphicContainerSubtypeName="'GraphicGroup'" cricut:graphicId="'5CCD7B10-56C4-4AA1-9FF6-B1F94E0E1E8B'">
        <g transform="matrix(2.5562946620729523,0.0,0.0,2.556294662072953,241.59210102438038,375.0323834290576)" cricut:graphicContainerSubtypeName="'GraphicGroup'" cricut:graphicId="'CE0D2BD9-A431-4B1A-AEB8-FADB08BEFBC5'" cricut:nativeSize="{'Width':406.7,'Height':384.8012426831535}">
            <path stroke="rgb(0,0,0)" stroke-width="1.0pt" fill="rgb(0,0,0)" fill-rule="evenodd" transform="matrix(1.0,0.0,0.0,1.0,-46.58000183105469,-57.56999969482422)" d="M 138.06,368.02 C 150.95,341.21 129.24,296.87 150.0,273.01 C 149.8,292.58 155.69,302.33 168.02,317.34 C 183.23,338.71 144.72,346.34 148.51,363.17 C 155.77,383.24 155.05,405.29 162.39,425.09 C 163.81,425.77 165.93,423.45 166.91,426.41 C 167.48,424.64 168.38,423.02 170.14,423.45 C 172.52,425.13 177.66,428.31 174.32,431.41 C 171.57,433.65 173.7,436.29 174.3,438.8 C 173.51,444.13 200.26,442.21 204.08,441.13 C 201.4,434.92 195.86,430.04 192.06,424.32 C 188.05,422.49 182.87,420.22 181.0,416.05 C 162.96,374.62 163.18,370.1 198.11,341.63 C 198.46,341.79 198.5,341.81 198.85,341.97 C 199.66,351.53 196.36,360.65 194.59,369.92 C 192.61,376.64 197.56,379.27 202.62,381.43 C 216.54,387.32 229.82,395.28 240.08,406.52 C 242.74,409.57 246.74,411.34 248.43,415.29 C 250.56,418.1 253.22,419.28 255.91,416.28 C 257.7,414.69 260.31,415.72 262.15,416.84 C 265.99,418.55 260.09,423.63 264.03,428.41 C 271.16,434.31 282.3,430.95 290.84,430.2 C 293.67,429.66 293.84,429.11 292.04,426.93 C 288.18,422.26 284.31,417.61 280.35,413.04 C 273.37,409.53 266.02,405.94 262.32,398.43 C 260.16,395.48 255.96,394.91 253.0,392.96 C 244.5,387.23 218.0,376.3 221.49,364.22 C 226.52,343.38 238.36,324.65 238.77,302.79 C 258.67,306.26 277.78,303.28 296.24,296.99 C 298.25,303.49 300.11,309.54 301.84,315.12 C 304.7,314.73 310.75,312.84 313.38,312.07 C 313.97,311.9 313.61,308.54 314.18,308.35 C 314.76,308.16 318.18,310.43 318.75,310.23 C 329.53,306.38 333.38,301.8 342.35,295.31 C 336.37,287.23 335.79,290.77 328.45,294.31 C 324.64,294.52 324.26,287.91 322.61,285.83 C 329.04,281.43 335.04,277.32 341.03,273.22 C 341.53,274.45 342.08,275.8 342.85,277.7 C 348.59,274.94 353.38,271.56 359.14,269.63 C 372.32,268.28 385.05,264.64 397.97,261.82 C 418.9,257.97 403.37,292.24 398.68,300.95 C 402.18,303.52 401.84,311.3 397.4,309.56 C 393.57,307.24 388.01,309.91 387.51,314.31 C 387.63,322.27 389.71,329.79 392.48,337.16 C 393.1,341.89 406.35,324.13 408.6,322.85 C 411.18,317.83 412.08,311.81 416.79,308.12 C 419.12,305.95 419.99,303.79 419.89,300.81 C 419.49,289.35 420.86,278.06 422.87,266.79 C 426.82,238.02 405.14,246.14 386.39,241.83 C 391.28,237.84 400.83,224.4 406.77,225.66 C 418.88,235.04 419.81,251.87 427.73,263.99 C 428.17,263.15 428.5,262.53 428.82,261.9 C 432.3,262.23 432.46,265.35 433.75,267.47 C 434.59,268.86 434.22,269.81 432.53,269.9 C 429.27,270.07 428.8,272.32 428.08,274.92 C 426.55,284.74 446.03,288.76 453.28,290.7 C 453.16,284.1 451.09,277.55 450.23,270.94 C 446.64,265.89 442.75,261.15 442.75,254.45 C 442.68,252.0 442.26,249.62 440.38,247.62 C 432.67,239.41 426.47,230.14 421.15,220.23 C 408.47,193.9 398.01,208.68 379.45,217.0 C 379.09,207.99 370.41,204.17 369.66,196.51 C 367.6,176.03 372.5,195.14 397.1,167.87 C 402.52,165.16 401.2,175.26 406.58,175.55 C 408.81,176.17 412.27,176.01 413.56,174.67 C 412.88,172.66 412.21,170.7 411.55,168.74 C 414.68,169.31 415.1,173.25 419.38,171.36 C 421.75,170.35 424.1,168.88 423.73,165.55 C 424.2,159.96 425.96,153.76 420.17,149.97 C 415.55,146.9 413.28,141.71 408.66,138.33 C 400.89,133.16 396.74,123.19 388.31,118.74 C 390.9,116.03 390.96,115.54 389.22,113.38 C 384.43,117.38 383.35,111.38 379.08,109.73 C 372.86,107.99 374.3,99.85 370.26,95.87 C 369.78,96.48 367.48,103.49 367.23,103.62 C 364.9,100.52 362.57,97.42 360.23,94.31 C 359.76,94.45 359.76,94.45 359.28,94.6 C 358.84,98.74 358.4,102.81 360.16,106.7 C 345.18,107.84 317.43,131.82 305.22,144.89 L 355.06,70.94 L 356.51,57.57 L 344.75,64.82 C 344.75,64.82 303.36,125.84 290.52,146.23 C 287.17,146.65 283.79,147.3 283.18,147.59 C 281.86,148.21 281.61,147.24 281.13,146.14 C 278.84,140.9 280.23,134.57 276.32,129.87 C 274.37,127.54 275.11,123.97 272.45,121.95 C 272.04,121.64 272.39,120.3 272.39,119.09 C 275.7,120.48 278.44,120.66 281.81,121.29 C 284.54,121.0 283.9,116.57 284.7,114.5 C 287.5,108.77 292.25,114.33 286.17,104.79 L 290.68,103.87 C 290.68,103.87 292.49,95.05 284.76,86.23 L 281.34,87.92 C 277.44,84.06 272.62,83.7 267.13,81.97 C 265.24,75.78 263.11,68.8 261.0,61.91 C 257.21,62.33 259.8,64.74 259.33,66.2 C 245.33,60.78 233.29,70.92 224.65,80.75 C 225.71,80.43 227.99,80.15 228.07,80.34 C 223.46,84.14 219.13,88.45 212.39,88.96 L 222.27,88.96 C 217.25,93.68 209.62,97.3 203.72,91.37 C 204.62,94.88 206.88,95.57 209.47,96.1 C 203.69,96.53 198.92,94.16 194.4,90.9 C 199.97,108.44 222.81,101.08 233.04,92.04 C 240.5,85.39 254.4,80.13 263.37,83.63 C 256.51,88.16 252.2,96.02 255.22,104.15 C 255.32,104.43 255.13,104.99 254.93,105.42 C 238.08,92.19 207.76,116.56 203.73,121.4 C 203.99,120.65 201.14,130.28 195.13,132.92 C 174.76,139.08 152.57,140.66 134.13,152.06 C 131.85,153.52 132.3,154.48 137.1,158.76 C 139.82,160.58 139.51,164.15 141.91,166.01 C 145.56,156.73 153.12,151.76 162.97,156.25 C 160.85,157.88 159.04,159.26 157.23,160.65 C 157.39,161.03 157.37,160.98 157.54,161.37 C 166.9,160.1 173.31,166.01 179.83,170.46 C 184.66,167.33 211.26,133.15 228.37,140.38 C 226.33,150.56 224.11,160.69 225.04,171.14 C 224.97,173.45 223.51,175.69 225.07,178.11 C 225.47,178.73 224.94,180.27 224.41,181.13 C 220.5,187.45 217.29,194.06 215.42,201.57 C 217.61,201.57 219.67,201.94 221.53,201.48 C 227.93,200.95 233.75,210.29 239.76,213.48 C 223.42,221.75 213.2,211.2 203.44,214.54 C 203.87,217.54 206.09,219.46 208.06,221.49 C 169.72,228.62 166.74,253.59 145.28,260.41 C 132.67,261.85 118.77,265.6 113.47,278.27 C 106.93,292.36 105.27,307.95 99.61,322.44 C 88.86,349.75 61.21,354.19 58.77,335.43 C 54.39,356.42 84.22,354.39 95.43,345.04 C 96.87,344.06 70.57,373.22 46.58,363.51 C 58.67,374.24 74.48,368.06 86.96,361.65 C 77.48,368.82 67.36,374.18 54.83,372.8 C 65.91,376.91 72.56,376.13 87.97,370.04 C 77.81,379.97 66.75,387.42 51.65,385.47 C 74.34,389.32 94.29,385.19 109.01,365.7 C 100.21,381.49 87.53,391.76 69.58,394.86 C 78.97,394.89 87.23,391.32 95.21,386.77 C 88.98,393.33 82.2,398.92 72.92,400.59 C 89.43,406.51 106.26,394.31 117.12,382.52 C 126.26,372.66 130.62,360.27 134.0,347.53 C 134.25,347.73 132.05,365.49 128.17,373.57 C 122.67,384.01 113.99,395.74 101.55,397.67 C 117.23,398.27 133.17,383.1 138.07,368.03 L 138.06,368.02 Z M 366.74,155.55 C 375.55,160.43 384.99,160.85 394.41,164.31 C 386.94,174.88 376.13,180.49 368.6,183.1 C 367.59,173.96 365.91,165.1 366.74,155.55 Z M 268.14,171.99 C 273.61,171.59 276.26,167.25 280.05,163.93 C 281.03,165.15 281.9,166.25 282.94,167.54 C 285.71,165.84 288.43,164.17 291.2,162.47 C 291.0,161.5 291.12,160.45 291.08,159.45 C 291.71,159.97 292.49,160.38 292.93,161.04 C 290.88,164.51 288.06,168.88 286.08,171.9 C 282.43,177.46 279.31,171.09 274.24,183.09 C 273.35,185.21 273.46,186.65 274.24,187.62 C 274.24,187.66 274.23,187.7 274.22,187.74 C 267.38,187.16 271.46,184.12 267.53,180.94 C 267.03,180.39 266.07,179.46 266.2,179.27 C 268.34,176.86 263.76,172.48 268.15,171.98 L 268.14,171.99 Z" cricut:graphicId="'631EFA2E-10D0-426B-BC64-C34AD81666D3'" cricut:layerFillColorOriginal="'#000000'" cricut:layerGraphicId="'631EFA2E-10D0-426B-BC64-C34AD81666D3'" cricut:layerImageDetails="[{'ImageSourceId':1348656021,'ImageSourceLayerPathIndex':[0,0],'ImageSourceName':'Knight Horse','ImageSourceHeightDefault':7.0,'ImageSourceSingleSetGroupId':13674869,'ImageSourceUuid':'947596ab-ae18-45db-ba91-a8d4fbf3e53a'}]" cricut:layerName="'Path0'" cricut:layerNativeSize="{'Width':406.7,'Height':384.8012426831535}" cricut:nativeSize="{'Width':406.7,'Height':384.8012426831535}" />
        </g>
    </g>
</svg>