<svg xmlns="http://www.w3.org/2000/svg" viewBox="405.8518270554323,1003.3725771483447,683.50647969894,732.3029114131149" width="683.50647969894pt" height="732.3029114131149pt" xmlns:cricut="http://developer.cricut.com/schemas/svg/v1">
    <g cricut:canvasRootGraphic="true" cricut:graphicContainerSubtypeName="'GraphicGroup'" cricut:graphicId="'1D6BB8CD-E699-40E7-9E0D-D3F4A94D502D'">
        <g transform="matrix(3.390639926980857,0.0,0.0,3.390639926980857,406.2378215930655,1003.5091793290305)" cricut:graphicContainerSubtypeName="'GraphicGroup'" cricut:graphicId="'0E743BCE-C64C-4AF0-A203-92BB16EC6EB7'" cricut:nativeSize="{'Width':201.58627705052655,'Height':215.9777880233902}">
            <path stroke="rgb(0,0,0)" stroke-width="1.0pt" fill="rgb(43,42,41)" fill-rule="evenodd" d="M 201.375,7.4375 C 201.175,6.1375 200.475,4.2375 198.375,2.3375 C 194.775,-0.8625 190.575,-0.5625 188.675,1.6375 L 187.775,2.6375 C 186.175,4.4375 186.375,6.7375 188.375,8.7375 L 165.475,32.7375 C 156.875,26.1375 147.975,22.9375 144.575,21.8375 C 144.875,20.0375 144.375,18.4375 143.175,17.8375 C 141.475,16.9375 138.975,18.2375 137.575,20.7375 C 136.275,23.2375 136.575,26.0375 138.275,26.9375 C 139.575,27.6375 141.375,27.0375 142.775,25.5375 C 144.875,26.6375 149.975,29.4375 153.775,32.7375 C 154.975,33.8375 155.975,34.8375 156.675,35.7375 C 155.075,37.6375 150.675,42.6375 144.375,49.7375 C 141.975,46.2375 140.175,42.8375 138.975,40.1375 C 138.075,38.4375 137.775,37.1375 137.675,36.6375 L 137.675,36.4375 L 137.575,36.4375 L 66.475,36.4375 C 66.475,36.4375 66.475,36.5375 66.475,36.5375 L 66.475,36.6375 C 66.475,36.7375 66.375,36.9375 66.375,37.2375 C 65.475,41.5375 63.075,47.0375 59.375,52.3375 C 51.775,43.9375 46.575,37.9375 44.775,35.8375 C 45.575,34.9375 46.575,33.9375 47.675,32.8375 C 51.375,29.5375 56.575,26.7375 58.675,25.6375 C 60.075,27.1375 61.775,27.7375 63.175,27.0375 C 64.875,26.1375 65.175,23.3375 63.875,20.8375 C 62.575,18.3375 60.075,17.0375 58.275,17.9375 C 57.075,18.6375 56.575,20.2375 56.875,21.9375 C 53.375,22.9375 44.475,26.0375 35.875,32.7375 L 12.975,8.7375 C 14.975,6.7375 15.175,4.4375 13.575,2.6375 L 12.675,1.6375 C 10.775,-0.5625 6.575,-0.8625 2.975,2.3375 C -0.625,5.5375 -0.825,9.7375 1.075,11.9375 L 1.975,12.9375 C 2.775,13.8375 3.775,14.3375 4.875,14.3375 C 5.075,14.3375 5.175,14.3375 5.375,14.3375 C 6.375,14.2375 7.375,13.7375 8.275,12.9375 L 29.675,38.2375 C 22.175,45.8375 17.775,54.0375 16.075,57.6375 C 14.475,57.2375 12.875,57.5375 12.075,58.6375 C 10.975,60.2375 11.975,62.8375 14.275,64.5375 C 16.675,66.1375 19.475,66.2375 20.575,64.6375 C 21.475,63.3375 20.975,61.5375 19.675,59.9375 C 21.575,57.3375 24.975,52.7375 28.675,49.4375 C 29.575,48.6375 30.475,47.8375 31.275,47.2375 C 32.975,49.1375 38.575,55.5375 46.575,64.7375 C 41.675,67.8375 36.075,69.9375 29.775,69.9375 C 29.475,69.9375 29.175,69.9375 28.775,69.9375 C 28.575,85.5375 28.675,123.3375 48.075,159.8375 C 34.275,175.5375 23.775,187.6375 20.275,191.5375 C 19.275,192.6375 16.575,199.2375 15.475,202.0375 C 11.375,212.2375 11.675,212.5375 12.675,213.4375 C 12.975,213.7375 13.275,213.9375 13.675,213.9375 C 14.675,213.9375 16.875,212.8375 23.775,208.9375 C 29.775,205.5375 33.075,203.5375 33.675,202.8375 C 36.775,199.3375 45.775,189.0375 57.775,175.3375 C 68.375,190.2375 82.775,204.3375 102.375,215.9375 L 102.475,215.5375 L 102.575,215.9375 C 120.975,204.7375 134.775,191.3375 145.175,177.2375 C 156.375,190.0375 164.775,199.5375 167.675,202.9375 C 168.275,203.6375 171.575,205.6375 177.575,209.0375 C 184.475,212.9375 186.575,214.0375 187.675,214.0375 C 188.175,214.0375 188.375,213.8375 188.675,213.5375 C 189.675,212.6375 189.975,212.3375 185.875,202.1375 C 184.775,199.3375 181.975,192.7375 181.075,191.6375 C 177.675,187.8375 167.975,176.7375 155.075,162.0375 C 177.175,122.3375 176.275,81.1375 176.175,70.0375 C 175.875,70.0375 175.675,70.0375 175.375,70.0375 C 168.275,70.0375 161.875,67.1375 156.375,62.9375 C 163.475,54.8375 168.375,49.1375 169.975,47.4375 C 170.875,48.0375 171.675,48.8375 172.575,49.6375 C 176.275,52.8375 179.675,57.4375 181.575,60.1375 C 180.275,61.6375 179.775,63.5375 180.675,64.8375 C 181.775,66.4375 184.575,66.4375 186.975,64.7375 C 189.375,63.1375 190.375,60.4375 189.175,58.8375 C 188.375,57.7375 186.875,57.4375 185.175,57.8375 C 183.475,54.2375 179.075,46.0375 171.575,38.4375 L 193.075,12.9375 C 194.175,13.8375 195.375,14.3375 196.475,14.3375 C 197.575,14.3375 198.575,13.8375 199.375,12.9375 L 200.275,11.9375 C 201.275,10.7375 201.675,9.1375 201.375,7.4375 Z M 158.775,38.8375 C 160.375,41.7375 159.975,43.2375 159.975,43.2375 C 159.975,43.2375 159.975,43.2375 159.975,43.2375 L 148.975,55.7375 C 148.075,54.7375 147.275,53.7375 146.475,52.7375 C 152.375,46.0375 156.775,41.1375 158.775,38.8375 Z M 130.275,43.7375 C 132.275,43.7375 133.875,45.3375 133.875,47.3375 C 133.875,49.3375 132.275,50.9375 130.275,50.9375 C 128.275,50.9375 126.675,49.3375 126.675,47.3375 C 126.675,45.3375 128.375,43.7375 130.275,43.7375 Z M 74.975,43.7375 C 76.975,43.7375 78.575,45.3375 78.575,47.3375 C 78.575,49.3375 76.975,50.9375 74.975,50.9375 C 72.975,50.9375 71.375,49.3375 71.375,47.3375 C 71.375,45.3375 72.975,43.7375 74.975,43.7375 Z M 42.575,38.8375 C 44.875,41.4375 49.975,47.3375 56.975,55.3375 C 56.175,56.3375 55.275,57.3375 54.375,58.2375 L 41.375,43.2375 C 41.375,43.2375 41.375,43.2375 41.375,43.2375 C 41.375,43.2375 40.975,41.6375 42.575,38.8375 Z M 34.675,45.6375 L 35.275,45.1375 C 36.475,44.7375 37.875,44.6375 39.475,44.8375 C 39.475,44.8375 39.475,44.8375 39.575,44.8375 L 52.775,59.9375 C 51.775,60.9375 50.675,61.8375 49.575,62.6375 C 42.275,54.2375 36.975,48.1375 34.675,45.6375 Z M 40.375,83.7375 C 38.375,83.7375 36.775,82.1375 36.775,80.1375 C 36.775,78.1375 38.375,76.5375 40.375,76.5375 C 42.375,76.5375 43.975,78.1375 43.975,80.1375 C 43.975,82.1375 42.375,83.7375 40.375,83.7375 Z M 51.675,66.3375 C 53.875,65.0375 55.875,63.5375 57.675,61.6375 C 59.475,59.8375 61.175,57.8375 62.575,55.7375 C 63.975,53.6375 65.275,51.3375 65.975,48.7375 C 66.175,50.0375 65.975,51.4375 65.575,52.8375 C 65.275,54.1375 64.775,55.4375 64.175,56.7375 C 62.975,59.2375 61.275,61.4375 59.375,63.3375 C 58.475,64.3375 57.375,65.2375 56.275,66.0375 C 55.075,66.8375 53.875,67.4375 52.675,68.0375 C 51.375,68.6375 50.075,69.0375 48.775,69.3375 C 47.475,69.6375 46.075,69.8375 44.775,69.8375 C 47.075,68.7375 49.375,67.6375 51.675,66.3375 Z M 45.275,130.6375 C 45.275,128.6375 46.875,127.0375 48.875,127.0375 C 50.875,127.0375 52.475,128.6375 52.475,130.6375 C 52.475,132.6375 50.875,134.2375 48.875,134.2375 C 46.875,134.2375 45.275,132.6375 45.275,130.6375 Z M 22.975,193.8375 C 26.375,189.9375 36.575,178.3375 49.975,163.0375 C 50.575,164.1375 51.275,165.3375 51.975,166.4375 L 18.075,205.1375 C 19.975,200.3375 22.375,194.7375 22.975,193.8375 Z M 31.075,200.4375 C 30.175,201.2375 24.175,204.6375 19.375,207.3375 L 53.275,168.6375 C 54.075,169.9375 54.875,171.1375 55.675,172.4375 C 43.475,186.3375 34.275,196.8375 31.075,200.4375 Z M 69.475,175.9375 C 67.475,175.9375 65.875,174.3375 65.875,172.3375 C 65.875,170.3375 67.475,168.7375 69.475,168.7375 C 71.475,168.7375 73.075,170.3375 73.075,172.3375 C 73.075,174.3375 71.475,175.9375 69.475,175.9375 Z M 56.375,87.0375 C 56.575,87.0375 56.775,87.1375 56.975,87.0375 C 68.575,84.4375 75.875,73.7375 78.575,68.8375 C 77.875,116.6375 80.475,146.1375 83.375,163.8375 C 56.375,136.3375 56.275,99.8375 56.375,87.0375 Z M 89.575,169.4375 C 88.875,168.8375 88.075,168.2375 87.375,167.5375 C 86.175,150.6375 85.075,120.1375 85.475,66.1375 L 89.575,66.1375 L 89.575,169.4375 Z M 102.475,201.0375 C 100.475,201.0375 98.875,199.4375 98.875,197.4375 C 98.875,195.4375 100.475,193.8375 102.475,193.8375 C 104.475,193.8375 106.075,195.4375 106.075,197.4375 C 106.075,199.4375 104.475,201.0375 102.475,201.0375 Z M 102.675,42.2375 C 99.075,42.2375 95.475,42.1375 91.875,42.0375 C 88.875,41.9375 85.975,41.6375 82.975,41.4375 C 82.375,41.3375 82.275,41.1375 82.975,41.1375 C 85.575,40.9375 89.075,40.7375 91.875,40.6375 C 95.475,40.5375 99.075,40.4375 102.675,40.4375 C 106.275,40.4375 109.875,40.5375 113.475,40.6375 C 116.375,40.7375 119.375,40.9375 122.275,41.1375 C 122.875,41.2375 122.875,41.4375 122.275,41.5375 C 119.375,41.8375 116.375,42.0375 113.475,42.1375 C 109.875,42.1375 106.275,42.2375 102.675,42.2375 Z M 116.275,168.4375 C 115.675,169.0375 114.975,169.5375 114.375,170.1375 L 114.375,66.1375 L 118.275,66.1375 C 118.675,121.1375 117.475,151.7375 116.275,168.4375 Z M 120.175,164.8375 C 123.175,147.2375 125.975,117.3375 125.175,68.3375 C 130.575,84.8375 148.475,87.0375 148.675,86.9375 C 148.675,95.9375 149.575,135.6375 120.175,164.8375 Z M 134.475,175.9375 C 132.475,175.9375 130.875,174.3375 130.875,172.3375 C 130.875,170.3375 132.475,168.7375 134.475,168.7375 C 136.475,168.7375 138.075,170.3375 138.075,172.3375 C 138.075,174.3375 136.475,175.9375 134.475,175.9375 Z M 170.275,200.4375 C 167.175,196.9375 158.675,187.2375 147.275,174.2375 C 148.175,173.0375 148.975,171.7375 149.775,170.5375 L 181.975,207.3375 C 177.275,204.6375 171.275,201.2375 170.275,200.4375 Z M 178.275,193.7375 C 178.975,194.6375 181.375,200.3375 183.275,205.1375 L 151.075,168.4375 C 151.775,167.3375 152.475,166.2375 153.075,165.1375 C 165.575,179.3375 175.075,190.0375 178.275,193.7375 Z M 164.775,76.5375 C 166.775,76.5375 168.375,78.1375 168.375,80.1375 C 168.375,82.1375 166.775,83.7375 164.775,83.7375 C 162.775,83.7375 161.175,82.1375 161.175,80.1375 C 161.175,78.1375 162.775,76.5375 164.775,76.5375 Z M 159.375,130.6375 C 159.375,132.6375 157.775,134.2375 155.775,134.2375 C 153.775,134.2375 152.175,132.6375 152.175,130.6375 C 152.175,128.6375 153.775,127.0375 155.775,127.0375 C 157.775,127.0375 159.375,128.6375 159.375,130.6375 Z M 153.675,60.4375 C 152.675,59.5375 151.575,58.5375 150.675,57.5375 L 161.875,44.7375 C 161.875,44.7375 161.875,44.7375 161.975,44.7375 C 163.575,44.5375 164.975,44.7375 166.175,45.0375 L 166.775,45.5375 C 164.575,47.9375 159.975,53.2375 153.675,60.4375 Z" cricut:graphicId="'55F98E37-6967-4047-A492-B6975B649902'" cricut:layerFillColorOriginal="'#231F20'" cricut:layerGraphicId="'55F98E37-6967-4047-A492-B6975B649902'" cricut:layerImageDetails="[{'ImageSourceId':259159434,'ImageSourceLayerPathIndex':[0],'ImageSourceName':'Swords and Shield','ImageSourceHeightDefault':3.0,'ImageSourceSingleSetGroupId':2592477}]" cricut:layerName="'Path0'" cricut:layerNativeSize="{'Width':201.58627705052655,'Height':215.9777880233902}" cricut:nativeSize="{'Width':201.58627705052655,'Height':215.9777880233902}" />
        </g>
    </g>
</svg>