<svg xmlns="http://www.w3.org/2000/svg" viewBox="91.86057542155868,381.7973342735715,1370.7350813365792,295.57425515614483" width="1370.7350813365792pt" height="295.57425515614483pt" xmlns:cricut="http://developer.cricut.com/schemas/svg/v1">
    <g cricut:canvasRootGraphic="true" cricut:graphicContainerSubtypeName="'GraphicGroup'" cricut:graphicId="'27B55C4F-5FEF-4884-932D-C665D4E77F7B'">
        <g transform="matrix(1.0,0.0,0.0,1.0,91.86057542155856,381.79733427357144)" cricut:cacheComponentsId="'components-2'" cricut:graphicContainerSubtypeName="'SymmetricDifferenceGraphic'" cricut:graphicId="'F4F4ACFA-67B0-49FB-89C4-0E226EC3AC9B'" cricut:nativeSize="{'Width':1370.7350813365792,'Height':295.5742551561449}">
            <path stroke="rgb(0,0,0)" stroke-width="1.0pt" fill="rgb(43,42,41)" fill-rule="evenodd" d="M 339.7804126166091,108.1138433927083 C 340.3848762345903,95.45815057987306 344.3371383521591,82.78494583404961 350.58467141073294,70.7421706758106 C 358.3352114075237,55.80268025737655 369.61289625209423,41.853519842428 382.43283891916593,30.079462276598292 L 385.30660750854867,27.438179694131236 L 382.8585600487132,24.37902615897417 C 378.2191055262867,18.575933882452432 372.6098522321543,13.78309898143732 366.13828720327973,9.893034418965499 C 359.75609341862213,6.056109515217372 352.5170226370462,3.09296968161766 344.5285618955157,0.9033741983014352 L 341.2308837558605,0.0 L 339.68198347601884,3.0398300228940798 C 331.527461300977,19.046944493866135 324.781140082111,35.78412541252976 319.9406002601964,53.50620159685491 C 315.1073067553804,71.20895426891684 312.20576061711955,89.83802781009274 311.743807902079,109.63677770294646 L 311.7287114081235,109.72011034958109 L 311.7287114081235,116.74179161819688 C 302.23422442958514,116.25145749451985 293.09903400718935,115.85774093215855 284.1860639758196,115.55943421159645 C 283.67519862036306,114.55823473246289 283.00793358752674,113.64821807682108 282.2198966030459,112.8601810923401 L 282.2114425664308,112.86863512895536 C 280.2645987059202,110.92601828675231 277.5888961172346,109.72011034958109 274.6571569910625,109.72011034958109 C 271.7284371636815,109.72011034958109 269.0587731725782,110.9236028477194 267.1119293120676,112.8601810923401 L 267.0950212388374,112.8770891655704 C 266.44526813898955,113.53106928372574 265.87824382601826,114.26596660948303 265.4120640926702,115.06487306961185 C 255.2334040080653,114.87344952625517 245.2171821984224,114.81366741019121 235.1363473946496,114.88371514214498 C 234.46727078253866,113.22249694727384 233.4660713034051,111.72492474688113 232.2160816038837,110.47191574856868 L 232.22453564049886,110.46346171195364 C 229.84472433334253,108.0842542645554 226.55791566933533,106.60781715570045 222.94079571758027,106.60781715570045 C 219.3423954183301,106.60781715570045 216.0616253519052,108.0842542645554 213.67396386789198,110.46346171195364 L 213.6570557946617,110.48036978518371 C 212.3038060764842,111.83784652166878 211.24342834104488,113.48457208234265 210.58039032651612,115.31185171072502 C 201.02430965263903,115.57392684579384 191.2737861366142,115.94711217637553 181.1530965887987,116.43080384271207 C 180.60781122712342,115.08419658187495 179.79561985231362,113.87225004712172 178.78596633656497,112.8601810923401 L 178.77751229994982,112.86863512895536 C 176.8306684394393,110.92601828675231 174.15496585075368,109.72011034958109 171.2238305843398,109.72011034958109 C 168.29450689720062,109.72011034958109 165.6254467658555,110.9236028477194 163.67799904558666,112.8601810923401 L 163.66109097235648,112.8770891655704 C 162.389362321539,114.1554602737283 161.4352639035469,115.7448191573709 160.9280217066397,117.51473210872211 C 142.24943166528953,118.61436072844606 122.07145784427195,120.05396239204936 99.42248989260634,121.8353486788069 L 73.0881658365065,90.53488197108197 C 39.16513619881965,89.00953222181101 17.00167149276524,103.07342599082187 6.687142962560159,121.80092867258816 C 2.2306579468753114,129.89385715229116 0.0,138.84547420818717 0.0,147.78622178843523 C 0.0,156.72938480771597 2.2306579468753114,165.68039800385384 6.687142962560159,173.77332648355684 C 17.00167149276524,192.50082916532313 39.163324619544994,206.564722934334 73.0881658365065,205.03937318506303 L 99.42248989260634,173.73951033709636 C 122.05877678934928,175.51848118482098 142.23916604939973,176.9580828484244 160.92560626760678,178.05771146814823 C 161.43284846451405,179.83185143780713 162.39358933984664,181.4254373397572 163.66954500897157,182.7038084479151 L 163.66109097235648,182.71226248453013 C 165.59766921697724,184.6506523084256 168.27518338493746,185.8541448065639 171.2238305843398,185.8541448065639 C 174.17187392398392,185.8541448065639 176.8499919517024,184.6506523084256 178.78596633656497,182.71226248453013 C 179.79803529134648,181.70260896878153 180.60962280639808,180.48583155596248 181.1530965887987,179.13741271585081 C 191.26955911830657,179.62110438218724 201.0176671952986,179.9936858530108 210.57193628990103,180.2557609880795 C 211.23437044467147,182.09874097017575 212.29957905817668,183.75150512843186 213.6570557946617,185.11079344419147 L 213.66550983127684,185.10233940757632 C 216.05317131529011,187.48637773304029 219.3381684000226,188.96643800044455 222.94079571758027,188.96643800044455 C 226.55791566933533,188.96643800044455 229.84472433334253,187.49060475134786 232.22453564049886,185.11079344419147 C 233.4745253400202,183.85838830563716 234.47572481915375,182.35417364790396 235.14480143126468,180.68389755665953 C 245.22322079600463,180.75636072764632 255.2358194470982,180.6971824713405 265.4096486536373,180.50757050725838 C 265.87824382601826,181.3107039856949 266.44949515729706,182.04741289072672 267.1034752754525,182.7038084479151 L 267.0950212388374,182.71226248453013 C 269.03159948345814,184.6506523084256 271.7091136514184,185.8541448065639 274.6571569910625,185.8541448065639 C 277.6058041904648,185.8541448065639 280.2833183584251,184.6506523084256 282.2198966030459,182.71226248453013 C 283.00793358752674,181.92603707932392 283.67519862036306,181.01420884440745 284.1884794148525,180.013009365274 C 293.10326102549686,179.7147026447118 302.2360360088597,179.3209860823505 311.7287114081235,178.83065195867346 L 311.7287114081235,185.8541448065639 L 311.743807902079,185.93747745319854 C 312.20576061711955,205.7344157667775 315.1073067553804,224.36530088722816 319.9406002601964,242.0680535592901 C 324.781140082111,259.79012974361524 331.527461300977,276.5279145220371 339.68198347601884,292.5344251332509 L 341.2308837558605,295.5742551561449 L 344.5285618955157,294.6714848176017 C 352.5170226370462,292.4794738952527 359.75609341862213,289.5181456409276 366.13828720327973,285.6812207371795 C 372.6098522321543,281.79176003446594 378.2191055262867,276.996509694418 382.8585600487132,271.1958328569291 L 385.30660750854867,268.1366793217718 L 382.43283891916593,265.4947928795467 C 369.61289625209423,253.720735313717 358.3352114075237,239.77157489876845 350.58467141073294,224.83027290105974 C 344.3371383521591,212.78991318185365 340.3848762345903,200.11852001530474 339.7804126166091,187.4604117634368 C 619.2817325881357,188.544943889205 898.9750799627772,190.69649620775306 1178.4492262451836,190.69649620775306 C 1211.9435154545322,188.6856432128709 1244.298321300114,184.90608498615393 1275.0462563290648,178.64345543362447 C 1305.8720892668266,172.36331394810645 1335.0379117292337,163.5970818379849 1362.0564088913998,151.6316007287985 L 1370.7350813365792,147.78803336770977 L 1362.0564088913998,143.94325828710475 C 1335.0379117292337,131.9771733181601 1305.8720892668266,123.21094120803855 1275.0462563290648,116.93321516155356 C 1244.298321300114,110.66998174926573 1211.9435154545322,106.88921580303236 1178.4492262451836,104.87775894839194 L 339.7804126166091,108.1138433927083 Z M 1315.8124355481987,147.78725166251536 C 1301.3788371241349,152.30157607273247 1286.4470761438279,156.0701390316873 1271.0855176866526,159.1997624027823 C 1241.401327720615,165.245701916214 1210.1731066845778,168.8917159034005 1177.8509052071709,170.85349459549013 C 991.2362943364975,170.85144296711735 804.5240630800693,169.89084567180316 617.8366859584814,168.93046362343375 C 525.1658129341264,168.45373378646502 432.5010625742199,167.977040732879 339.85740763390453,167.617561142437 C 336.2453087020728,167.60354533266047 332.73457269164766,168.5746087315523 329.6819260994775,170.37920721171963 C 328.64206337506005,168.17017014629744 327.1931407603314,166.14977457998373 325.38545274982675,164.4348864380138 C 321.44124067270826,160.69315529792777 316.1345366291994,158.7336194922791 310.7051068422619,159.01407095455602 C 301.33651181039494,159.4979958378815 292.32311869952986,159.88670172156606 283.5248637087252,160.18110922447602 C 280.23784413669216,160.29109958338574 277.0959475126708,161.21045358079357 274.33888824106623,162.78712086657492 C 271.5058553289409,161.35937315132185 268.3239899538363,160.60680937056816 265.03989436966293,160.66801580536344 C 255.0383202895946,160.8544174115567 245.19524724721384,160.91264671284944 235.28746760593054,160.84141043022782 C 230.79782960411694,160.8091302288966 226.54924317075188,162.29091707536168 223.1297846202782,164.89191228489938 C 219.80198525828996,162.17253892697443 215.60594233063568,160.54338091299928 211.11602831275678,160.42022185069618 C 201.69282201509463,160.1617417891879 192.07844185169205,159.79411116090978 182.10075413176202,159.3170546418587 C 178.4913820767183,159.1444821464197 175.00441120538028,159.9575021212703 171.9488804166458,161.5580546539868 C 169.08038026698335,159.6408654639324 165.69896900849363,158.46127900796694 162.0912776451659,158.24897957437122 C 143.52300950814723,157.15630494914876 123.47028075174333,155.72522667086298 100.9771445622367,153.95750594274352 C 94.59394572601255,153.45585455898652 88.36092811061658,156.06513958629387 84.23875231370496,160.96458324786965 L 63.84451226095487,185.20431369167147 C 54.568325428810056,184.73176791038406 46.62913545158983,182.69228628255985 40.07476575404834,179.3374961878152 C 32.82732119844627,175.62796249818143 27.445234622447018,170.3313324344266 24.068725830775108,164.2012197379853 C 21.25377111940618,159.08907801084035 19.84299999999999,153.43539815405325 19.84299999999999,147.78622178843523 C 19.84299999999999,142.13878691513855 21.253878205608743,136.48498314953974 24.068725135090958,131.37303663086414 C 27.445236088334227,125.24291956659982 32.82770076026462,119.94637021706103 40.07529855386957,116.23683397386202 C 46.62969339412729,112.8820996322811 54.568751445776485,110.8425802813124 63.84442314082975,110.3699717486316 L 84.23863090014865,134.61013145962795 C 88.36108362192758,139.50999879236565 94.59470766976702,142.11934444223004 100.9783761887916,141.6172562418642 C 123.48384507187208,139.84715644169114 143.5339348499648,138.4160968723843 162.09418129706654,137.32343526692148 C 165.70265285109616,137.1110006781497 169.08482600865,135.9308400258318 171.95378235948203,134.01272493010072 C 175.00818015376592,135.6115906610554 178.4932693295143,136.42357214299807 182.10035923425022,136.25118079373226 C 192.08235635449518,135.77411756620745 201.69925371897017,135.4058773713208 211.12437928149257,135.14739367500886 C 215.61007381542413,135.0243736795759 219.80319329721544,133.3980501971497 223.13008818696096,130.6823598113025 C 226.54702650353858,133.27845042003185 230.79049491420994,134.75739178633967 235.27422522101102,134.72623611869926 C 245.18491811509762,134.6573706355489 255.0320883673138,134.7161722295357 265.0389554706278,134.90436497228313 C 268.3232185984546,134.96613000618925 271.50536267447563,134.21402080081168 274.33873418118037,132.78661750565277 C 277.09506182503094,134.36239192770006 280.23603617510537,135.2813419697411 283.52231353935605,135.39132984358525 C 292.3188974683637,135.68574125692737 301.33479423713413,136.0744513718995 310.7053016298026,136.55838268289915 C 316.13469939454905,136.83877898035985 321.4413525939232,134.87921790660312 325.3855215290977,131.13749189014118 C 327.1927911631939,129.42298424105127 328.6414569738396,127.40310926343602 329.68125893280825,125.19465351976112 C 332.7339364729082,126.99943120134628 336.2447623757888,127.97063375825365 339.85697817450233,127.95669567546605 L 1177.8887395361726,124.72306935871762 C 1210.197526212216,126.68600284236061 1241.413003161544,130.3327336998376 1271.0856471729812,136.37693456172872 C 1286.4476624951521,139.5054315015683 1301.3796413198625,143.27347102598605 1315.8124355481987,147.78725166251536 Z M 356.9848951474819,27.56158228545746 C 352.1536905759237,32.88405598166082 347.64812899280224,38.47270514247424 343.5642838219179,44.26371779867668 C 345.8993232659198,37.523759864346516 348.5286360657775,30.935859560270615 351.4146605639348,24.48105797359966 C 352.971155229956,25.2277239106092 354.47207378710243,26.032293871383672 355.9142442686143,26.899315466570158 C 356.27492682370473,27.11612213496761 356.63183162056623,27.336854972065794 356.9848951474819,27.56158228545746 Z M 356.9813398059068,268.0150544650952 C 356.6301831908182,268.23850452063436 356.27523240475495,268.457982811566 355.916548239375,268.6735547728623 C 354.4733733756201,269.54118013231175 352.9716227663211,270.34606028047745 351.4144207300739,271.09292239360684 C 348.52889266855334,264.6392245845341 345.8999946370077,258.05235264293526 343.56526573136784,251.31348696014345 C 347.6522893910056,257.1107507604987 352.1580259669788,262.70068797272245 356.9813398059068,268.0150544650952 Z" cricut:graphicId="'3C081EB1-8D58-4050-B797-606E8EE97809'" cricut:layerFillColorOriginal="'#2B2A29'" cricut:layerGraphicId="'3C081EB1-8D58-4050-B797-606E8EE97809'" cricut:layerImageDetails="[{'ImageSourceName':'Offset','LayerOperationsUsedSet':['Offset']},{'ImageSourceId':1348559191,'ImageSourceLayerPathIndex':[0,0,0],'ImageSourceName':'Medieval Sword','ImageSourceHeightDefault':5.0,'ImageSourceSingleSetGroupId':13233828,'ImageSourceUuid':'212a1aaf-fcef-4880-bc52-778003b28e29'}]" cricut:layerName="'Path0'" cricut:layerNativeSize="{'Width':1370.7350813365792,'Height':295.5742551561449}" cricut:nativeSize="{'Width':1370.7350813365792,'Height':295.5742551561449}" />
            <defs>
                <g id="components-2">
                    <g transform="matrix(0.0,-0.06038597582228815,0.06038597582228815,0.0,-211.39620485987524,781.4096236343643)" cricut:graphicContainerSubtypeName="'GraphicGroup'" cricut:graphicId="'315AF148-85DF-4D40-A794-D184E48F9165'" cricut:nativeSize="{'Width':4894.75,'Height':22699.56}">
                        <path stroke="rgb(0,0,0)" stroke-width="1.0pt" fill="rgb(43,42,41)" fill-rule="evenodd" d="M 11149.87,9127.56 L 11203.46,23016.03 C 11170.15,23570.7 11107.54,24106.5 11003.82,24615.69 C 10899.86,25126.17 10754.69,25609.16 10556.53,26056.59 L 10492.86,26200.31 L 10429.21,26056.59 C 10231.06,25609.16 10085.89,25126.17 9981.89,24615.69 C 9878.18,24106.5 9815.59,23570.7 9782.29,23016.03 C 9782.29,18387.9 9817.92,13756.14 9835.88,9127.56 C 9626.26,9137.57 9416.42,9203.02 9217.03,9306.48 C 8969.6,9434.83 8738.6,9621.59 8543.62,9833.89 L 8499.87,9881.48 L 8449.21,9840.94 C 8353.15,9764.11 8273.74,9671.22 8209.33,9564.05 C 8145.79,9458.36 8096.75,9338.48 8060.45,9206.19 L 8045.5,9151.58 L 8095.84,9125.93 C 8360.91,8990.89 8638.09,8879.17 8931.57,8799.01 C 9224.73,8718.97 9533.26,8670.92 9861.1,8663.27 L 9862.48,8663.02 L 9978.79,8663.02 C 9970.67,8505.82 9964.15,8354.58 9959.21,8206.95 C 9942.63,8198.45 9927.53,8187.4 9914.51,8174.35 C 9882.41,8142.28 9862.48,8097.94 9862.48,8049.11 C 9862.48,8000.29 9882.41,7955.95 9914.51,7923.88 L 9914.65,7924.02 C 9925.52,7913.19 9937.72,7903.73 9951.02,7895.97 C 9947.88,7727.49 9946.9,7561.68 9948.1,7394.78 C 9920.44,7383.7 9895.53,7367.12 9874.79,7346.42 C 9835.38,7307.01 9810.94,7252.58 9810.94,7192.68 C 9810.94,7133.02 9835.45,7078.62 9874.93,7039.08 L 9874.79,7038.94 C 9897.3,7016.46 9924.67,6998.82 9955.19,6987.85 C 9959.53,6829.63 9965.7,6668.2 9973.71,6500.67 C 9951.38,6491.67 9931.23,6478.23 9914.51,6461.47 C 9882.41,6429.41 9862.48,6385.06 9862.48,6336.24 C 9862.48,6287.41 9882.41,6243.07 9914.51,6211.0 L 9914.65,6211.14 C 9935.82,6190.01 9962.21,6174.1 9991.59,6165.7 C 10009.8,5856.25 10033.64,5522.06 10063.1,5147.2 L 9544.77,4711.1 C 9519.51,4149.3 9752.41,3782.3 10062.54,3611.49 C 10196.56,3537.69 10344.79,3500.75 10492.89,3500.75 C 10640.95,3500.75 10789.19,3537.69 10923.21,3611.49 C 11233.34,3782.3 11466.24,4149.33 11440.98,4711.1 L 10922.64,5147.2 C 10952.14,5522.27 10975.98,5856.42 10994.19,6165.74 C 11023.5,6174.14 11049.82,6189.94 11070.99,6211.0 L 11071.27,6211.28 C 11103.34,6243.53 11123.27,6287.73 11123.27,6336.24 C 11123.27,6384.78 11103.3,6429.09 11071.13,6461.33 L 11071.27,6461.47 C 11054.51,6478.19 11034.44,6491.64 11012.14,6500.67 C 11020.15,6668.27 11026.33,6829.74 11030.67,6987.99 C 11060.93,6998.97 11088.2,7016.53 11110.68,7038.94 L 11110.96,7039.22 C 11150.36,7078.76 11174.81,7133.09 11174.81,7192.68 C 11174.81,7252.58 11150.36,7307.01 11110.96,7346.42 L 11110.82,7346.28 C 11090.07,7366.98 11065.27,7383.56 11037.76,7394.64 C 11038.92,7561.58 11037.93,7727.45 11034.76,7896.01 C 11047.99,7903.73 11060.16,7913.12 11070.99,7923.88 L 11071.27,7924.16 C 11103.34,7956.4 11123.27,8000.61 11123.27,8049.11 C 11123.27,8097.66 11103.3,8141.97 11071.13,8174.21 L 11071.27,8174.35 C 11058.22,8187.4 11043.15,8198.45 11026.57,8206.91 C 11021.63,8354.51 11015.11,8505.79 11006.99,8663.02 L 11123.27,8663.02 L 11124.65,8663.27 C 11452.52,8670.92 11761.02,8718.97 12054.18,8799.01 C 12347.66,8879.17 12624.83,8990.89 12889.91,9125.93 L 12940.25,9151.58 L 12925.29,9206.19 C 12889.03,9338.48 12839.96,9458.36 12776.42,9564.05 C 12712.0,9671.22 12632.63,9764.11 12536.53,9840.94 L 12485.87,9881.48 L 12442.13,9833.89 C 12247.15,9621.59 12016.15,9434.83 11768.75,9306.48 C 11569.32,9203.02 11359.45,9137.57 11149.87,9127.56 Z" cricut:graphicId="'5A0AEA51-C1C2-44E8-B72E-2362FD5EB636'" cricut:layerFillColorOriginal="'#2B2A29'" cricut:layerGraphicId="'5A0AEA51-C1C2-44E8-B72E-2362FD5EB636'" cricut:layerImageDetails="[{'ImageSourceId':1348559191,'ImageSourceLayerPathIndex':[0,0,0],'ImageSourceName':'Medieval Sword','ImageSourceHeightDefault':5.0,'ImageSourceSingleSetGroupId':13233828,'ImageSourceUuid':'212a1aaf-fcef-4880-bc52-778003b28e29'}]" cricut:layerName="'Path0'" cricut:layerNativeSize="{'Width':4894.75,'Height':22699.56}" cricut:nativeSize="{'Width':4894.75,'Height':22699.56}" />
                    </g>
                    <g transform="matrix(1.0,0.0,0.0,1.0,-91.86057542155856,-381.79733427357144)" cricut:graphicContainerSubtypeName="'GraphicGroup'" cricut:graphicId="'BC942578-BC53-4612-8097-4F1E799E1916'" cricut:nativeSize="{'Width':1295.9694355481988,'Height':246.61186442000718}">
                        <path stroke="rgb(0,0,0)" stroke-width="1.0pt" fill="rgb(73,73,73)" fill-rule="evenodd" d="M 1407.6730109697573,529.5845859360868 C 1393.2402167414211,525.0708052995575 1378.3082379167108,521.3027657751397 1362.94622259454,518.1742688353002 C 1333.2735785831026,512.130067973409 1302.0581016337746,508.48333711593204 1269.7493149577313,506.52040363228906 L 431.7175535960609,509.7540299490375 C 428.1053377973474,509.7679680318251 424.5945118944668,508.7967654749177 421.5418343543668,506.99198779333256 C 420.50203239539815,509.20044353700746 419.05336658475244,511.2203185146227 417.24609695065624,512.9348261637126 C 413.3019280154818,516.6765521801746 407.9952748161076,518.6361132539313 402.56587705136116,518.3557169564706 C 393.1953696586927,517.8717856454709 384.17947288992224,517.4830755304988 375.3828889609146,517.1886641171567 C 372.09661159666393,517.0786762433125 368.9556372465895,516.1597262012715 366.19930960273894,514.5839517792242 C 363.3659380960342,516.0113550743831 360.1837940200132,516.7634642797607 356.89953089218636,516.7016992458546 C 346.89266378887237,516.5135065031071 337.0454935366562,516.4547049091203 327.1348006425696,516.5235703922707 C 322.6510703357685,516.5547260599111 318.40760192509714,515.0757846936033 314.9906636085195,512.4796940848739 C 311.663768718774,515.1953844707211 307.4706492369827,516.8217079531473 302.98495470305113,516.9447279485803 C 293.55982914052873,517.2032116448922 283.94293177605374,517.5714518397789 273.9609346558088,518.0485150673037 C 270.35384475107287,518.2209064165695 266.8687555753245,517.4089249346268 263.8143577810406,515.8100592036722 C 260.94540143020856,517.7281742994032 257.5632282726547,518.9083349517211 253.9547567186251,519.1207695404929 C 235.39451027152336,520.2134311459557 215.34442049343065,521.6444907152626 192.83895161035016,523.4145905154356 C 186.45528309132558,523.9166787158015 180.22165904348614,521.3073330659371 176.09920632170721,516.4074657331994 L 155.7049985623883,492.16730602220304 C 146.42932686733505,492.63991455488383 138.49026881568585,494.67943390585253 131.93587397542814,498.03416824743346 C 124.68827618182318,501.74370449063247 119.30581150989279,507.04025384017126 115.92930055664952,513.1703709044356 C 113.11445362716731,518.2823174231112 111.70357542155855,523.93612118871 111.70357542155855,529.5835560620067 C 111.70357542155855,535.2327324276247 113.11434654096475,540.8864122844118 115.92930125233367,545.9985540115567 C 119.30581004400558,552.128666707998 124.68789662000484,557.4252967717529 131.9353411756069,561.1348304613866 C 138.4897108731484,564.4896205561313 146.42890085036862,566.5291021839555 155.70508768251344,567.0016479652429 L 176.09932773526353,542.7619175214411 C 180.22150353217515,537.8624738598653 186.4545211475711,535.253188832558 192.83771998379527,535.754840216315 C 215.3308561733019,537.5225609444344 235.3835849297058,538.9536392227202 253.95185306672445,540.0463138479427 C 257.5595444300522,540.2586132815384 260.9409556885419,541.4381997375039 263.80945583820437,543.3553889275582 C 266.86498662693884,541.7548363948417 270.3519574982769,540.9418164199911 273.9613295533206,541.1143889154301 C 283.9390172732506,541.5914454344812 293.5533974366532,541.9590760627593 302.97660373431535,542.2175561242676 C 307.46651775219425,542.3407151865707 311.6625606798485,543.9698732005459 314.99036004183677,546.6892465584708 C 318.40981859231044,544.0882513489331 322.6584050256755,542.606464502468 327.1480430274891,542.6387447037993 C 337.0558226687724,542.7099809864209 346.89889571115316,542.6517516851281 356.9004697912215,542.4653500789349 C 360.18456537539487,542.4041436441396 363.3664307504995,543.1567074248933 366.1994636626248,544.5844551401464 C 368.9565229342294,543.007787854365 372.0984195582507,542.0884338569572 375.38543913028377,541.9784434980475 C 384.1836941210884,541.6840359951375 393.1970872319535,541.2953301114529 402.56568226382046,540.8114052281275 C 407.99511205075794,540.5309537658505 413.3018160942668,542.4904895714992 417.2460281713853,546.2322207115852 C 419.05371618188997,547.9471088535552 420.5026387966186,549.9675044198689 421.54250152103606,552.1765414852911 C 424.5951481132062,550.3719430051237 428.10588412363137,549.4008796062319 431.7179830554631,549.4148954160084 C 524.3616379957784,549.7743750064504 617.026388355685,550.2510680600365 709.69726138004,550.7277978970052 C 896.3846385016278,551.6881799453746 1083.096869758056,552.6487772406888 1269.7114806287295,552.6508288690616 C 1302.0336821061364,550.6890501769719 1333.2619031421737,547.0430361897854 1362.946093108211,540.9970966763537 C 1378.3076515653865,537.8674733052587 1393.2394125456935,534.0989103463039 1407.6730109697573,529.5845859360868 Z M 448.84547056904046,409.3589165590289 C 448.4924070421248,409.13418924563723 448.1355022452633,408.91345640853905 447.7748196901729,408.6966497401416 C 446.332649208661,407.8296281449551 444.8317306515146,407.02505818418064 443.27523598549334,406.2783922471711 C 440.38921148733607,412.73319383384205 437.75989868747837,419.32109413791795 435.4248592434765,426.0610520722481 C 439.5087044143608,420.2700394160457 444.01426599748225,414.68139025523226 448.84547056904046,409.3589165590289 Z M 448.8419152274654,649.8123887386666 C 444.0186013885374,644.4980222462939 439.51286481256415,638.9080850340702 435.4258411529264,633.1108212337149 C 437.76057005856626,639.8496869165067 440.3894680901119,646.4365588581055 443.2749961516325,652.8902566671783 C 444.83219818787967,652.1433945540489 446.33394879717866,651.3385144058832 447.77712366093357,650.4708890464337 C 448.1358078263135,650.2553170851374 448.49075861237674,650.0358387942058 448.8419152274654,649.8123887386666 Z" cricut:graphicId="'93F11721-5F42-400C-AFA6-7EC3F88344B6'" cricut:layerFillColorOriginal="'#494949'" cricut:layerGraphicId="'93F11721-5F42-400C-AFA6-7EC3F88344B6'" cricut:layerImageDetails="[{'ImageSourceName':'Offset','LayerOperationsUsedSet':['Offset']},{'ImageSourceId':1348559191,'ImageSourceLayerPathIndex':[0,0,0],'ImageSourceName':'Medieval Sword','ImageSourceHeightDefault':5.0,'ImageSourceSingleSetGroupId':13233828,'ImageSourceUuid':'212a1aaf-fcef-4880-bc52-778003b28e29'}]" cricut:layerName="'Path0'" cricut:layerNativeSize="{'Width':1295.9694355481988,'Height':246.61186442000718}" cricut:nativeSize="{'Width':1295.9694355481988,'Height':246.61186442000718}" />
                    </g>
                </g>
            </defs>
        </g>
    </g>
</svg>